SplineFontDB: 3.2
FontName: Umpush-Oblique
FullName: Umpush Oblique
FamilyName: Umpush
Weight: Regular
Copyright: Copyright (c) 2003 NECTEC. All rights reserved.\nCopyright (c) 2007 Widhaya Trisarnwadhana. All rights reserved.\nModified under GNU General Public License by TLWG.
Version: 001.002
ItalicAngle: -10
UnderlinePosition: -170
UnderlineWidth: 20
Ascent: 1638
Descent: 410
InvalidEm: 0
LayerCount: 3
Layer: 0 0 "Back" 1
Layer: 1 0 "Fore" 0
Layer: 2 1 "Quad" 0
FSType: 0
OS2Version: 4
OS2_WeightWidthSlopeOnly: 0
OS2_UseTypoMetrics: 1
CreationTime: 1153662374
ModificationTime: 1587985983
PfmFamily: 33
TTFWeight: 400
TTFWidth: 5
LineGap: 0
VLineGap: 0
Panose: 2 11 5 4 2 2 2 2 2 4
OS2TypoAscent: 2741
OS2TypoAOffset: 0
OS2TypoDescent: -1312
OS2TypoDOffset: 0
OS2TypoLinegap: 0
OS2WinAscent: 0
OS2WinAOffset: 1
OS2WinDescent: 0
OS2WinDOffset: 1
HheadAscent: 0
HheadAOffset: 1
HheadDescent: 0
HheadDOffset: 1
OS2Vendor: 'PfEd'
Lookup: 4 0 1 "'liga' Standard Ligatures lookup 0" { "'liga' Standard Ligatures lookup 0"  } ['liga' ('latn' <'dflt' > ) ]
Lookup: 6 0 0 "'ccmp' Thai Tone Tilde Reordering" { "'ccmp' Thai Tone Tilde Reordering"  } ['ccmp' ('DFLT' <'dflt' > 'latn' <'dflt' > 'thai' <'KUY ' 'MLY ' 'PAL ' 'SAN ' 'THA ' 'dflt' > ) ]
Lookup: 6 0 0 "'ccmp' Thai Tone Macron Reordering" { "'ccmp' Thai Tone Macron Reordering"  } ['ccmp' ('DFLT' <'dflt' > 'latn' <'dflt' > 'thai' <'KUY ' 'MLY ' 'PAL ' 'SAN ' 'THA ' 'dflt' > ) ]
Lookup: 6 0 0 "'ccmp' Thai Below Vowel Macron Reordering" { "'ccmp' Thai Below Vowel Macron Reordering"  } ['ccmp' ('DFLT' <'dflt' > 'latn' <'dflt' > 'thai' <'KUY ' 'MLY ' 'PAL ' 'SAN ' 'THA ' 'dflt' > ) ]
Lookup: 4 0 0 "'ccmp' Patani Malay Ligatures" { "'ccmp' Patani Malay Ligatures"  } ['ccmp' ('DFLT' <'dflt' > 'thai' <'KUY ' 'MLY ' 'PAL ' 'SAN ' 'THA ' 'dflt' > ) ]
Lookup: 6 0 0 "'ccmp' Thai Conditional Descender Removal" { "'ccmp' Thai Conditional Descender Removal"  } ['ccmp' ('DFLT' <'dflt' > 'thai' <'KUY ' 'MLY ' 'THA ' 'dflt' > ) ]

StartChar: .notdef
Encoding: 65536 -1 0
Width: 1536
Flags: W
HStem: 0 32<294 1254> 1248 32<508 1468>
DStem2: 256 0 288.358 0 0.173648 0.984808<38.1125 1272.8> 1248.36 0 1280 0 0.173648 0.984808<32.4937 1267.18>
LayerCount: 3
Fore
SplineSet
256 0 m 1
 482 1280 l 1
 1506 1280 l 1
 1280 0 l 1
 256 0 l 1
294 32 m 1
 1254 32 l 1
 1468 1248 l 1
 508 1248 l 1
 294 32 l 1
EndSplineSet
Validated: 1
Layer: 2
SplineSet
256 0 m 1,0,-1
 482 1280 l 1,1,-1
 1506 1280 l 1,2,-1
 1280 0 l 1,3,-1
 256 0 l 1,0,-1
294 32 m 1,4,-1
 1254 32 l 1,5,-1
 1468 1248 l 1,6,-1
 508 1248 l 1,7,-1
 294 32 l 1,4,-1
EndSplineSet
EndChar

StartChar: uni0E4D.high
Encoding: 63262 63262 2
Width: 0
VWidth: 2558
Flags: W
HStem: 2056 72<65.0049 195.178> 2284 74<78.6836 213.277>
VStem: -13 70<2136 2261.8> 219 71<2153.12 2275.9>
AnchorPoint: "AboveMark" 202 2560 basemark 0
AnchorPoint: "AboveMark" 115 2070 mark 0
LayerCount: 3
Fore
SplineSet
-13 2178 m 0
 -13 2264 65 2358 167 2358 c 0
 238 2358 290 2306 290 2233 c 0
 290 2131 196 2056 114 2056 c 0
 47 2056 -13 2104 -13 2178 c 0
153 2284 m 0
 95 2284 57 2235 57 2192 c 0
 57 2153 90 2128 124 2128 c 0
 166 2128 219 2169 219 2220 c 0
 219 2263 185 2284 153 2284 c 0
EndSplineSet
Validated: 1
Layer: 2
SplineSet
-13 2178 m 0,0,1
 -13 2245 -13 2245 40 2301.5 c 128,-1,2
 93 2358 93 2358 167 2358 c 0,3,4
 220 2358 220 2358 255 2323 c 128,-1,5
 290 2288 290 2288 290 2233 c 0,6,7
 290 2160 290 2160 234.5 2108 c 128,-1,8
 179 2056 179 2056 114 2056 c 0,9,10
 62 2056 62 2056 24.5 2090 c 128,-1,11
 -13 2124 -13 2124 -13 2178 c 0,0,1
153 2284 m 0,12,13
 112 2284 112 2284 84.5 2255.5 c 128,-1,14
 57 2227 57 2227 57 2192 c 0,15,16
 57 2164 57 2164 77 2146 c 128,-1,17
 97 2128 97 2128 124 2128 c 0,18,19
 157 2128 157 2128 188 2155.5 c 128,-1,20
 219 2183 219 2183 219 2220 c 0,21,22
 219 2250 219 2250 199 2267 c 128,-1,23
 179 2284 179 2284 153 2284 c 0,12,13
EndSplineSet
EndChar

StartChar: exclam
Encoding: 33 33 5
Width: 569
Flags: W
HStem: 0 194<232 378> 1430 20G<450.452 634>
VStem: 306 92<365 423.263>
DStem2: 198 0 378 0 0.173648 0.984808<31.2567 196.957 655.611 1472.43>
LayerCount: 3
Fore
SplineSet
374 999 m 1
 454 1450 l 1
 634 1450 l 1
 554 999 l 1
 398 365 l 1
 306 365 l 1
 374 999 l 1
232 194 m 1
 412 194 l 1
 378 0 l 1
 198 0 l 1
 232 194 l 1
EndSplineSet
Validated: 1
Layer: 2
SplineSet
374 999 m 1,0,-1
 454 1450 l 1,1,-1
 634 1450 l 1,2,-1
 554 999 l 1,3,-1
 398 365 l 1,4,-1
 306 365 l 1,5,-1
 374 999 l 1,0,-1
232 194 m 1,6,-1
 412 194 l 1,7,-1
 378 0 l 1,8,-1
 198 0 l 1,9,-1
 232 194 l 1,6,-1
EndSplineSet
EndChar

StartChar: quotedbl
Encoding: 34 34 6
Width: 727
Flags: W
HStem: 947 503<362 408 695 739>
VStem: 323 552
LayerCount: 3
Fore
SplineSet
323 947 m 1
 321 1217 l 1
 362 1450 l 1
 542 1450 l 1
 501 1217 l 1
 408 947 l 1
 323 947 l 1
654 947 m 1
 654 1217 l 1
 695 1450 l 1
 875 1450 l 1
 834 1217 l 1
 739 947 l 1
 654 947 l 1
EndSplineSet
Validated: 1
Layer: 2
SplineSet
323 947 m 1,0,-1
 321 1217 l 1,1,-1
 362 1450 l 1,2,-1
 542 1450 l 1,3,-1
 501 1217 l 1,4,-1
 408 947 l 1,5,-1
 323 947 l 1,0,-1
654 947 m 1,6,-1
 654 1217 l 1,7,-1
 695 1450 l 1,8,-1
 875 1450 l 1,9,-1
 834 1217 l 1,10,-1
 739 947 l 1,11,-1
 654 947 l 1,6,-1
EndSplineSet
EndChar

StartChar: numbersign
Encoding: 35 35 7
Width: 1139
Flags: W
HStem: -10 21G<85 272.7 544 731.7> 390 170<120 239 485 698 944 1182> 900 170<210 435 681 894 1140 1272> 1450 20G<646.35 834 1105.35 1293>
DStem2: 85 -10 265 -10 0.358852 0.933394<64.5934 428.621 675.576 974.987 1221.94 1585.61> 544 -10 724 -10 0.358852 0.933394<64.5934 428.621 675.576 974.987 1221.94 1585.61>
LayerCount: 3
Fore
SplineSet
265 -10 m 1
 85 -10 l 1
 239 390 l 1
 90 390 l 1
 120 560 l 1
 305 560 l 1
 435 900 l 1
 180 900 l 1
 210 1070 l 1
 501 1070 l 1
 654 1470 l 1
 834 1470 l 1
 681 1070 l 1
 960 1070 l 1
 1113 1470 l 1
 1293 1470 l 1
 1140 1070 l 1
 1302 1070 l 1
 1272 900 l 1
 1074 900 l 1
 944 560 l 1
 1212 560 l 1
 1182 390 l 1
 878 390 l 1
 724 -10 l 1
 544 -10 l 1
 698 390 l 1
 419 390 l 1
 265 -10 l 1
894 900 m 1
 615 900 l 1
 485 560 l 1
 764 560 l 1
 894 900 l 1
EndSplineSet
Validated: 1
Layer: 2
SplineSet
265 -10 m 1,0,-1
 85 -10 l 1,1,-1
 239 390 l 1,2,-1
 90 390 l 1,3,-1
 120 560 l 1,4,-1
 305 560 l 1,5,-1
 435 900 l 1,6,-1
 180 900 l 1,7,-1
 210 1070 l 1,8,-1
 501 1070 l 1,9,-1
 654 1470 l 1,10,-1
 834 1470 l 1,11,-1
 681 1070 l 1,12,-1
 960 1070 l 1,13,-1
 1113 1470 l 1,14,-1
 1293 1470 l 1,15,-1
 1140 1070 l 1,16,-1
 1302 1070 l 1,17,-1
 1272 900 l 1,18,-1
 1074 900 l 1,19,-1
 944 560 l 1,20,-1
 1212 560 l 1,21,-1
 1182 390 l 1,22,-1
 878 390 l 1,23,-1
 724 -10 l 1,24,-1
 544 -10 l 1,25,-1
 698 390 l 1,26,-1
 419 390 l 1,27,-1
 265 -10 l 1,0,-1
894 900 m 1,28,-1
 615 900 l 1,29,-1
 485 560 l 1,30,-1
 764 560 l 1,31,-1
 894 900 l 1,28,-1
EndSplineSet
EndChar

StartChar: dollar
Encoding: 36 36 8
Width: 1139
Flags: W
HStem: 1062 21G<1015 1196>
VStem: 144 188<260.464 429> 284 184<896.791 1144.92> 936 185<304.573 559.07> 1015 183<1062 1184.33>
DStem2: 454 -106 634 -106 0.173648 0.984808<31.2567 102.591 311.572 777.665 956.515 1375.92 1582.93 1630.74>
LayerCount: 3
Fore
SplineSet
737 1500 m 1xa0
 917 1500 l 1
 904 1422 l 1
 1071 1395 1198 1291 1198 1114 c 3
 1198 1097 1197 1080 1195 1062 c 1
 1015 1062 l 1xa8
 1015 1157 960 1220 873 1246 c 1
 794 799 l 1
 958 761 1121 687 1121 486 c 3
 1121 204 893 31 652 -4 c 1
 634 -106 l 1
 454 -106 l 1
 472 -5 l 1
 277 21 144 140 144 340 c 3
 144 368 147 398 152 429 c 1
 332 429 l 1xd0
 332 290 392 200 503 170 c 1
 590 665 l 1
 445 701 284 779 284 973 c 3
 284 1247 509 1392 724 1423 c 1
 737 1500 l 1xa0
693 1249 m 1
 576 1223 468 1151 468 1011 c 3
 468 911 537 862 620 836 c 1
 693 1249 l 1
683 170 m 1
 813 201 936 290 936 445 c 3x90
 936 554 858 603 764 629 c 1
 683 170 l 1
EndSplineSet
Validated: 1
Layer: 2
SplineSet
737 1500 m 1,0,-1
 917 1500 l 1,1,-1
 904 1422 l 1,2,3
 1035 1401 1035 1401 1116.5 1321.5 c 128,-1,4
 1198 1242 1198 1242 1198 1114 c 0,5,6
 1198 1089 1198 1089 1195 1062 c 1,7,-1
 1015 1062 l 1,8,9
 1015 1132 1015 1132 977.5 1179 c 128,-1,10
 940 1226 940 1226 873 1246 c 1,11,-1
 794 799 l 1,12,13
 863 783 863 783 915.5 761.5 c 128,-1,14
 968 740 968 740 1017.5 704.5 c 128,-1,15
 1067 669 1067 669 1094 613.5 c 128,-1,16
 1121 558 1121 558 1121 486 c 0,17,18
 1121 384 1121 384 1082 296 c 128,-1,19
 1043 208 1043 208 976.5 147.5 c 128,-1,20
 910 87 910 87 827 48 c 128,-1,21
 744 9 744 9 652 -4 c 1,22,-1
 634 -106 l 1,23,-1
 454 -106 l 1,24,-1
 472 -5 l 1,25,26
 321 15 321 15 232.5 104.5 c 128,-1,27
 144 194 144 194 144 340 c 0,28,29
 144 379 144 379 152 429 c 1,30,-1
 332 429 l 1,31,32
 332 325 332 325 376 259 c 128,-1,33
 420 193 420 193 503 170 c 1,34,-1
 590 665 l 1,35,36
 284 741 284 741 284 973 c 0,37,38
 284 1072 284 1072 322 1154 c 128,-1,39
 360 1236 360 1236 424 1290 c 128,-1,40
 488 1344 488 1344 564 1377.5 c 128,-1,41
 640 1411 640 1411 724 1423 c 1,42,-1
 737 1500 l 1,0,-1
693 1249 m 1,43,44
 595 1227 595 1227 531.5 1168 c 128,-1,45
 468 1109 468 1109 468 1011 c 0,46,47
 468 884 468 884 620 836 c 1,48,-1
 693 1249 l 1,43,44
683 170 m 1,49,50
 791 196 791 196 863.5 266 c 128,-1,51
 936 336 936 336 936 445 c 0,52,53
 936 521 936 521 890 564 c 128,-1,54
 844 607 844 607 764 629 c 1,55,-1
 683 170 l 1,49,50
EndSplineSet
EndChar

StartChar: percent
Encoding: 37 37 9
Width: 1821
Flags: W
HStem: -50 170<1329.8 1492.56> -10 21G<456 649.644> 554 170<1386.93 1555.92> 717 170<516.81 679.324> 1321 170<573.788 743.193>
VStem: 305 183<907.448 1217.32> 767 182<992.759 1301.16> 1117 184<143.97 455.906> 1579 182<225.56 534.809>
DStem2: 456 -10 636 -10 0.563559 0.826076<101.441 1817.02>
LayerCount: 3
Fore
SplineSet
1508 724 m 3xaf80
 1679 724 1761 604 1761 438 c 3
 1761 168 1599 -50 1371 -50 c 3
 1200 -50 1117 69 1117 235 c 3
 1117 505 1281 724 1508 724 c 3xaf80
1401 120 m 3
 1508 120 1579 274 1579 412 c 3
 1579 490 1553 554 1478 554 c 3
 1372 554 1301 408 1301 275 c 3
 1301 191 1333 120 1401 120 c 3
695 1491 m 3
 866 1491 949 1372 949 1205 c 3
 949 935 785 717 558 717 c 3x1f80
 387 717 305 836 305 1002 c 3
 305 1272 467 1491 695 1491 c 3
588 887 m 3
 694 887 767 1042 767 1179 c 3
 767 1257 740 1321 665 1321 c 3
 559 1321 488 1174 488 1041 c 3
 488 957 520 887 588 887 c 3
1480 1491 m 1
 1660 1491 l 1
 636 -10 l 1
 456 -10 l 1x4f80
 1480 1491 l 1
EndSplineSet
Validated: 1
Layer: 2
SplineSet
1508 724 m 3,0,1
 1632 724 1632 724 1696.5 646 c 128,-1,2
 1761 568 1761 568 1761 438 c 0,3,4
 1761 304 1761 304 1711.5 192.5 c 128,-1,5
 1662 81 1662 81 1572.5 15.5 c 128,-1,6
 1483 -50 1483 -50 1371 -50 c 0,7,8
 1247 -50 1247 -50 1182 28 c 128,-1,9
 1117 106 1117 106 1117 235 c 0,10,11
 1117 440 1117 440 1228.5 582 c 128,-1,12
 1340 724 1340 724 1508 724 c 3,0,1
1401 120 m 3,13,14
 1452 120 1452 120 1494 164.5 c 128,-1,15
 1536 209 1536 209 1557.5 275.5 c 128,-1,16
 1579 342 1579 342 1579 412 c 0,17,18
 1579 554 1579 554 1478 554 c 0,19,20
 1402 554 1402 554 1351.5 467.5 c 128,-1,21
 1301 381 1301 381 1301 275 c 0,22,23
 1301 208 1301 208 1326.5 164 c 128,-1,24
 1352 120 1352 120 1401 120 c 3,13,14
695 1491 m 3,25,26
 819 1491 819 1491 884 1413 c 128,-1,27
 949 1335 949 1335 949 1205 c 0,28,29
 949 1000 949 1000 837.5 858.5 c 128,-1,30
 726 717 726 717 558 717 c 0,31,32
 434 717 434 717 369.5 794.5 c 128,-1,33
 305 872 305 872 305 1002 c 0,34,35
 305 1136 305 1136 354.5 1247.5 c 128,-1,36
 404 1359 404 1359 493.5 1425 c 128,-1,37
 583 1491 583 1491 695 1491 c 3,25,26
588 887 m 3,38,39
 664 887 664 887 715.5 978.5 c 128,-1,40
 767 1070 767 1070 767 1179 c 0,41,42
 767 1243 767 1243 742.5 1282 c 128,-1,43
 718 1321 718 1321 665 1321 c 0,44,45
 589 1321 589 1321 538.5 1234 c 128,-1,46
 488 1147 488 1147 488 1041 c 0,47,48
 488 974 488 974 513.5 930.5 c 128,-1,49
 539 887 539 887 588 887 c 3,38,39
1480 1491 m 1,50,-1
 1660 1491 l 1,51,-1
 636 -10 l 1,52,-1
 456 -10 l 1,53,-1
 1480 1491 l 1,50,-1
EndSplineSet
EndChar

StartChar: ampersand
Encoding: 38 38 10
Width: 1366
Flags: W
HStem: -11 170<433.017 754.01> 1312 170<728.264 963.049>
VStem: 154 186<250.818 523.652> 472 184<1042.12 1239.09> 1002 186<1058.31 1271.81>
DStem2: 845 821 658 725 0.539283 -0.842124<-376.448 -158.438 0 387.612>
LayerCount: 3
Fore
SplineSet
1005 179 m 1
 866 55 718 -11 551 -11 c 3
 310 -11 154 141 154 340 c 3
 154 576 317 726 584 842 c 1
 532 928 472 1009 472 1112 c 3
 472 1331 695 1482 898 1482 c 3
 1074 1482 1188 1367 1188 1223 c 3
 1188 1045 1057 925 845 821 c 1
 1050 492 l 1
 1090 549 1124 611 1154 690 c 1
 1335 649 l 1
 1280 522 1219 424 1150 341 c 1
 1203 261 1266 186 1341 123 c 1
 1194 -21 l 1
 1130 27 1068 96 1005 179 c 1
771 938 m 1
 904 1012 1002 1051 1002 1177 c 3
 1002 1251 939 1312 858 1312 c 3
 764 1312 656 1235 656 1150 c 3
 656 1087 733 994 771 938 c 1
658 725 m 1
 476 630 340 545 340 387 c 3
 340 283 413 159 583 159 c 3
 716 159 841 246 917 322 c 1
 658 725 l 1
EndSplineSet
Validated: 1
Layer: 2
SplineSet
1005 179 m 1,0,1
 792 -11 792 -11 551 -11 c 0,2,3
 373 -11 373 -11 263.5 88.5 c 128,-1,4
 154 188 154 188 154 340 c 0,5,6
 154 510 154 510 263.5 630 c 128,-1,7
 373 750 373 750 584 842 c 1,8,9
 579 851 579 851 558.5 883.5 c 128,-1,10
 538 916 538 916 531 928.5 c 128,-1,11
 524 941 524 941 509.5 969.5 c 128,-1,12
 495 998 495 998 489 1016.5 c 128,-1,13
 483 1035 483 1035 477.5 1061 c 128,-1,14
 472 1087 472 1087 472 1112 c 0,15,16
 472 1191 472 1191 510 1261.5 c 128,-1,17
 548 1332 548 1332 609 1379.5 c 128,-1,18
 670 1427 670 1427 746 1454.5 c 128,-1,19
 822 1482 822 1482 898 1482 c 0,20,21
 1027 1482 1027 1482 1107.5 1407.5 c 128,-1,22
 1188 1333 1188 1333 1188 1223 c 0,23,24
 1188 1096 1188 1096 1101 1000 c 128,-1,25
 1014 904 1014 904 845 821 c 1,26,-1
 1050 492 l 1,27,28
 1113 581 1113 581 1154 690 c 1,29,-1
 1335 649 l 1,30,31
 1258 471 1258 471 1150 341 c 1,32,33
 1236 211 1236 211 1341 123 c 1,34,-1
 1194 -21 l 1,35,36
 1108 44 1108 44 1005 179 c 1,0,1
771 938 m 1,37,38
 784 945 784 945 813 961 c 128,-1,39
 842 977 842 977 854 984 c 128,-1,40
 866 991 866 991 889.5 1004.5 c 128,-1,41
 913 1018 913 1018 923 1026.5 c 128,-1,42
 933 1035 933 1035 949 1049.5 c 128,-1,43
 965 1064 965 1064 972 1076 c 128,-1,44
 979 1088 979 1088 987.5 1104 c 128,-1,45
 996 1120 996 1120 999 1138 c 128,-1,46
 1002 1156 1002 1156 1002 1177 c 0,47,48
 1002 1233 1002 1233 960 1272.5 c 128,-1,49
 918 1312 918 1312 858 1312 c 0,50,51
 785 1312 785 1312 720.5 1262 c 128,-1,52
 656 1212 656 1212 656 1150 c 0,53,54
 656 1128 656 1128 670.5 1096 c 128,-1,55
 685 1064 685 1064 698 1043.5 c 128,-1,56
 711 1023 711 1023 739 983.5 c 128,-1,57
 767 944 767 944 771 938 c 1,37,38
658 725 m 1,58,59
 595 692 595 692 554 668 c 128,-1,60
 513 644 513 644 468.5 611 c 128,-1,61
 424 578 424 578 398.5 546.5 c 128,-1,62
 373 515 373 515 356.5 474 c 128,-1,63
 340 433 340 433 340 387 c 0,64,65
 340 346 340 346 354.5 307 c 128,-1,66
 369 268 369 268 397.5 234 c 128,-1,67
 426 200 426 200 474 179.5 c 128,-1,68
 522 159 522 159 583 159 c 0,69,70
 674 159 674 159 762 207 c 128,-1,71
 850 255 850 255 917 322 c 1,72,-1
 658 725 l 1,58,59
EndSplineSet
EndChar

StartChar: quotesingle
Encoding: 39 39 11
Width: 391
Flags: W
HStem: 947 519<348 414>
VStem: 303 250
LayerCount: 3
Fore
SplineSet
303 947 m 1
 305 1221 l 1
 348 1466 l 1
 553 1466 l 1
 510 1221 l 1
 414 947 l 1
 303 947 l 1
EndSplineSet
Validated: 1
Layer: 2
SplineSet
303 947 m 1,0,-1
 305 1221 l 1,1,-1
 348 1466 l 1,2,-1
 553 1466 l 1,3,-1
 510 1221 l 1,4,-1
 414 947 l 1,5,-1
 303 947 l 1,0,-1
EndSplineSet
EndChar

StartChar: parenleft
Encoding: 40 40 12
Width: 682
Flags: W
VStem: 197 177<-49.038 641.405>
LayerCount: 3
Fore
SplineSet
403 -431 m 1
 282 -228 197 19 197 295 c 3
 197 820 468 1205 742 1491 c 1
 871 1491 l 1
 587 1117 374 776 374 268 c 3
 374 35 428 -198 532 -431 c 1
 403 -431 l 1
EndSplineSet
Validated: 1
Layer: 2
SplineSet
403 -431 m 1,0,1
 197 -85 197 -85 197 295 c 0,2,3
 197 447 197 447 228 594 c 128,-1,4
 259 741 259 741 309 860.5 c 128,-1,5
 359 980 359 980 432.5 1098 c 128,-1,6
 506 1216 506 1216 579 1307 c 128,-1,7
 652 1398 652 1398 742 1491 c 1,8,-1
 871 1491 l 1,9,10
 775 1365 775 1365 709 1267.5 c 128,-1,11
 643 1170 643 1170 575 1046.5 c 128,-1,12
 507 923 507 923 466 809 c 128,-1,13
 425 695 425 695 399.5 555.5 c 128,-1,14
 374 416 374 416 374 268 c 0,15,16
 374 -77 374 -77 532 -431 c 1,17,-1
 403 -431 l 1,0,1
EndSplineSet
EndChar

StartChar: parenright
Encoding: 41 41 13
Width: 682
Flags: W
VStem: 502 174<451.16 1117.48>
LayerCount: 3
Fore
SplineSet
127 -431 m 1
 -2 -431 l 1
 315 -33 502 360 502 841 c 3
 502 1079 436 1248 337 1491 c 1
 466 1491 l 1
 586 1295 676 1074 676 791 c 3
 676 277 421 -121 127 -431 c 1
EndSplineSet
Validated: 1
Layer: 2
SplineSet
127 -431 m 1,0,-1
 -2 -431 l 1,1,2
 248 -117 248 -117 375 189 c 128,-1,3
 502 495 502 495 502 841 c 0,4,5
 502 1003 502 1003 464 1137.5 c 128,-1,6
 426 1272 426 1272 337 1491 c 1,7,-1
 466 1491 l 1,8,9
 566 1328 566 1328 621 1158.5 c 128,-1,10
 676 989 676 989 676 791 c 0,11,12
 676 605 676 605 633 429.5 c 128,-1,13
 590 254 590 254 510.5 101 c 128,-1,14
 431 -52 431 -52 338 -179 c 128,-1,15
 245 -306 245 -306 127 -431 c 1,0,-1
EndSplineSet
EndChar

StartChar: asterisk
Encoding: 42 42 14
Width: 797
Flags: W
HStem: 1197 142<785.331 917.12>
VStem: 584 145<1320.82 1491>
LayerCount: 3
Fore
SplineSet
275 1197 m 1
 346 1339 l 1
 445 1302 517 1269 560 1242 c 1
 568 1363 577 1446 584 1491 c 1
 729 1491 l 1
 715 1425 692 1342 662 1243 c 1
 737 1278 821 1310 915 1339 c 1
 936 1197 l 1
 846 1169 760 1150 677 1141 c 1
 712 1106 758 1043 816 952 c 1
 681 867 l 1
 651 920 619 991 582 1082 c 1
 516 988 460 916 414 867 c 1
 311 952 l 1
 405 1047 472 1110 510 1141 c 1
 427 1158 348 1176 275 1197 c 1
EndSplineSet
Validated: 1
Layer: 2
SplineSet
275 1197 m 1,0,-1
 346 1339 l 1,1,2
 493 1284 493 1284 560 1242 c 1,3,4
 571 1407 571 1407 584 1491 c 1,5,-1
 729 1491 l 1,6,7
 710 1401 710 1401 662 1243 c 1,8,9
 775 1296 775 1296 915 1339 c 1,10,-1
 936 1197 l 1,11,12
 798 1154 798 1154 677 1141 c 1,13,14
 728 1090 728 1090 816 952 c 1,15,-1
 681 867 l 1,16,17
 640 940 640 940 582 1082 c 1,18,19
 482 939 482 939 414 867 c 1,20,-1
 311 952 l 1,21,22
 448 1090 448 1090 510 1141 c 1,23,24
 370 1170 370 1170 275 1197 c 1,0,-1
EndSplineSet
EndChar

StartChar: plus
Encoding: 43 43 15
Width: 1196
Flags: W
HStem: 638 170<256 620 830 1194>
DStem2: 550 237 730 237 0.173648 0.984808<31.2567 407.063 610.947 983.973>
LayerCount: 3
Fore
SplineSet
550 237 m 1
 620 638 l 1
 226 638 l 1
 256 808 l 1
 650 808 l 1
 721 1206 l 1
 901 1206 l 1
 830 808 l 1
 1224 808 l 1
 1194 638 l 1
 800 638 l 1
 730 237 l 1
 550 237 l 1
EndSplineSet
Validated: 1
Layer: 2
SplineSet
550 237 m 1,0,-1
 620 638 l 1,1,-1
 226 638 l 1,2,-1
 256 808 l 1,3,-1
 650 808 l 1,4,-1
 721 1206 l 1,5,-1
 901 1206 l 1,6,-1
 830 808 l 1,7,-1
 1224 808 l 1,8,-1
 1194 638 l 1,9,-1
 800 638 l 1,10,-1
 730 237 l 1,11,-1
 550 237 l 1,0,-1
EndSplineSet
EndChar

StartChar: comma
Encoding: 44 44 16
Width: 569
Flags: W
HStem: -290 495
VStem: 132 291
LayerCount: 3
Fore
SplineSet
182 0 m 1
 218 205 l 1
 423 205 l 1
 387 0 l 1
 358 -157 290 -241 169 -290 c 1
 132 -213 l 1
 220 -176 259 -117 284 0 c 1
 182 0 l 1
EndSplineSet
Validated: 1
Layer: 2
SplineSet
182 0 m 1,0,-1
 218 205 l 1,1,-1
 423 205 l 1,2,-1
 387 0 l 2,3,4
 366 -116 366 -116 313.5 -184.5 c 128,-1,5
 261 -253 261 -253 169 -290 c 1,6,-1
 132 -213 l 1,7,8
 197 -186 197 -186 231 -137.5 c 128,-1,9
 265 -89 265 -89 284 0 c 1,10,-1
 182 0 l 1,0,-1
EndSplineSet
EndChar

StartChar: hyphen
Encoding: 45 45 17
Width: 682
Flags: W
HStem: 446 170<174 697>
VStem: 144 583
LayerCount: 3
Fore
SplineSet
144 446 m 1
 174 616 l 1
 727 616 l 1
 697 446 l 1
 144 446 l 1
EndSplineSet
Validated: 1
Layer: 2
SplineSet
144 446 m 1,0,-1
 174 616 l 1,1,-1
 727 616 l 1,2,-1
 697 446 l 1,3,-1
 144 446 l 1,0,-1
EndSplineSet
EndChar

StartChar: period
Encoding: 46 46 18
Width: 569
Flags: W
HStem: 0 205<222 391>
VStem: 186 241
LayerCount: 3
Fore
SplineSet
186 0 m 1
 222 205 l 1
 427 205 l 1
 391 0 l 1
 186 0 l 1
EndSplineSet
Validated: 1
Layer: 2
SplineSet
186 0 m 1,0,-1
 222 205 l 1,1,-1
 427 205 l 1,2,-1
 391 0 l 1,3,-1
 186 0 l 1,0,-1
EndSplineSet
EndChar

StartChar: slash
Encoding: 47 47 19
Width: 595
Flags: W
HStem: -10 21G<-83 111.446> 1450 20G<753.541 947>
DStem2: -83 -10 100 -10 0.497149 0.867665<90.9782 1705.73>
LayerCount: 3
Fore
SplineSet
-83 -10 m 1
 765 1470 l 1
 947 1470 l 1
 100 -10 l 1
 -83 -10 l 1
EndSplineSet
Validated: 1
Layer: 2
SplineSet
-83 -10 m 1,0,-1
 765 1470 l 1,1,-1
 947 1470 l 1,2,-1
 100 -10 l 1,3,-1
 -83 -10 l 1,0,-1
EndSplineSet
EndChar

StartChar: zero
Encoding: 48 48 20
Width: 1139
Flags: W
HStem: -10 170<463.172 726.03> 1289 170<652.326 918.619>
VStem: 186 184<266.51 805.568> 1011 184<616.366 1183.34>
LayerCount: 3
Fore
SplineSet
820 1459 m 3
 1070 1459 1195 1308 1195 1005 c 3
 1195 473 978 -10 561 -10 c 3
 289 -10 186 172 186 447 c 3
 186 980 397 1459 820 1459 c 3
370 489 m 3
 370 295 431 160 591 160 c 3
 853 160 1011 549 1011 964 c 3
 1011 1177 936 1289 788 1289 c 3
 492 1289 370 743 370 489 c 3
EndSplineSet
Validated: 1
Layer: 2
SplineSet
820 1459 m 3,0,1
 1195 1459 1195 1459 1195 1005 c 0,2,3
 1195 844 1195 844 1169.5 695 c 128,-1,4
 1144 546 1144 546 1091.5 417.5 c 128,-1,5
 1039 289 1039 289 964.5 194 c 128,-1,6
 890 99 890 99 786.5 44.5 c 128,-1,7
 683 -10 683 -10 561 -10 c 0,8,9
 186 -10 186 -10 186 447 c 0,10,11
 186 609 186 609 211 757 c 128,-1,12
 236 905 236 905 288 1033.5 c 128,-1,13
 340 1162 340 1162 414 1256.5 c 128,-1,14
 488 1351 488 1351 592 1405 c 128,-1,15
 696 1459 696 1459 820 1459 c 3,0,1
370 489 m 3,16,17
 370 335 370 335 423 247.5 c 128,-1,18
 476 160 476 160 591 160 c 0,19,20
 686 160 686 160 766.5 227 c 128,-1,21
 847 294 847 294 899.5 406.5 c 128,-1,22
 952 519 952 519 981.5 663.5 c 128,-1,23
 1011 808 1011 808 1011 964 c 0,24,25
 1011 1289 1011 1289 788 1289 c 0,26,27
 704 1289 704 1289 631.5 1230 c 128,-1,28
 559 1171 559 1171 512.5 1080.5 c 128,-1,29
 466 990 466 990 432.5 880 c 128,-1,30
 399 770 399 770 384.5 670 c 128,-1,31
 370 570 370 570 370 489 c 3,16,17
EndSplineSet
EndChar

StartChar: one
Encoding: 49 49 21
Width: 1139
Flags: W
HStem: 0 21G<583 766.533> 1452 20G<802.5 1023>
VStem: 383 640
DStem2: 583 0 763 0 0.173648 0.984808<31.2567 1152.49 1389.92 1494.79>
LayerCount: 3
Fore
SplineSet
763 0 m 1
 583 0 l 1
 783 1135 l 1
 702 1033 533 937 383 907 c 1
 418 1104 l 1
 585 1175 762 1308 843 1472 c 1
 1023 1472 l 1
 763 0 l 1
EndSplineSet
Validated: 1
Layer: 2
SplineSet
763 0 m 1,0,-1
 583 0 l 1,1,-1
 783 1135 l 1,2,3
 722 1059 722 1059 609 994.5 c 128,-1,4
 496 930 496 930 383 907 c 1,5,-1
 418 1104 l 1,6,7
 552 1161 552 1161 668.5 1258 c 128,-1,8
 785 1355 785 1355 843 1472 c 1,9,-1
 1023 1472 l 1,10,-1
 763 0 l 1,0,-1
EndSplineSet
EndChar

StartChar: two
Encoding: 50 50 22
Width: 1139
Flags: W
HStem: 0 170<339 1031> 1312 170<615.776 964.987>
VStem: 279 180<1039 1156.5> 1043 183<965.563 1236.08>
LayerCount: 3
Fore
SplineSet
1061 170 m 1
 1031 0 l 1
 62 0 l 1
 93 174 290 365 533 542 c 0
 782 723 1043 899 1043 1121 c 3
 1043 1244 939 1312 799 1312 c 3
 626 1312 493 1220 459 1039 c 1
 279 1039 l 1
 326 1304 556 1482 833 1482 c 3
 1065 1482 1226 1357 1226 1151 c 3
 1226 827 917 634 676 455 c 0
 557 366 433 295 339 170 c 1
 1061 170 l 1
EndSplineSet
Validated: 1
Layer: 2
SplineSet
1061 170 m 1,0,-1
 1031 0 l 1,1,-1
 62 0 l 1,2,3
 103 229 103 229 533 542 c 0,4,5
 739.252176469 691.926280887 739.252176469 691.926280887 804.786033844 747.041284614 c 0,6,7
 997.674701895 909.26368513 997.674701895 909.26368513 1033.60993942 1048.25417362 c 0,8,9
 1042.87035082 1085.08687035 1042.87035082 1085.08687035 1043 1121 c 0,10,11
 1043 1211 1043 1211 975 1261.5 c 128,-1,12
 907 1312 907 1312 799 1312 c 0,13,14
 666 1312 666 1312 575 1242 c 128,-1,15
 484 1172 484 1172 459 1039 c 1,16,-1
 279 1039 l 1,17,18
 314 1237 314 1237 469 1359.5 c 128,-1,19
 624 1482 624 1482 833 1482 c 0,20,21
 1009 1482 1009 1482 1117.5 1393 c 128,-1,22
 1226 1304 1226 1304 1226 1151 c 0,23,24
 1226 1103 1226 1103 1216.5 1057 c 128,-1,25
 1207 1011 1207 1011 1193 972 c 128,-1,26
 1179 933 1179 933 1152 891 c 128,-1,27
 1125 849 1125 849 1102.5 818 c 128,-1,28
 1080 787 1080 787 1040.5 748 c 128,-1,29
 1001 709 1001 709 974.5 684.5 c 128,-1,30
 948 660 948 660 900 622.5 c 128,-1,31
 852 585 852 585 826.5 565.5 c 128,-1,32
 801 546 801 546 749 508.5 c 128,-1,33
 697 471 697 471 676 455 c 0,34,35
 650 436 650 436 589 392.5 c 128,-1,36
 528 349 528 349 495.5 324 c 128,-1,37
 463 299 463 299 417.5 256.5 c 128,-1,38
 372 214 372 214 339 170 c 1,39,-1
 1061 170 l 1,0,-1
EndSplineSet
EndChar

StartChar: three
Encoding: 51 51 23
Width: 1139
Flags: W
HStem: -11 170<424.305 757.519> 707 149<592.656 824.055> 1070 21G<293 498.5> 1312 170<615.932 934.094>
VStem: 155 182<245.218 427> 293 180<1070 1164.12> 949 184<335.037 626.983> 993 181<1003.76 1252.1>
LayerCount: 3
Fore
SplineSet
581 159 m 3xfa
 763 159 949 291 949 499 c 3xfa
 949 633 850 707 701 707 c 3
 658 707 611 701 562 688 c 1
 592 858 l 1
 606 857 620 856 634 856 c 3
 808 856 993 963 993 1144 c 3
 993 1251 906 1312 780 1312 c 3
 627 1312 524 1228 473 1070 c 1
 293 1070 l 1
 340 1301 561 1482 806 1482 c 3
 1014 1482 1174 1357 1174 1166 c 3xf5
 1174 986 1047 850 912 794 c 1
 1055 756 1133 672 1133 531 c 3
 1133 207 845 -11 550 -11 c 3
 316 -11 155 135 155 351 c 3
 155 375 157 401 161 427 c 1
 341 427 l 1
 338 409 337 392 337 376 c 3
 337 242 437 159 581 159 c 3xfa
EndSplineSet
Validated: 1
Layer: 2
SplineSet
581 159 m 3,0,1
 725 159 725 159 837 254.5 c 128,-1,2
 949 350 949 350 949 499 c 0,3,4
 949 598 949 598 882 652.5 c 128,-1,5
 815 707 815 707 701 707 c 0,6,7
 634 707 634 707 562 688 c 1,8,-1
 592 858 l 1,9,10
 620 856 620 856 634 856 c 0,11,12
 723 856 723 856 804 889.5 c 128,-1,13
 885 923 885 923 939 990 c 128,-1,14
 993 1057 993 1057 993 1144 c 0,15,16
 993 1223 993 1223 934.5 1267.5 c 128,-1,17
 876 1312 876 1312 780 1312 c 0,18,19
 551 1312 551 1312 473 1070 c 1,20,-1
 293 1070 l 1,21,22
 328 1244 328 1244 475.5 1363 c 128,-1,23
 623 1482 623 1482 806 1482 c 0,24,25
 965 1482 965 1482 1069.5 1394.5 c 128,-1,26
 1174 1307 1174 1307 1174 1166 c 0,27,28
 1174 1038 1174 1038 1098 938.5 c 128,-1,29
 1022 839 1022 839 912 794 c 1,30,31
 1133 735 1133 735 1133 531 c 0,32,33
 1133 436 1133 436 1101 350.5 c 128,-1,34
 1069 265 1069 265 1012.5 200 c 128,-1,35
 956 135 956 135 882.5 87 c 128,-1,36
 809 39 809 39 723.5 14 c 128,-1,37
 638 -11 638 -11 550 -11 c 0,38,39
 374 -11 374 -11 264.5 89 c 128,-1,40
 155 189 155 189 155 351 c 0,41,42
 155 388 155 388 161 427 c 1,43,-1
 341 427 l 1,44,45
 337 403 337 403 337 376 c 0,46,47
 337 277 337 277 404.5 218 c 128,-1,48
 472 159 472 159 581 159 c 3,0,1
EndSplineSet
EndChar

StartChar: four
Encoding: 52 52 24
Width: 1139
Flags: W
HStem: 0 21G<662 845.523> 352 170<343 724 934 1102> 1452 20G<905.074 1102>
DStem2: 118 522 343 522 0.646014 0.763325<145.353 932.875> 662 0 842 0 0.173648 0.984808<31.2567 357.418 561.302 1134.24>
LayerCount: 3
Fore
SplineSet
662 0 m 1
 724 352 l 1
 88 352 l 1
 118 522 l 1
 922 1472 l 1
 1102 1472 l 1
 934 522 l 1
 1132 522 l 1
 1102 352 l 1
 904 352 l 1
 842 0 l 1
 662 0 l 1
754 522 m 1
 859 1117 l 1
 343 522 l 1
 754 522 l 1
EndSplineSet
Validated: 1
Layer: 2
SplineSet
662 0 m 1,0,-1
 724 352 l 1,1,-1
 88 352 l 1,2,-1
 118 522 l 1,3,-1
 922 1472 l 1,4,-1
 1102 1472 l 1,5,-1
 934 522 l 1,6,-1
 1132 522 l 1,7,-1
 1102 352 l 1,8,-1
 904 352 l 1,9,-1
 842 0 l 1,10,-1
 662 0 l 1,0,-1
754 522 m 1,11,-1
 859 1117 l 1,12,-1
 343 522 l 1,13,-1
 754 522 l 1,11,-1
EndSplineSet
EndChar

StartChar: five
Encoding: 53 53 25
Width: 1139
Flags: W
HStem: -11 170<428.897 756.765> 816 170<543.019 870.832> 1280 170<645 1214>
VStem: 156 191<245.264 414> 971 185<382.168 716.867>
DStem2: 242 707 506 919 0.339302 0.940677<42.076 117.041 288.999 675.747>
LayerCount: 3
Fore
SplineSet
584 159 m 3
 789 159 971 325 971 569 c 3
 971 725 870 816 697 816 c 3
 598 816 508 772 427 685 c 1
 242 707 l 1
 510 1450 l 1
 1244 1450 l 1
 1214 1280 l 1
 645 1280 l 1
 506 919 l 1
 567 963 658 986 765 986 c 3
 1007 986 1156 840 1156 613 c 3
 1156 260 877 -11 554 -11 c 3
 296 -11 156 136 156 365 c 3
 156 381 157 397 158 414 c 1
 347 414 l 1
 347 248 416 159 584 159 c 3
EndSplineSet
Validated: 1
Layer: 2
SplineSet
584 159 m 3,0,1
 742 159 742 159 856.5 275 c 128,-1,2
 971 391 971 391 971 569 c 0,3,4
 971 686 971 686 899 751 c 128,-1,5
 827 816 827 816 697 816 c 0,6,7
 549 816 549 816 427 685 c 1,8,-1
 242 707 l 1,9,-1
 510 1450 l 1,10,-1
 1244 1450 l 1,11,-1
 1214 1280 l 1,12,-1
 645 1280 l 1,13,-1
 506 919 l 1,14,15
 599 986 599 986 765 986 c 0,16,17
 946 986 946 986 1051 885 c 128,-1,18
 1156 784 1156 784 1156 613 c 0,19,20
 1156 441 1156 441 1073 296.5 c 128,-1,21
 990 152 990 152 852 70.5 c 128,-1,22
 714 -11 714 -11 554 -11 c 0,23,24
 363 -11 363 -11 259.5 90 c 128,-1,25
 156 191 156 191 156 365 c 0,26,27
 156 380 156 380 158 414 c 1,28,-1
 347 414 l 1,29,30
 347 287 347 287 404 223 c 128,-1,31
 461 159 461 159 584 159 c 3,0,1
EndSplineSet
EndChar

StartChar: six
Encoding: 54 54 26
Width: 1139
Flags: W
HStem: -11 170<478.015 772.638> 807 170<565.01 867.457> 1312 170<660.512 963.944>
VStem: 177 208<250.092 612.194> 957 184<362.94 716.816> 1033 180<1103 1169.01>
LayerCount: 3
Fore
SplineSet
1213 1103 m 1xf4
 1033 1103 l 1xf4
 1024 1235 967 1312 823 1312 c 3
 614 1312 478 1151 419 842 c 1
 510 934 615 977 766 977 c 3
 993 977 1141 814 1141 588 c 3xf8
 1141 254 881 -11 584 -11 c 3
 288 -11 177 174 177 451 c 3
 177 1046 453 1482 864 1482 c 3
 1064 1482 1219 1358 1219 1170 c 3
 1219 1149 1217 1126 1213 1103 c 1xf4
613 159 m 3
 813 159 957 335 957 560 c 3xf8
 957 706 877 807 720 807 c 3
 530 807 385 635 385 411 c 3
 385 267 462 159 613 159 c 3
EndSplineSet
Validated: 1
Layer: 2
SplineSet
1213 1103 m 1,0,-1
 1033 1103 l 1,1,2
 1026 1206 1026 1206 976.5 1259 c 128,-1,3
 927 1312 927 1312 823 1312 c 0,4,5
 509 1312 509 1312 419 842 c 1,6,7
 488 912 488 912 571 944.5 c 128,-1,8
 654 977 654 977 766 977 c 0,9,10
 935 977 935 977 1038 868 c 128,-1,11
 1141 759 1141 759 1141 588 c 0,12,13
 1141 466 1141 466 1095.5 354 c 128,-1,14
 1050 242 1050 242 974 162.5 c 128,-1,15
 898 83 898 83 796 36 c 128,-1,16
 694 -11 694 -11 584 -11 c 0,17,18
 177 -11 177 -11 177 451 c 0,19,20
 177 747 177 747 262.5 981 c 128,-1,21
 348 1215 348 1215 505 1348.5 c 128,-1,22
 662 1482 662 1482 864 1482 c 0,23,24
 1016 1482 1016 1482 1117.5 1395.5 c 128,-1,25
 1219 1309 1219 1309 1219 1170 c 0,26,27
 1219 1138 1219 1138 1213 1103 c 1,0,-1
613 159 m 3,28,29
 762 159 762 159 859.5 274.5 c 128,-1,30
 957 390 957 390 957 560 c 0,31,32
 957 673 957 673 896 740 c 128,-1,33
 835 807 835 807 720 807 c 0,34,35
 578 807 578 807 481.5 693 c 128,-1,36
 385 579 385 579 385 411 c 0,37,38
 385 299 385 299 444 229 c 128,-1,39
 503 159 503 159 613 159 c 3,28,29
EndSplineSet
EndChar

StartChar: seven
Encoding: 55 55 27
Width: 1139
Flags: W
HStem: 0 21G<331 554.5> 1280 170<353 1059>
VStem: 331 180<0 160.697>
LayerCount: 3
Fore
SplineSet
1272 1280 m 1
 966 977 598 491 511 0 c 1
 331 0 l 1
 412 462 783 1002 1059 1280 c 1
 323 1280 l 1
 353 1450 l 1
 1302 1450 l 1
 1272 1280 l 1
EndSplineSet
Validated: 1
Layer: 2
SplineSet
1272 1280 m 1,0,1
 1149 1158 1149 1158 1034.5 1018.5 c 128,-1,2
 920 879 920 879 811 713.5 c 128,-1,3
 702 548 702 548 622 362 c 128,-1,4
 542 176 542 176 511 0 c 1,5,-1
 331 0 l 1,6,7
 360 166 360 166 439 354 c 128,-1,8
 518 542 518 542 622.5 711 c 128,-1,9
 727 880 727 880 839 1025.5 c 128,-1,10
 951 1171 951 1171 1059 1280 c 1,11,-1
 323 1280 l 1,12,-1
 353 1450 l 1,13,-1
 1302 1450 l 1,14,-1
 1272 1280 l 1,0,1
EndSplineSet
EndChar

StartChar: eight
Encoding: 56 56 28
Width: 1139
Flags: W
HStem: -11 170<433.456 779.458> 699 181<577.333 863.157> 1312 170<624.298 947.885>
VStem: 152 183<252.875 546.919> 331 183<943.553 1206.7> 950 184<319.18 617.96> 1007 182<999.163 1255.77>
LayerCount: 3
Fore
SplineSet
504 805 m 1xf4
 389 850 331 928 331 1038 c 3
 331 1320 579 1482 824 1482 c 3
 1040 1482 1189 1362 1189 1170 c 3xea
 1189 980 1076 862 915 805 c 1
 1054 752 1134 665 1134 519 c 3
 1134 181 866 -11 564 -11 c 3
 320 -11 152 127 152 352 c 3
 152 609 311 759 504 805 c 1xf4
796 1312 m 3
 651 1312 514 1235 514 1065 c 3
 514 952 595 880 722 880 c 3
 868 880 1007 981 1007 1143 c 3
 1007 1252 923 1312 796 1312 c 3
596 159 m 3
 789 159 950 279 950 490 c 3
 950 631 843 699 685 699 c 3
 502 699 335 593 335 386 c 3xf4
 335 246 444 159 596 159 c 3
EndSplineSet
Validated: 1
Layer: 2
SplineSet
504 805 m 1,0,1
 331 873 331 873 331 1038 c 0,2,3
 331 1140 331 1140 373.5 1225.5 c 128,-1,4
 416 1311 416 1311 486 1366 c 128,-1,5
 556 1421 556 1421 643.5 1451.5 c 128,-1,6
 731 1482 731 1482 824 1482 c 0,7,8
 988 1482 988 1482 1088.5 1397.5 c 128,-1,9
 1189 1313 1189 1313 1189 1170 c 0,10,11
 1189 1033 1189 1033 1115.5 941.5 c 128,-1,12
 1042 850 1042 850 915 805 c 1,13,14
 1023 764 1023 764 1078.5 694.5 c 128,-1,15
 1134 625 1134 625 1134 519 c 0,16,17
 1134 396 1134 396 1087.5 294.5 c 128,-1,18
 1041 193 1041 193 962 127 c 128,-1,19
 883 61 883 61 780.5 25 c 128,-1,20
 678 -11 678 -11 564 -11 c 0,21,22
 379 -11 379 -11 265.5 87 c 128,-1,23
 152 185 152 185 152 352 c 0,24,25
 152 535 152 535 250.5 651.5 c 128,-1,26
 349 768 349 768 504 805 c 1,0,1
796 1312 m 3,27,28
 678 1312 678 1312 596 1248.5 c 128,-1,29
 514 1185 514 1185 514 1065 c 0,30,31
 514 980 514 980 570.5 930 c 128,-1,32
 627 880 627 880 722 880 c 0,33,34
 837 880 837 880 922 953 c 128,-1,35
 1007 1026 1007 1026 1007 1143 c 0,36,37
 1007 1223 1007 1223 950 1267.5 c 128,-1,38
 893 1312 893 1312 796 1312 c 3,27,28
596 159 m 3,39,40
 747 159 747 159 848.5 248 c 128,-1,41
 950 337 950 337 950 490 c 0,42,43
 950 593 950 593 878.5 646 c 128,-1,44
 807 699 807 699 685 699 c 0,45,46
 539 699 539 699 437 616.5 c 128,-1,47
 335 534 335 534 335 386 c 0,48,49
 335 282 335 282 407.5 220.5 c 128,-1,50
 480 159 480 159 596 159 c 3,39,40
EndSplineSet
EndChar

StartChar: nine
Encoding: 57 57 29
Width: 1139
Flags: W
HStem: -11 170<452.637 759.624> 495 170<551.959 857.041> 1312 170<646.578 946.525>
VStem: 203 180<305.984 369> 277 184<755.787 1111.62> 1033 207<865.292 1221.01>
LayerCount: 3
Fore
SplineSet
203 369 m 1xf4
 383 369 l 1xf4
 392 237 450 159 594 159 c 3
 808 159 939 321 998 630 c 1
 907 538 802 495 651 495 c 3
 432 495 277 658 277 886 c 3xec
 277 1222 539 1482 833 1482 c 3
 1122 1482 1240 1297 1240 1013 c 3
 1240 656 1087 -11 553 -11 c 3
 352 -11 197 116 197 305 c 3
 197 326 199 347 203 369 c 1xf4
1033 1065 m 3
 1033 1209 956 1312 806 1312 c 3
 609 1312 461 1143 461 913 c 3xec
 461 766 543 665 699 665 c 3
 896 665 1033 840 1033 1065 c 3
EndSplineSet
Validated: 1
Layer: 2
SplineSet
203 369 m 1,0,-1
 383 369 l 1,1,2
 390 266 390 266 440 212.5 c 128,-1,3
 490 159 490 159 594 159 c 0,4,5
 908 159 908 159 998 630 c 1,6,7
 929 560 929 560 846 527.5 c 128,-1,8
 763 495 763 495 651 495 c 0,9,10
 487 495 487 495 382 605 c 128,-1,11
 277 715 277 715 277 886 c 0,12,13
 277 1009 277 1009 323 1120.5 c 128,-1,14
 369 1232 369 1232 445 1310.5 c 128,-1,15
 521 1389 521 1389 622.5 1435.5 c 128,-1,16
 724 1482 724 1482 833 1482 c 0,17,18
 1042 1482 1042 1482 1141 1359 c 128,-1,19
 1240 1236 1240 1236 1240 1013 c 0,20,21
 1240 932 1240 932 1230.5 843.5 c 128,-1,22
 1221 755 1221 755 1197 654 c 128,-1,23
 1173 553 1173 553 1138 460 c 128,-1,24
 1103 367 1103 367 1047.5 280 c 128,-1,25
 992 193 992 193 923 129 c 128,-1,26
 854 65 854 65 759 27 c 128,-1,27
 664 -11 664 -11 553 -11 c 0,28,29
 400 -11 400 -11 298.5 77 c 128,-1,30
 197 165 197 165 197 305 c 0,31,32
 197 336 197 336 203 369 c 1,0,-1
1033 1065 m 3,33,34
 1033 1177 1033 1177 974 1244.5 c 128,-1,35
 915 1312 915 1312 806 1312 c 0,36,37
 658 1312 658 1312 559.5 1198.5 c 128,-1,38
 461 1085 461 1085 461 913 c 0,39,40
 461 800 461 800 523 732.5 c 128,-1,41
 585 665 585 665 699 665 c 0,42,43
 845 665 845 665 939 779.5 c 128,-1,44
 1033 894 1033 894 1033 1065 c 3,33,34
EndSplineSet
EndChar

StartChar: colon
Encoding: 58 58 30
Width: 569
Flags: W
HStem: 0 205<221 390> 857 205<372 541>
VStem: 185 392
DStem2: 185 0 390 0 0.173648 0.984808<35.5979 208.137 905.799 1078.34>
LayerCount: 3
Fore
SplineSet
336 857 m 1
 372 1062 l 1
 577 1062 l 1
 541 857 l 1
 336 857 l 1
185 0 m 1
 221 205 l 1
 426 205 l 1
 390 0 l 1
 185 0 l 1
EndSplineSet
Validated: 1
Layer: 2
SplineSet
336 857 m 1,0,-1
 372 1062 l 1,1,-1
 577 1062 l 1,2,-1
 541 857 l 1,3,-1
 336 857 l 1,0,-1
185 0 m 1,4,-1
 221 205 l 1,5,-1
 426 205 l 1,6,-1
 390 0 l 1,7,-1
 185 0 l 1,4,-1
EndSplineSet
EndChar

StartChar: semicolon
Encoding: 59 59 31
Width: 569
Flags: W
HStem: 857 205<369 538>
VStem: 132 442
DStem2: 130.865 -290 335.865 -290 0.173648 0.984808<315.948 502.611 1200.27 1372.81>
LayerCount: 3
Fore
SplineSet
333 857 m 1
 369 1062 l 1
 574 1062 l 1
 538 857 l 1
 333 857 l 1
182 0 m 1
 218 205 l 1
 423 205 l 1
 387 0 l 1
 362 -150 285 -245 169 -290 c 1
 132 -213 l 1
 218 -178 262 -110 284 0 c 1
 182 0 l 1
EndSplineSet
Validated: 1
Layer: 2
SplineSet
333 857 m 1,0,-1
 369 1062 l 1,1,-1
 574 1062 l 1,2,-1
 538 857 l 1,3,-1
 333 857 l 1,0,-1
182 0 m 1,4,-1
 218 205 l 1,5,-1
 423 205 l 1,6,-1
 387 0 l 2,7,8
 350 -220 350 -220 169 -290 c 1,9,-1
 132 -213 l 1,10,11
 195 -187 195 -187 231 -135.5 c 128,-1,12
 267 -84 267 -84 284 0 c 1,13,-1
 182 0 l 1,4,-1
EndSplineSet
EndChar

StartChar: less
Encoding: 60 60 32
Width: 1196
Flags: W
DStem2: 441 724 225 641 0.907752 -0.419507<0 781.05> 255 809 441 724 0.930676 0.365846<142.009 1025.42>
LayerCount: 3
Fore
SplineSet
225 641 m 1
 255 809 l 1
 1298 1219 l 1
 1266 1040 l 1
 441 724 l 1
 1154 405 l 1
 1123 226 l 1
 225 641 l 1
EndSplineSet
Validated: 1
Layer: 2
SplineSet
225 641 m 1,0,-1
 255 809 l 1,1,-1
 1298 1219 l 1,2,-1
 1266 1040 l 1,3,-1
 441 724 l 1,4,-1
 1154 405 l 1,5,-1
 1123 226 l 1,6,-1
 225 641 l 1,0,-1
EndSplineSet
EndChar

StartChar: equal
Encoding: 61 61 33
Width: 1196
Flags: W
HStem: 416 170<217 1155> 861 170<296 1234>
LayerCount: 3
Fore
SplineSet
1234 861 m 1
 266 861 l 1
 296 1031 l 1
 1264 1031 l 1
 1234 861 l 1
1155 416 m 1
 187 416 l 1
 217 586 l 1
 1185 586 l 1
 1155 416 l 1
EndSplineSet
Validated: 1
Layer: 2
SplineSet
1234 861 m 1,0,-1
 266 861 l 1,1,-1
 296 1031 l 1,2,-1
 1264 1031 l 1,3,-1
 1234 861 l 1,0,-1
1155 416 m 1,4,-1
 187 416 l 1,5,-1
 217 586 l 1,6,-1
 1185 586 l 1,7,-1
 1155 416 l 1,4,-1
EndSplineSet
EndChar

StartChar: greater
Encoding: 62 62 34
Width: 1196
Flags: W
DStem2: 183 405 152 226 0.929273 0.369395<0 885.416> 327 1219 295 1040 0.909846 -0.414946<45.1603 825.913>
LayerCount: 3
Fore
SplineSet
1196 641 m 1
 152 226 l 1
 183 405 l 1
 1009 724 l 1
 295 1040 l 1
 327 1219 l 1
 1226 809 l 1
 1196 641 l 1
EndSplineSet
Validated: 1
Layer: 2
SplineSet
1196 641 m 1,0,-1
 152 226 l 1,1,-1
 183 405 l 1,2,-1
 1009 724 l 1,3,-1
 295 1040 l 1,4,-1
 327 1219 l 1,5,-1
 1226 809 l 1,6,-1
 1196 641 l 1,0,-1
EndSplineSet
EndChar

StartChar: question
Encoding: 63 63 35
Width: 1139
Flags: W
HStem: 0 205<497 666> 1334 170<631.295 966.242>
VStem: 274 185<1046 1144.93> 1055 186<990.363 1247.55>
DStem2: 461 0 666 0 0.173648 0.984808<35.5979 208.137 399.796 603>
LayerCount: 3
Fore
SplineSet
274 1046 m 1
 333 1302 545 1504 830 1504 c 3
 1073 1504 1241 1362 1241 1168 c 3
 1241 767 789 773 716 361 c 1
 536 361 l 1
 551 436 l 2
 625 803 1055 843 1055 1124 c 3
 1055 1228 978 1334 803 1334 c 3
 626 1334 516 1222 459 1046 c 1
 274 1046 l 1
461 0 m 1
 497 205 l 1
 702 205 l 1
 666 0 l 1
 461 0 l 1
EndSplineSet
Validated: 1
Layer: 2
SplineSet
274 1046 m 1,0,1
 320 1244 320 1244 471 1374 c 128,-1,2
 622 1504 622 1504 830 1504 c 0,3,4
 1011 1504 1011 1504 1126 1409 c 128,-1,5
 1241 1314 1241 1314 1241 1168 c 0,6,7
 1241 1087 1241 1087 1216 1019.5 c 128,-1,8
 1191 952 1191 952 1149.5 904 c 128,-1,9
 1108 856 1108 856 1057.5 812.5 c 128,-1,10
 1007 769 1007 769 953 724.5 c 128,-1,11
 899 680 899 680 852 631.5 c 128,-1,12
 805 583 805 583 768 513.5 c 128,-1,13
 731 444 731 444 716 361 c 1,14,-1
 536 361 l 1,15,-1
 551 436 l 2,16,17
 566 510 566 510 602 574.5 c 128,-1,18
 638 639 638 639 683.5 684.5 c 128,-1,19
 729 730 729 730 780.5 772 c 128,-1,20
 832 814 832 814 880 851.5 c 128,-1,21
 928 889 928 889 967.5 928 c 128,-1,22
 1007 967 1007 967 1031 1017 c 128,-1,23
 1055 1067 1055 1067 1055 1124 c 0,24,25
 1055 1210 1055 1210 990.5 1272 c 128,-1,26
 926 1334 926 1334 803 1334 c 0,27,28
 552 1334 552 1334 459 1046 c 1,29,-1
 274 1046 l 1,0,1
461 0 m 1,30,-1
 497 205 l 1,31,-1
 702 205 l 1,32,-1
 666 0 l 1,33,-1
 461 0 l 1,30,-1
EndSplineSet
EndChar

StartChar: at
Encoding: 64 64 36
Width: 2079
Flags: W
HStem: -431 148<749.679 1396.29> -11 148<810.665 1053.4 1301.74 1557.05> 947 148<1047.02 1306.36> 1042 20G<1524.97 1713> 1345 148<1046.29 1592.79>
VStem: 176 184<69.2581 594.998> 572 182<198.132 578.877> 1365 26<216 737> 1913 182<611.57 1047.22>
LayerCount: 3
Fore
SplineSet
1352 -11 m 3xdf80
 1206 -11 1182 36 1182 121 c 1
 1096 38 985 -11 852 -11 c 3
 674 -11 572 138 572 342 c 3
 572 750 936 1095 1204 1095 c 3xef80
 1346 1095 1436 1035 1478 938 c 1
 1534 1062 l 1
 1713 1062 l 1
 1447 379 l 2
 1422 313 1391 261 1391 216 c 3
 1391 168 1426 137 1446 137 c 3
 1657 137 1913 548 1913 838 c 3
 1913 1153 1675 1345 1330 1345 c 3
 799 1345 360 902 360 304 c 3
 360 -77 612 -283 1070 -283 c 3
 1505 -283 1735 -87 1827 19 c 1
 2008 19 l 1
 1828 -253 1468 -431 1047 -431 c 3
 520 -431 176 -191 176 275 c 3
 176 988 736 1493 1365 1493 c 3
 1797 1493 2095 1244 2095 858 c 3
 2095 425 1719 -11 1352 -11 c 3xdf80
754 361 m 3
 754 228 812 137 915 137 c 3
 1144 137 1365 464 1365 737 c 3
 1365 899 1267 947 1191 947 c 3
 942 947 754 598 754 361 c 3
EndSplineSet
Validated: 1
Layer: 2
SplineSet
1352 -11 m 3,0,1
 1249 -11 1249 -11 1215.5 20 c 128,-1,2
 1182 51 1182 51 1182 121 c 1,3,4
 1045 -11 1045 -11 852 -11 c 0,5,6
 721 -11 721 -11 646.5 87 c 128,-1,7
 572 185 572 185 572 342 c 0,8,9
 572 441 572 441 600.5 539 c 128,-1,10
 629 637 629 637 676.5 718.5 c 128,-1,11
 724 800 724 800 787.5 871 c 128,-1,12
 851 942 851 942 921 990.5 c 128,-1,13
 991 1039 991 1039 1064.5 1067 c 128,-1,14
 1138 1095 1138 1095 1204 1095 c 0,15,16
 1410 1095 1410 1095 1478 938 c 1,17,-1
 1534 1062 l 1,18,-1
 1713 1062 l 1,19,-1
 1447 379 l 2,20,21
 1440 360 1440 360 1423 321.5 c 128,-1,22
 1406 283 1406 283 1398.5 259.5 c 128,-1,23
 1391 236 1391 236 1391 216 c 0,24,25
 1391 183 1391 183 1410 160 c 128,-1,26
 1429 137 1429 137 1446 137 c 0,27,28
 1548 137 1548 137 1658.5 251 c 128,-1,29
 1769 365 1769 365 1841 530.5 c 128,-1,30
 1913 696 1913 696 1913 838 c 0,31,32
 1913 1072 1913 1072 1752.5 1208.5 c 128,-1,33
 1592 1345 1592 1345 1330 1345 c 0,34,35
 1133 1345 1133 1345 954.5 1265.5 c 128,-1,36
 776 1186 776 1186 645.5 1049.5 c 128,-1,37
 515 913 515 913 437.5 718.5 c 128,-1,38
 360 524 360 524 360 304 c 0,39,40
 360 19 360 19 543 -132 c 128,-1,41
 726 -283 726 -283 1070 -283 c 0,42,43
 1194 -283 1194 -283 1306.5 -261 c 128,-1,44
 1419 -239 1419 -239 1498 -207.5 c 128,-1,45
 1577 -176 1577 -176 1646 -132.5 c 128,-1,46
 1715 -89 1715 -89 1754.5 -53.5 c 128,-1,47
 1794 -18 1794 -18 1827 19 c 1,48,-1
 2008 19 l 1,49,50
 1871 -188 1871 -188 1615 -309.5 c 128,-1,51
 1359 -431 1359 -431 1047 -431 c 0,52,53
 781 -431 781 -431 587 -352.5 c 128,-1,54
 393 -274 393 -274 284.5 -114 c 128,-1,55
 176 46 176 46 176 275 c 0,56,57
 176 484 176 484 239 674.5 c 128,-1,58
 302 865 302 865 414 1012.5 c 128,-1,59
 526 1160 526 1160 674.5 1269 c 128,-1,60
 823 1378 823 1378 1000.5 1435.5 c 128,-1,61
 1178 1493 1178 1493 1365 1493 c 0,62,63
 1580 1493 1580 1493 1745.5 1415.5 c 128,-1,64
 1911 1338 1911 1338 2003 1193 c 128,-1,65
 2095 1048 2095 1048 2095 858 c 0,66,67
 2095 700 2095 700 2030 540.5 c 128,-1,68
 1965 381 1965 381 1861.5 260.5 c 128,-1,69
 1758 140 1758 140 1622 64.5 c 128,-1,70
 1486 -11 1486 -11 1352 -11 c 3,0,1
754 361 m 3,71,72
 754 259 754 259 796.5 198 c 128,-1,73
 839 137 839 137 915 137 c 0,74,75
 1025 137 1025 137 1131 230 c 128,-1,76
 1237 323 1237 323 1301 462.5 c 128,-1,77
 1365 602 1365 602 1365 737 c 0,78,79
 1365 847 1365 847 1312.5 897 c 128,-1,80
 1260 947 1260 947 1191 947 c 0,81,82
 1102 947 1102 947 1018.5 889 c 128,-1,83
 935 831 935 831 878.5 743 c 128,-1,84
 822 655 822 655 788 552.5 c 128,-1,85
 754 450 754 450 754 361 c 3,71,72
EndSplineSet
EndChar

StartChar: A
Encoding: 65 65 37
Width: 1366
Flags: W
HStem: 0 21G<1 217.488 1154.56 1364> 477 170<578 1015> 1430 20G<824.483 1045.46>
DStem2: 1 0 206 0 0.499032 0.866583<102.302 652.397 848.621 1478.47> 1041 1450 892 1193 0.217429 -0.976076<218.455 778.136 952.331 1440.97>
LayerCount: 3
Fore
SplineSet
1364 0 m 1
 1159 0 l 1
 1053 477 l 1
 480 477 l 1
 206 0 l 1
 1 0 l 1
 836 1450 l 1
 1041 1450 l 1
 1364 0 l 1
892 1193 m 1
 578 647 l 1
 1015 647 l 1
 892 1193 l 1
EndSplineSet
Validated: 1
Layer: 2
SplineSet
1364 0 m 1,0,-1
 1159 0 l 1,1,-1
 1053 477 l 1,2,-1
 480 477 l 1,3,-1
 206 0 l 1,4,-1
 1 0 l 1,5,-1
 836 1450 l 1,6,-1
 1041 1450 l 1,7,-1
 1364 0 l 1,0,-1
892 1193 m 1,8,-1
 578 647 l 1,9,-1
 1015 647 l 1,10,-1
 892 1193 l 1,8,-1
EndSplineSet
EndChar

StartChar: B
Encoding: 66 66 38
Width: 1366
Flags: W
HStem: 0 170<374 994.178> 671 170<492 1056.8> 1280 170<570 1129.05>
VStem: 1156 182<306.333 588.211> 1197 186<963.688 1219.89>
DStem2: 164 0 344.024 0 0.173648 0.984808<203.883 712.553 885.18 1331.06>
LayerCount: 3
Fore
SplineSet
1117 772 m 1xe8
 1281 721 1338 609 1338 490 c 3xf0
 1338 153 1065 0 709 0 c 2
 164 0 l 1
 420 1450 l 1
 965 1450 l 2
 1222 1450 1383 1344 1383 1152 c 3
 1383 1012 1327 868 1117 772 c 1xe8
492 841 m 1
 831 841 l 2
 1049 841 1197 908 1197 1108 c 3xe8
 1197 1254 1058 1280 935 1280 c 2
 570 1280 l 1
 492 841 l 1
374 170 m 1
 739 170 l 2
 1057 170 1156 298 1156 470 c 3xf0
 1156 614 1032 671 801 671 c 2
 462 671 l 1
 374 170 l 1
EndSplineSet
Validated: 1
Layer: 2
SplineSet
1117 772 m 1,0,1
 1233 736 1233 736 1285.5 661.5 c 128,-1,2
 1338 587 1338 587 1338 490 c 0,3,4
 1338 367 1338 367 1290 272 c 128,-1,5
 1242 177 1242 177 1156.5 118 c 128,-1,6
 1071 59 1071 59 958 29.5 c 128,-1,7
 845 0 845 0 709 0 c 2,8,-1
 164 0 l 1,9,-1
 420 1450 l 1,10,-1
 965 1450 l 2,11,12
 1160 1450 1160 1450 1271.5 1372 c 128,-1,13
 1383 1294 1383 1294 1383 1152 c 0,14,15
 1383 894 1383 894 1117 772 c 1,0,1
492 841 m 1,16,-1
 831 841 l 2,17,18
 916 841 916 841 981 855 c 128,-1,19
 1046 869 1046 869 1095.5 899.5 c 128,-1,20
 1145 930 1145 930 1171 982.5 c 128,-1,21
 1197 1035 1197 1035 1197 1108 c 0,22,23
 1197 1280 1197 1280 935 1280 c 2,24,-1
 570 1280 l 1,25,-1
 492 841 l 1,16,-1
374 170 m 1,26,-1
 739 170 l 2,27,28
 1156 170 1156 170 1156 470 c 0,29,30
 1156 576 1156 576 1067.5 623.5 c 128,-1,31
 979 671 979 671 801 671 c 2,32,-1
 462 671 l 1,33,-1
 374 170 l 1,26,-1
EndSplineSet
EndChar

StartChar: C
Encoding: 67 67 39
Width: 1479
Flags: W
HStem: -11 170<617.773 1032.85> 1312 170<807.795 1218.57>
VStem: 216 187<392.963 855.293> 1294 188<398.191 479> 1371 188<1055 1173.99>
LayerCount: 3
Fore
SplineSet
816 159 m 3xe8
 1052 159 1245 299 1294 479 c 1
 1482 479 l 1xf0
 1326 116 1052 -11 789 -11 c 3
 438 -11 216 188 216 556 c 3
 216 1112 602 1482 1055 1482 c 3
 1402 1482 1535 1271 1559 1055 c 1
 1371 1055 l 1
 1345 1257 1166 1312 1021 1312 c 3
 674 1312 403 1014 403 620 c 3
 403 407 494 159 816 159 c 3xe8
EndSplineSet
Validated: 1
Layer: 2
SplineSet
816 159 m 3,0,1
 990 159 990 159 1123.5 250.5 c 128,-1,2
 1257 342 1257 342 1294 479 c 1,3,-1
 1482 479 l 1,4,5
 1425 347 1425 347 1345.5 250 c 128,-1,6
 1266 153 1266 153 1174.5 97 c 128,-1,7
 1083 41 1083 41 987.5 15 c 128,-1,8
 892 -11 892 -11 789 -11 c 0,9,10
 522 -11 522 -11 369 136.5 c 128,-1,11
 216 284 216 284 216 556 c 0,12,13
 216 759 216 759 283.5 934 c 128,-1,14
 351 1109 351 1109 465.5 1228 c 128,-1,15
 580 1347 580 1347 733 1414.5 c 128,-1,16
 886 1482 886 1482 1055 1482 c 0,17,18
 1156 1482 1156 1482 1238 1458 c 128,-1,19
 1320 1434 1320 1434 1375.5 1394 c 128,-1,20
 1431 1354 1431 1354 1471 1298 c 128,-1,21
 1511 1242 1511 1242 1531 1182.5 c 128,-1,22
 1551 1123 1551 1123 1559 1055 c 1,23,-1
 1371 1055 l 1,24,25
 1362 1127 1362 1127 1326.5 1179.5 c 128,-1,26
 1291 1232 1291 1232 1239.5 1259.5 c 128,-1,27
 1188 1287 1188 1287 1134 1299.5 c 128,-1,28
 1080 1312 1080 1312 1021 1312 c 0,29,30
 893 1312 893 1312 778.5 1259 c 128,-1,31
 664 1206 664 1206 581.5 1114.5 c 128,-1,32
 499 1023 499 1023 451 894 c 128,-1,33
 403 765 403 765 403 620 c 0,34,35
 403 552 403 552 414.5 490 c 128,-1,36
 426 428 426 428 456 366 c 128,-1,37
 486 304 486 304 531.5 259.5 c 128,-1,38
 577 215 577 215 650 187 c 128,-1,39
 723 159 723 159 816 159 c 3,0,1
EndSplineSet
EndChar

StartChar: D
Encoding: 68 68 40
Width: 1479
Flags: W
HStem: 0 170<378 934.698> 1280 170<574 1138.19>
VStem: 1344 187<601.793 1086.31>
DStem2: 168 0 348.024 0 0.173648 0.984808<203.883 1331.06>
LayerCount: 3
Fore
SplineSet
697 0 m 2
 168 0 l 1
 424 1450 l 1
 929 1450 l 2
 1387 1450 1531 1249 1531 955 c 3
 1531 471 1316 0 697 0 c 2
1344 885 m 3
 1344 1195 1128 1280 896 1280 c 2
 574 1280 l 1
 378 170 l 1
 705 170 l 2
 1172 170 1344 552 1344 885 c 3
EndSplineSet
Validated: 1
Layer: 2
SplineSet
697 0 m 2,0,-1
 168 0 l 1,1,-1
 424 1450 l 1,2,-1
 929 1450 l 2,3,4
 1064 1450 1064 1450 1167.5 1426.5 c 128,-1,5
 1271 1403 1271 1403 1339 1361 c 128,-1,6
 1407 1319 1407 1319 1450.5 1256 c 128,-1,7
 1494 1193 1494 1193 1512.5 1119.5 c 128,-1,8
 1531 1046 1531 1046 1531 955 c 0,9,10
 1531 804 1531 804 1504.5 669 c 128,-1,11
 1478 534 1478 534 1415.5 410 c 128,-1,12
 1353 286 1353 286 1259 196.5 c 128,-1,13
 1165 107 1165 107 1021 53.5 c 128,-1,14
 877 0 877 0 697 0 c 2,0,-1
1344 885 m 3,15,16
 1344 975 1344 975 1319.5 1045 c 128,-1,17
 1295 1115 1295 1115 1253.5 1158.5 c 128,-1,18
 1212 1202 1212 1202 1153.5 1230 c 128,-1,19
 1095 1258 1095 1258 1032 1269 c 128,-1,20
 969 1280 969 1280 896 1280 c 2,21,-1
 574 1280 l 1,22,-1
 378 170 l 1,23,-1
 705 170 l 2,24,25
 840 170 840 170 950 212.5 c 128,-1,26
 1060 255 1060 255 1132 325.5 c 128,-1,27
 1204 396 1204 396 1253 490 c 128,-1,28
 1302 584 1302 584 1323 682.5 c 128,-1,29
 1344 781 1344 781 1344 885 c 3,15,16
EndSplineSet
EndChar

StartChar: E
Encoding: 69 69 41
Width: 1322
Flags: W
HStem: 0 170<378 1228> 651 170<493 1142> 1280 170<574 1454>
DStem2: 168 0 348.024 0 0.173648 0.984808<203.883 692.336 864.963 1331.06>
LayerCount: 3
Fore
SplineSet
168 0 m 1
 424 1450 l 1
 1484 1450 l 1
 1454 1280 l 1
 574 1280 l 1
 493 821 l 1
 1172 821 l 1
 1142 651 l 1
 463 651 l 1
 378 170 l 1
 1258 170 l 1
 1228 0 l 1
 168 0 l 1
EndSplineSet
Validated: 1
Layer: 2
SplineSet
168 0 m 1,0,-1
 424 1450 l 1,1,-1
 1484 1450 l 1,2,-1
 1454 1280 l 1,3,-1
 574 1280 l 1,4,-1
 493 821 l 1,5,-1
 1172 821 l 1,6,-1
 1142 651 l 1,7,-1
 463 651 l 1,8,-1
 378 170 l 1,9,-1
 1258 170 l 1,10,-1
 1228 0 l 1,11,-1
 168 0 l 1,0,-1
EndSplineSet
EndChar

StartChar: F
Encoding: 70 70 42
Width: 1251
Flags: W
HStem: 0 21G<168 351.533> 651 170<493 1124> 1280 170<574 1383>
DStem2: 168 0 348 0 0.173648 0.984808<31.2567 692.336 864.963 1331.06>
LayerCount: 3
Fore
SplineSet
168 0 m 1
 424 1450 l 1
 1413 1450 l 1
 1383 1280 l 1
 574 1280 l 1
 493 821 l 1
 1154 821 l 1
 1124 651 l 1
 463 651 l 1
 348 0 l 1
 168 0 l 1
EndSplineSet
Validated: 1
Layer: 2
SplineSet
168 0 m 1,0,-1
 424 1450 l 1,1,-1
 1413 1450 l 1,2,-1
 1383 1280 l 1,3,-1
 574 1280 l 1,4,-1
 493 821 l 1,5,-1
 1154 821 l 1,6,-1
 1124 651 l 1,7,-1
 463 651 l 1,8,-1
 348 0 l 1,9,-1
 168 0 l 1,0,-1
EndSplineSet
EndChar

StartChar: G
Encoding: 71 71 43
Width: 1479
Flags: W
HStem: -11 170<617.758 1019.47> 514 170<1026 1303> 1312 170<806.866 1227.55>
VStem: 216 187<387.586 866.381> 1371 188<1055 1174.61>
LayerCount: 3
Fore
SplineSet
403 618 m 3
 403 405 494 159 816 159 c 3
 1010 159 1265 297 1303 514 c 1
 996 514 l 1
 1026 684 l 1
 1525 684 l 1
 1438 192 1210 -11 789 -11 c 3
 476 -11 216 160 216 556 c 3
 216 1112 597 1482 1055 1482 c 3
 1402 1482 1535 1271 1559 1055 c 1
 1371 1055 l 1
 1355 1189 1262 1312 1021 1312 c 3
 674 1312 403 1016 403 618 c 3
EndSplineSet
Validated: 1
Layer: 2
SplineSet
403 618 m 3,0,1
 403 550 403 550 414.5 488 c 128,-1,2
 426 426 426 426 456 364.5 c 128,-1,3
 486 303 486 303 531.5 258.5 c 128,-1,4
 577 214 577 214 650 186.5 c 128,-1,5
 723 159 723 159 816 159 c 0,6,7
 889 159 889 159 968.5 184.5 c 128,-1,8
 1048 210 1048 210 1117.5 254.5 c 128,-1,9
 1187 299 1187 299 1238 367.5 c 128,-1,10
 1289 436 1289 436 1303 514 c 1,11,-1
 996 514 l 1,12,-1
 1026 684 l 1,13,-1
 1525 684 l 1,14,15
 1460 318 1460 318 1283.5 153.5 c 128,-1,16
 1107 -11 1107 -11 789 -11 c 0,17,18
 693 -11 693 -11 609 9.5 c 128,-1,19
 525 30 525 30 452.5 75 c 128,-1,20
 380 120 380 120 327.5 185.5 c 128,-1,21
 275 251 275 251 245.5 345.5 c 128,-1,22
 216 440 216 440 216 556 c 0,23,24
 216 760 216 760 283 934.5 c 128,-1,25
 350 1109 350 1109 463.5 1228 c 128,-1,26
 577 1347 577 1347 730.5 1414.5 c 128,-1,27
 884 1482 884 1482 1055 1482 c 0,28,29
 1156 1482 1156 1482 1238 1458 c 128,-1,30
 1320 1434 1320 1434 1375.5 1394 c 128,-1,31
 1431 1354 1431 1354 1471 1298 c 128,-1,32
 1511 1242 1511 1242 1531 1182.5 c 128,-1,33
 1551 1123 1551 1123 1559 1055 c 1,34,-1
 1371 1055 l 1,35,36
 1365 1108 1365 1108 1343 1152 c 128,-1,37
 1321 1196 1321 1196 1281 1233 c 128,-1,38
 1241 1270 1241 1270 1174.5 1291 c 128,-1,39
 1108 1312 1108 1312 1021 1312 c 0,40,41
 893 1312 893 1312 778.5 1259 c 128,-1,42
 664 1206 664 1206 581.5 1114.5 c 128,-1,43
 499 1023 499 1023 451 894 c 128,-1,44
 403 765 403 765 403 618 c 3,0,1
EndSplineSet
EndChar

StartChar: H
Encoding: 72 72 44
Width: 1479
Flags: W
HStem: 0 21G<164 347.536 1134 1317.53> 673 170<493 1253> 1430 20G<416.469 600 1386.47 1570>
DStem2: 164 0 344 0 0.173648 0.984808<31.2567 714.696 887.323 1472.43> 1134 0 1314 0 0.173648 0.984808<31.2567 683.44 856.067 1472.43>
LayerCount: 3
Fore
SplineSet
164 0 m 1
 420 1450 l 1
 600 1450 l 1
 493 843 l 1
 1283 843 l 1
 1390 1450 l 1
 1570 1450 l 1
 1314 0 l 1
 1134 0 l 1
 1253 673 l 1
 463 673 l 1
 344 0 l 1
 164 0 l 1
EndSplineSet
Validated: 1
Layer: 2
SplineSet
164 0 m 1,0,-1
 420 1450 l 1,1,-1
 600 1450 l 1,2,-1
 493 843 l 1,3,-1
 1283 843 l 1,4,-1
 1390 1450 l 1,5,-1
 1570 1450 l 1,6,-1
 1314 0 l 1,7,-1
 1134 0 l 1,8,-1
 1253 673 l 1,9,-1
 463 673 l 1,10,-1
 344 0 l 1,11,-1
 164 0 l 1,0,-1
EndSplineSet
EndChar

StartChar: I
Encoding: 73 73 45
Width: 650
Flags: W
HStem: 0 170<55 265 445 625> 1280 170<281 461 641 851>
DStem2: 235.024 0 415.024 0 0.173648 0.984808<203.879 1299.79>
LayerCount: 3
Fore
SplineSet
655 170 m 1
 625 0 l 1
 25 0 l 1
 55 170 l 1
 265 170 l 1
 461 1280 l 1
 251 1280 l 1
 281 1450 l 1
 881 1450 l 1
 851 1280 l 1
 641 1280 l 1
 445 170 l 1
 655 170 l 1
EndSplineSet
Validated: 1
Layer: 2
SplineSet
655 170 m 1,0,-1
 625 0 l 1,1,-1
 25 0 l 1,2,-1
 55 170 l 1,3,-1
 265 170 l 1,4,-1
 461 1280 l 1,5,-1
 251 1280 l 1,6,-1
 281 1450 l 1,7,-1
 881 1450 l 1,8,-1
 851 1280 l 1,9,-1
 641 1280 l 1,10,-1
 445 170 l 1,11,-1
 655 170 l 1,0,-1
EndSplineSet
EndChar

StartChar: J
Encoding: 74 74 46
Width: 1024
Flags: W
HStem: -11 170<362.858 643.729> 1280 170<664 911>
VStem: 128 186<209.284 451.845>
DStem2: 683.295 -11 862.832 -11 0.173648 0.984808<253.051 1310.93>
LayerCount: 3
Fore
SplineSet
1121 1450 m 1
 945 455 l 2
 884 107 710 -11 461 -11 c 3
 201 -11 128 124 128 296 c 3
 128 346 134 400 144 454 c 1
 324 454 l 1
 317 416 314 382 314 352 c 3
 314 216 380 159 490 159 c 3
 644 159 730 255 757 407 c 2
 911 1280 l 1
 634 1280 l 1
 664 1450 l 1
 1121 1450 l 1
EndSplineSet
Validated: 1
Layer: 2
SplineSet
1121 1450 m 1,0,-1
 945 455 l 2,1,2
 901 205 901 205 779.5 97 c 128,-1,3
 658 -11 658 -11 461 -11 c 0,4,5
 367 -11 367 -11 300 12 c 128,-1,6
 233 35 233 35 196.5 78.5 c 128,-1,7
 160 122 160 122 144 175 c 128,-1,8
 128 228 128 228 128 296 c 0,9,10
 128 368 128 368 144 454 c 1,11,-1
 324 454 l 1,12,13
 314 400 314 400 314 352 c 0,14,15
 314 159 314 159 490 159 c 0,16,17
 602 159 602 159 669 224 c 128,-1,18
 736 289 736 289 757 407 c 2,19,-1
 911 1280 l 1,20,-1
 634 1280 l 1,21,-1
 664 1450 l 1,22,-1
 1121 1450 l 1,0,-1
EndSplineSet
EndChar

StartChar: K
Encoding: 75 75 47
Width: 1366
Flags: W
HStem: 0 21G<150 333.525 1097.6 1346> 1430 20G<402.469 586 1302.14 1572>
DStem2: 150 0 330 0 0.173648 0.984808<31.2567 578.565 828.294 1472.43> 468 785 597 670 0.783062 0.621944<0 29.4915 235.45 1087.03>
LayerCount: 3
Fore
SplineSet
150 0 m 1
 406 1450 l 1
 586 1450 l 1
 468 785 l 1
 1328 1450 l 1
 1572 1450 l 1
 752 806 l 1
 1346 0 l 1
 1113 0 l 1
 597 670 l 1
 425 539 l 1
 330 0 l 1
 150 0 l 1
EndSplineSet
Validated: 1
Layer: 2
SplineSet
150 0 m 1,0,-1
 406 1450 l 1,1,-1
 586 1450 l 1,2,-1
 468 785 l 1,3,-1
 1328 1450 l 1,4,-1
 1572 1450 l 1,5,-1
 752 806 l 1,6,-1
 1346 0 l 1,7,-1
 1113 0 l 1,8,-1
 597 670 l 1,9,-1
 425 539 l 1,10,-1
 330 0 l 1,11,-1
 150 0 l 1,0,-1
EndSplineSet
EndChar

StartChar: L
Encoding: 76 76 48
Width: 1139
Flags: W
HStem: 0 170<360 1060> 1430 20G<402.469 586>
DStem2: 150 0 330.024 0 0.173648 0.984808<203.883 1472.43>
LayerCount: 3
Fore
SplineSet
150 0 m 1
 406 1450 l 1
 586 1450 l 1
 360 170 l 1
 1090 170 l 1
 1060 0 l 1
 150 0 l 1
EndSplineSet
Validated: 1
Layer: 2
SplineSet
150 0 m 1,0,-1
 406 1450 l 1,1,-1
 586 1450 l 1,2,-1
 360 170 l 1,3,-1
 1090 170 l 1,4,-1
 1060 0 l 1,5,-1
 150 0 l 1,0,-1
EndSplineSet
EndChar

StartChar: M
Encoding: 77 77 49
Width: 1706
Flags: W
HStem: 0 21G<152 335.527 701.768 1007.29 1370 1553.53> 1430 20G<404.469 592.343 1614.58 1806>
DStem2: 152 0 332 0 0.173648 0.984808<31.2567 1010.13> 588 1450 502 964 0.212214 -0.977223<456.68 1347.7> 874 133 996 0 0.495855 0.868405<0 1051.88> 1370 0 1550 0 0.173648 0.984808<31.2567 978.875>
LayerCount: 3
Fore
SplineSet
152 0 m 1
 408 1450 l 1
 588 1450 l 1
 874 133 l 1
 1626 1450 l 1
 1806 1450 l 1
 1550 0 l 1
 1370 0 l 1
 1540 964 l 1
 996 0 l 1
 706 0 l 1
 502 964 l 1
 332 0 l 1
 152 0 l 1
EndSplineSet
Validated: 1
Layer: 2
SplineSet
152 0 m 1,0,-1
 408 1450 l 1,1,-1
 588 1450 l 1,2,-1
 874 133 l 1,3,-1
 1626 1450 l 1,4,-1
 1806 1450 l 1,5,-1
 1550 0 l 1,6,-1
 1370 0 l 1,7,-1
 1540 964 l 1,8,-1
 996 0 l 1,9,-1
 706 0 l 1,10,-1
 502 964 l 1,11,-1
 332 0 l 1,12,-1
 152 0 l 1,0,-1
EndSplineSet
EndChar

StartChar: N
Encoding: 78 78 50
Width: 1479
Flags: W
HStem: 0 21G<156 339.521 1120.52 1314.53> 1430 20G<408.469 602.485 1383.48 1567>
DStem2: 156 0 336 0 0.173648 0.984808<31.2567 1184.73> 592 1450 536 1136 0.463978 -0.885847<252.173 1281.5> 1131.46 0 1311 0 0.173648 0.984808<319.859 1472.35>
LayerCount: 3
Fore
SplineSet
156 0 m 1
 412 1450 l 1
 592 1450 l 1
 1187 315 l 1
 1387 1450 l 1
 1567 1450 l 1
 1311 0 l 1
 1131 0 l 1
 536 1136 l 1
 336 0 l 1
 156 0 l 1
EndSplineSet
Validated: 1
Layer: 2
SplineSet
156 0 m 1,0,-1
 412 1450 l 1,1,-1
 592 1450 l 1,2,-1
 1187 315 l 1,3,-1
 1387 1450 l 1,4,-1
 1567 1450 l 1,5,-1
 1311 0 l 1,6,-1
 1131 0 l 1,7,-1
 536 1136 l 1,8,-1
 336 0 l 1,9,-1
 156 0 l 1,0,-1
EndSplineSet
EndChar

StartChar: O
Encoding: 79 79 51
Width: 1593
Flags: W
HStem: -11 170<617.067 1046.73> 1312 170<812.881 1242.39>
VStem: 216 182<375.721 853.19> 1458 183<611.282 1089.31>
LayerCount: 3
Fore
SplineSet
798 -11 m 3
 424 -11 216 214 216 562 c 3
 216 1117 612 1482 1062 1482 c 3
 1436 1482 1641 1254 1641 906 c 3
 1641 351 1248 -11 798 -11 c 3
1033 1312 m 3
 668 1312 398 992 398 584 c 3
 398 327 550 159 827 159 c 3
 1192 159 1458 467 1458 875 c 3
 1458 1132 1310 1312 1033 1312 c 3
EndSplineSet
Validated: 1
Layer: 2
SplineSet
798 -11 m 3,0,1
 521 -11 521 -11 368.5 143 c 128,-1,2
 216 297 216 297 216 562 c 0,3,4
 216 765 216 765 285 939 c 128,-1,5
 354 1113 354 1113 470 1231 c 128,-1,6
 586 1349 586 1349 740 1415.5 c 128,-1,7
 894 1482 894 1482 1062 1482 c 0,8,9
 1338 1482 1338 1482 1489.5 1326.5 c 128,-1,10
 1641 1171 1641 1171 1641 906 c 0,11,12
 1641 703 1641 703 1572.5 529.5 c 128,-1,13
 1504 356 1504 356 1388.5 238.5 c 128,-1,14
 1273 121 1273 121 1119.5 55 c 128,-1,15
 966 -11 966 -11 798 -11 c 3,0,1
1033 1312 m 3,16,17
 854 1312 854 1312 708 1215.5 c 128,-1,18
 562 1119 562 1119 480 952.5 c 128,-1,19
 398 786 398 786 398 584 c 0,20,21
 398 388 398 388 510 273.5 c 128,-1,22
 622 159 622 159 827 159 c 0,23,24
 1007 159 1007 159 1151.5 252.5 c 128,-1,25
 1296 346 1296 346 1377 509.5 c 128,-1,26
 1458 673 1458 673 1458 875 c 0,27,28
 1458 1073 1458 1073 1347 1192.5 c 128,-1,29
 1236 1312 1236 1312 1033 1312 c 3,16,17
EndSplineSet
EndChar

StartChar: P
Encoding: 80 80 52
Width: 1366
Flags: W
HStem: 0 21G<158 341.517> 580 170<470 1100.12> 1280 170<564 1187.45>
VStem: 1282 186<908.037 1201.37>
DStem2: 158 0 338 0 0.173648 0.984808<31.2567 620.157 792.784 1331.06>
LayerCount: 3
Fore
SplineSet
158 0 m 1
 414 1450 l 1
 967 1450 l 2
 1364 1450 1468 1313 1468 1134 c 3
 1468 766 1234 580 830 580 c 2
 440 580 l 1
 338 0 l 1
 158 0 l 1
863 750 m 2
 1072 750 1282 820 1282 1080 c 3
 1282 1200 1204 1280 953 1280 c 2
 564 1280 l 1
 470 750 l 1
 863 750 l 2
EndSplineSet
Validated: 1
Layer: 2
SplineSet
158 0 m 1,0,-1
 414 1450 l 1,1,-1
 967 1450 l 2,2,3
 1111 1450 1111 1450 1212 1426.5 c 128,-1,4
 1313 1403 1313 1403 1367.5 1358.5 c 128,-1,5
 1422 1314 1422 1314 1445 1259.5 c 128,-1,6
 1468 1205 1468 1205 1468 1134 c 0,7,8
 1468 861 1468 861 1302.5 720.5 c 128,-1,9
 1137 580 1137 580 830 580 c 2,10,-1
 440 580 l 1,11,-1
 338 0 l 1,12,-1
 158 0 l 1,0,-1
863 750 m 2,13,14
 929 750 929 750 987 759 c 128,-1,15
 1045 768 1045 768 1100.5 791.5 c 128,-1,16
 1156 815 1156 815 1195 851.5 c 128,-1,17
 1234 888 1234 888 1258 946.5 c 128,-1,18
 1282 1005 1282 1005 1282 1080 c 0,19,20
 1282 1177 1282 1177 1207 1228.5 c 128,-1,21
 1132 1280 1132 1280 953 1280 c 2,22,-1
 564 1280 l 1,23,-1
 470 750 l 1,24,-1
 863 750 l 2,13,14
EndSplineSet
EndChar

StartChar: Q
Encoding: 81 81 53
Width: 1659
Flags: W
HStem: -11 170<774.943 1061.84 1350.95 1555.87> 289 170<832.851 1062.95> 1312 170<797.938 1241.68>
VStem: 215 183<384.481 851.978> 1458 183<615.429 1091.97>
LayerCount: 3
Fore
SplineSet
976 459 m 3
 1156 459 1239 367 1255 346 c 1
 1406 499 1458 682 1458 878 c 3
 1458 1143 1310 1312 1033 1312 c 3
 612 1312 398 953 398 590 c 3
 398 421 469 294 582 222 c 1
 654 386 832 459 976 459 c 3
1349 184 m 1
 1363 165 1386 159 1418 159 c 3
 1457 159 1519 176 1570 212 c 1
 1675 93 l 1
 1589 24 1496 -11 1397 -11 c 3
 1311 -11 1217 15 1171 87 c 1
 1055 21 960 -11 818 -11 c 3
 430 -11 215 212 215 552 c 3
 215 1118 603 1482 1062 1482 c 3
 1432 1482 1641 1254 1641 905 c 3
 1641 542 1437 245 1349 184 c 1
1088 218 m 1
 1056 265 1014 289 959 289 c 3
 821 289 767 166 767 166 c 1
 783 161 804 159 831 159 c 3
 951 159 1048 189 1088 218 c 1
EndSplineSet
Validated: 1
Layer: 2
SplineSet
976 459 m 3,0,1
 1039 459 1039 459 1092 445 c 128,-1,2
 1145 431 1145 431 1178.5 409.5 c 128,-1,3
 1212 388 1212 388 1228.5 373.5 c 128,-1,4
 1245 359 1245 359 1255 346 c 1,5,6
 1458 552 1458 552 1458 878 c 0,7,8
 1458 1080 1458 1080 1348 1196 c 128,-1,9
 1238 1312 1238 1312 1033 1312 c 0,10,11
 881 1312 881 1312 757.5 1250.5 c 128,-1,12
 634 1189 634 1189 557 1086.5 c 128,-1,13
 480 984 480 984 439 856.5 c 128,-1,14
 398 729 398 729 398 590 c 0,15,16
 398 466 398 466 446.5 371.5 c 128,-1,17
 495 277 495 277 582 222 c 1,18,19
 633 337 633 337 745 398 c 128,-1,20
 857 459 857 459 976 459 c 3,0,1
1349 184 m 1,21,22
 1367 159 1367 159 1418 159 c 0,23,24
 1495 159 1495 159 1570 212 c 1,25,-1
 1675 93 l 1,26,27
 1545 -11 1545 -11 1397 -11 c 0,28,29
 1326 -11 1326 -11 1264.5 12.5 c 128,-1,30
 1203 36 1203 36 1171 87 c 1,31,32
 1080 35 1080 35 1000.5 12 c 128,-1,33
 921 -11 921 -11 818 -11 c 0,34,35
 531 -11 531 -11 373 141 c 128,-1,36
 215 293 215 293 215 552 c 0,37,38
 215 759 215 759 283 935 c 128,-1,39
 351 1111 351 1111 466.5 1230 c 128,-1,40
 582 1349 582 1349 736 1415.5 c 128,-1,41
 890 1482 890 1482 1062 1482 c 0,42,43
 1336 1482 1336 1482 1488.5 1326 c 128,-1,44
 1641 1170 1641 1170 1641 905 c 0,45,46
 1641 777 1641 777 1608.5 649.5 c 128,-1,47
 1576 522 1576 522 1527.5 429.5 c 128,-1,48
 1479 337 1479 337 1432 273 c 128,-1,49
 1385 209 1385 209 1349 184 c 1,21,22
1088 218 m 1,50,51
 1040 289 1040 289 959 289 c 0,52,53
 920 289 920 289 886 276.5 c 128,-1,54
 852 264 852 264 831.5 246 c 128,-1,55
 811 228 811 228 795.5 209.5 c 128,-1,56
 780 191 780 191 773.5 178.5 c 2,57,-1
 767 166 l 1,58,59
 789 159 789 159 831 159 c 0,60,61
 915 159 915 159 985 176.5 c 128,-1,62
 1055 194 1055 194 1088 218 c 1,50,51
EndSplineSet
EndChar

StartChar: R
Encoding: 82 82 54
Width: 1400
Flags: W
HStem: 0 21G<158 341.517 1096.41 1387> 580 170<470 800> 1280 170<564 1185.45>
VStem: 1283 185<909.749 1198.84>
DStem2: 158 0 338 0 0.173648 0.984808<31.2567 620.157 792.784 1331.06>
LayerCount: 3
Fore
SplineSet
800 580 m 1
 440 580 l 1
 338 0 l 1
 158 0 l 1
 414 1450 l 1
 967 1450 l 2
 1359 1450 1468 1315 1468 1132 c 3
 1468 840 1287 634 1029 596 c 1
 1387 0 l 1
 1107 0 l 1
 800 580 l 1
863 750 m 2
 1069 750 1283 822 1283 1080 c 3
 1283 1190 1214 1280 953 1280 c 2
 564 1280 l 1
 470 750 l 1
 863 750 l 2
EndSplineSet
Validated: 1
Layer: 2
SplineSet
800 580 m 1,0,-1
 440 580 l 1,1,-1
 338 0 l 1,2,-1
 158 0 l 1,3,-1
 414 1450 l 1,4,-1
 967 1450 l 2,5,6
 1110 1450 1110 1450 1210 1426.5 c 128,-1,7
 1310 1403 1310 1403 1365 1359 c 128,-1,8
 1420 1315 1420 1315 1444 1259.5 c 128,-1,9
 1468 1204 1468 1204 1468 1132 c 0,10,11
 1468 916 1468 916 1346.5 770.5 c 128,-1,12
 1225 625 1225 625 1029 596 c 1,13,-1
 1387 0 l 1,14,-1
 1107 0 l 1,15,-1
 800 580 l 1,0,-1
863 750 m 2,16,17
 928 750 928 750 986 759.5 c 128,-1,18
 1044 769 1044 769 1099.5 792.5 c 128,-1,19
 1155 816 1155 816 1195 852.5 c 128,-1,20
 1235 889 1235 889 1259 947 c 128,-1,21
 1283 1005 1283 1005 1283 1080 c 0,22,23
 1283 1124 1283 1124 1267.5 1158 c 128,-1,24
 1252 1192 1252 1192 1216.5 1220.5 c 128,-1,25
 1181 1249 1181 1249 1114.5 1264.5 c 128,-1,26
 1048 1280 1048 1280 953 1280 c 2,27,-1
 564 1280 l 1,28,-1
 470 750 l 1,29,-1
 863 750 l 2,16,17
EndSplineSet
EndChar

StartChar: S
Encoding: 83 83 55
Width: 1366
Flags: W
HStem: -11 170<516.494 963.602> 1312 170<667.034 1085.99>
VStem: 174 189<302.139 502> 331 185<955.188 1177.93> 1155 187<309.905 552.877> 1211 188<1024 1196.01>
LayerCount: 3
Fore
SplineSet
715 -11 m 3xd8
 275 -11 174 210 174 406 c 3
 174 439 176 472 181 502 c 1
 364 502 l 1
 363 492 363 483 363 474 c 3
 363 262 504 159 736 159 c 3
 928 159 1155 245 1155 449 c 3xe8
 1155 618 914 626 756 666 c 0
 534 722 331 792 331 1004 c 3
 331 1312 622 1482 925 1482 c 3
 1205 1482 1399 1345 1399 1082 c 3
 1399 1063 1398 1044 1396 1024 c 1
 1210 1024 l 1
 1210 1031 1211 1038 1211 1045 c 3xd4
 1211 1205 1102 1312 903 1312 c 3
 613 1312 516 1171 516 1053 c 3
 516 905 722 875 841 846 c 0
 1011 805 1342 783 1342 503 c 3
 1342 176 1025 -11 715 -11 c 3xd8
EndSplineSet
Validated: 1
Layer: 2
SplineSet
715 -11 m 3,0,1
 588 -11 588 -11 490.5 14 c 128,-1,2
 393 39 393 39 334 79 c 128,-1,3
 275 119 275 119 238 175 c 128,-1,4
 201 231 201 231 187.5 286.5 c 128,-1,5
 174 342 174 342 174 406 c 0,6,7
 174 460 174 460 181 502 c 1,8,-1
 364 502 l 1,9,10
 363 492 363 492 363 474 c 0,11,12
 363 318 363 318 460.5 238.5 c 128,-1,13
 558 159 558 159 736 159 c 0,14,15
 811 159 811 159 883 176 c 128,-1,16
 955 193 955 193 1017 227 c 128,-1,17
 1079 261 1079 261 1117 318.5 c 128,-1,18
 1155 376 1155 376 1155 449 c 0,19,20
 1155 490 1155 490 1135.5 521.5 c 128,-1,21
 1116 553 1116 553 1088 571.5 c 128,-1,22
 1060 590 1060 590 1014 606 c 128,-1,23
 968 622 968 622 931 629.5 c 128,-1,24
 894 637 894 637 839.5 648 c 128,-1,25
 785 659 785 659 756 666 c 0,26,27
 679 685 679 685 625.5 702 c 128,-1,28
 572 719 572 719 512 748 c 128,-1,29
 452 777 452 777 415.5 810 c 128,-1,30
 379 843 379 843 355 893 c 128,-1,31
 331 943 331 943 331 1004 c 0,32,33
 331 1116 331 1116 381 1208 c 128,-1,34
 431 1300 431 1300 514.5 1359 c 128,-1,35
 598 1418 598 1418 704 1450 c 128,-1,36
 810 1482 810 1482 925 1482 c 0,37,38
 1141 1482 1141 1482 1270 1378.5 c 128,-1,39
 1399 1275 1399 1275 1399 1082 c 0,40,41
 1399 1054 1399 1054 1396 1024 c 1,42,-1
 1210 1024 l 1,43,44
 1210 1028 1210 1028 1210.5 1035 c 128,-1,45
 1211 1042 1211 1042 1211 1045 c 0,46,47
 1211 1167 1211 1167 1130.5 1239.5 c 128,-1,48
 1050 1312 1050 1312 903 1312 c 0,49,50
 799 1312 799 1312 721 1288.5 c 128,-1,51
 643 1265 643 1265 600 1226 c 128,-1,52
 557 1187 557 1187 536.5 1143.5 c 128,-1,53
 516 1100 516 1100 516 1053 c 0,54,55
 516 1026 516 1026 526 1002.5 c 128,-1,56
 536 979 536 979 549.5 962.5 c 128,-1,57
 563 946 563 946 588.5 930 c 128,-1,58
 614 914 614 914 633 905 c 128,-1,59
 652 896 652 896 686.5 885 c 128,-1,60
 721 874 721 874 739 869.5 c 128,-1,61
 757 865 757 865 793.5 857 c 128,-1,62
 830 849 830 849 841 846 c 0,63,64
 864 840 864 840 910.5 831 c 128,-1,65
 957 822 957 822 991.5 814.5 c 128,-1,66
 1026 807 1026 807 1073.5 793 c 128,-1,67
 1121 779 1121 779 1155.5 764 c 128,-1,68
 1190 749 1190 749 1227.5 724 c 128,-1,69
 1265 699 1265 699 1288.5 669 c 128,-1,70
 1312 639 1312 639 1327 596.5 c 128,-1,71
 1342 554 1342 554 1342 503 c 0,72,73
 1342 408 1342 408 1306.5 324.5 c 128,-1,74
 1271 241 1271 241 1210.5 180.5 c 128,-1,75
 1150 120 1150 120 1070 76 c 128,-1,76
 990 32 990 32 899.5 10.5 c 128,-1,77
 809 -11 809 -11 715 -11 c 3,0,1
EndSplineSet
EndChar

StartChar: T
Encoding: 84 84 56
Width: 1251
Flags: W
HStem: 0 21G<538 721.531> 1280 170<304 764 944 1436>
DStem2: 538 0 718 0 0.173648 0.984808<31.2567 1299.8>
LayerCount: 3
Fore
SplineSet
538 0 m 1
 764 1280 l 1
 274 1280 l 1
 304 1450 l 1
 1466 1450 l 1
 1436 1280 l 1
 944 1280 l 1
 718 0 l 1
 538 0 l 1
EndSplineSet
Validated: 1
Layer: 2
SplineSet
538 0 m 1,0,-1
 764 1280 l 1,1,-1
 274 1280 l 1,2,-1
 304 1450 l 1,3,-1
 1466 1450 l 1,4,-1
 1436 1280 l 1,5,-1
 944 1280 l 1,6,-1
 718 0 l 1,7,-1
 538 0 l 1,0,-1
EndSplineSet
EndChar

StartChar: U
Encoding: 85 85 57
Width: 1479
Flags: W
HStem: -11 170<555.399 995.589> 1430 20G<413.471 597 1386.47 1570>
VStem: 246 183<274.086 732.156>
DStem2: 159.259 -11 339.083 -11 0.173648 0.984808<492.837 1483.56> 1132.08 -11 1312.26 -11 0.173648 0.984808<339.995 1483.59>
LayerCount: 3
Fore
SplineSet
766 159 m 3
 1084 159 1193 336 1234 567 c 2
 1390 1450 l 1
 1570 1450 l 1
 1414 566 l 2
 1346 181 1118 -11 736 -11 c 3
 411 -11 246 128 246 407 c 3
 246 456 251 509 261 566 c 2
 417 1450 l 1
 597 1450 l 1
 441 567 l 2
 433 523 429 480 429 440 c 3
 429 274 509 159 766 159 c 3
EndSplineSet
Validated: 1
Layer: 2
SplineSet
766 159 m 3,0,1
 882 159 882 159 967 189.5 c 128,-1,2
 1052 220 1052 220 1104.5 277.5 c 128,-1,3
 1157 335 1157 335 1187.5 404.5 c 128,-1,4
 1218 474 1218 474 1234 567 c 2,5,-1
 1390 1450 l 1,6,-1
 1570 1450 l 1,7,-1
 1414 566 l 2,8,9
 1312 -11 1312 -11 736 -11 c 0,10,11
 246 -11 246 -11 246 407 c 0,12,13
 246 480.5 246 480.5 261 566 c 2,14,-1
 417 1450 l 1,15,-1
 597 1450 l 1,16,-1
 441 567 l 2,17,18
 429 501 429 501 429 440 c 0,19,20
 429 306 429 306 506.5 232.5 c 128,-1,21
 584 159 584 159 766 159 c 3,0,1
EndSplineSet
EndChar

StartChar: V
Encoding: 86 86 58
Width: 1366
Flags: W
HStem: 0 21G<572.697 787.448> 1430 20G<265 479.287 1396.35 1606>
DStem2: 475 1450 265 1450 0.210358 -0.977624<0 1197.6> 726 279 776 0 0.496783 0.867875<0 1355.09>
LayerCount: 3
Fore
SplineSet
577 0 m 1
 265 1450 l 1
 475 1450 l 1
 726 279 l 1
 1408 1450 l 1
 1606 1450 l 1
 776 0 l 1
 577 0 l 1
EndSplineSet
Validated: 1
Layer: 2
SplineSet
577 0 m 1,0,-1
 265 1450 l 1,1,-1
 475 1450 l 1,2,-1
 726 279 l 1,3,-1
 1408 1450 l 1,4,-1
 1606 1450 l 1,5,-1
 776 0 l 1,6,-1
 577 0 l 1,0,-1
EndSplineSet
EndChar

StartChar: W
Encoding: 87 87 59
Width: 1933
Flags: W
HStem: 0 21G<412.166 621.487 1307.56 1516.9> 1430 20G<281 481.925 1080.42 1346.53 1945.02 2153>
DStem2: 480 1450 281 1450 0.0913407 -0.99582<0 1064.89> 582 390 612 0 0.428584 0.903502<0 955.453> 1344 1450 1167 1170 0.121319 -0.992613<256.458 1068.43> 1478 390 1508 0 0.406431 0.913682<0 1161.96>
LayerCount: 3
Fore
SplineSet
414 0 m 1
 281 1450 l 1
 480 1450 l 1
 582 390 l 1
 1090 1450 l 1
 1344 1450 l 1
 1478 390 l 1
 1954 1450 l 1
 2153 1450 l 1
 1508 0 l 1
 1310 0 l 1
 1167 1170 l 1
 612 0 l 1
 414 0 l 1
EndSplineSet
Validated: 1
Layer: 2
SplineSet
414 0 m 1,0,-1
 281 1450 l 1,1,-1
 480 1450 l 1,2,-1
 582 390 l 1,3,-1
 1090 1450 l 1,4,-1
 1344 1450 l 1,5,-1
 1478 390 l 1,6,-1
 1954 1450 l 1,7,-1
 2153 1450 l 1,8,-1
 1508 0 l 1,9,-1
 1310 0 l 1,10,-1
 1167 1170 l 1,11,-1
 612 0 l 1,12,-1
 414 0 l 1,0,-1
EndSplineSet
EndChar

StartChar: X
Encoding: 88 88 60
Width: 1366
Flags: W
HStem: 0 21G<9 256.945 1112.1 1353> 1430 20G<332 572.146 1320.79 1569>
DStem2: 9 0 239 0 0.675955 0.736943<155.47 978.991 1226.44 1967.59> 562 1450 332 1450 0.478895 -0.877872<0 614.207 843.488 1541.57>
LayerCount: 3
Fore
SplineSet
9 0 m 1
 697 756 l 1
 332 1450 l 1
 562 1450 l 1
 840 902 l 1
 1339 1450 l 1
 1569 1450 l 1
 931 756 l 1
 1353 0 l 1
 1123 0 l 1
 789 613 l 1
 239 0 l 1
 9 0 l 1
EndSplineSet
Validated: 1
Layer: 2
SplineSet
9 0 m 1,0,-1
 697 756 l 1,1,-1
 332 1450 l 1,2,-1
 562 1450 l 1,3,-1
 840 902 l 1,4,-1
 1339 1450 l 1,5,-1
 1569 1450 l 1,6,-1
 931 756 l 1,7,-1
 1353 0 l 1,8,-1
 1123 0 l 1,9,-1
 789 613 l 1,10,-1
 239 0 l 1,11,-1
 9 0 l 1,0,-1
EndSplineSet
EndChar

StartChar: Y
Encoding: 89 89 61
Width: 1366
Flags: W
HStem: 0 21G<585 768.51> 1431 20G<262 502.44 1358.64 1606>
DStem2: 492 1451 262 1451 0.461689 -0.887042<0 717.439> 585 0 765 0 0.173648 0.984808<31.2567 630.493> 824 815 874 621 0.661442 0.749996<0 842.114>
LayerCount: 3
Fore
SplineSet
585 0 m 1
 694 621 l 1
 262 1451 l 1
 492 1451 l 1
 824 815 l 1
 1376 1451 l 1
 1606 1451 l 1
 874 621 l 1
 765 0 l 1
 585 0 l 1
EndSplineSet
Validated: 1
Layer: 2
SplineSet
585 0 m 1,0,-1
 694 621 l 1,1,-1
 262 1451 l 1,2,-1
 492 1451 l 1,3,-1
 824 815 l 1,4,-1
 1376 1451 l 1,5,-1
 1606 1451 l 1,6,-1
 874 621 l 1,7,-1
 765 0 l 1,8,-1
 585 0 l 1,0,-1
EndSplineSet
EndChar

StartChar: Z
Encoding: 90 90 62
Width: 1251
Flags: W
HStem: 0 170<355 1200> 1280 170<301 1171>
LayerCount: 3
Fore
SplineSet
41 0 m 1
 72 177 l 1
 1171 1280 l 1
 271 1280 l 1
 301 1450 l 1
 1469 1450 l 1
 1439 1280 l 1
 355 170 l 1
 1230 170 l 1
 1200 0 l 1
 41 0 l 1
EndSplineSet
Validated: 1
Layer: 2
SplineSet
41 0 m 1,0,-1
 72 177 l 1,1,-1
 1171 1280 l 1,2,-1
 271 1280 l 1,3,-1
 301 1450 l 1,4,-1
 1469 1450 l 1,5,-1
 1439 1280 l 1,6,-1
 355 170 l 1,7,-1
 1230 170 l 1,8,-1
 1200 0 l 1,9,-1
 41 0 l 1,0,-1
EndSplineSet
EndChar

StartChar: bracketleft
Encoding: 91 91 63
Width: 569
Flags: W
HStem: -407 148<273 464> 1318 148<551 768>
DStem2: 67 -407 246.904 -407 0.173648 0.984808<181.523 1782.84>
LayerCount: 3
Fore
SplineSet
67 -407 m 1
 397 1466 l 1
 794 1466 l 1
 768 1318 l 1
 551 1318 l 1
 273 -259 l 1
 490 -259 l 1
 464 -407 l 1
 67 -407 l 1
EndSplineSet
Validated: 1
Layer: 2
SplineSet
67 -407 m 1,0,-1
 397 1466 l 1,1,-1
 794 1466 l 1,2,-1
 768 1318 l 1,3,-1
 551 1318 l 1,4,-1
 273 -259 l 1,5,-1
 490 -259 l 1,6,-1
 464 -407 l 1,7,-1
 67 -407 l 1,0,-1
EndSplineSet
EndChar

StartChar: backslash
Encoding: 92 92 64
Width: 569
Flags: W
VStem: 263 302
DStem2: 408 1491 263 1491 0.10366 -0.994613<0 1509.18>
LayerCount: 3
Fore
SplineSet
421 -25 m 1
 263 1491 l 1
 408 1491 l 1
 565 -25 l 1
 421 -25 l 1
EndSplineSet
Validated: 1
Layer: 2
SplineSet
421 -25 m 1,0,-1
 263 1491 l 1,1,-1
 408 1491 l 1,2,-1
 565 -25 l 1,3,-1
 421 -25 l 1,0,-1
EndSplineSet
EndChar

StartChar: bracketright
Encoding: 93 93 65
Width: 569
Flags: W
HStem: -407 148<-7 210> 1318 148<297 488>
DStem2: 183.904 -407 364 -407 0.173648 0.984808<150.283 1751.6>
LayerCount: 3
Fore
SplineSet
364 -407 m 1
 -33 -407 l 1
 -7 -259 l 1
 210 -259 l 1
 488 1318 l 1
 271 1318 l 1
 297 1466 l 1
 694 1466 l 1
 364 -407 l 1
EndSplineSet
Validated: 1
Layer: 2
SplineSet
364 -407 m 1,0,-1
 -33 -407 l 1,1,-1
 -7 -259 l 1,2,-1
 210 -259 l 1,3,-1
 488 1318 l 1,4,-1
 271 1318 l 1,5,-1
 297 1466 l 1,6,-1
 694 1466 l 1,7,-1
 364 -407 l 1,0,-1
EndSplineSet
EndChar

StartChar: asciicircum
Encoding: 94 94 66
Width: 961
Flags: W
DStem2: 176 690 361 690 0.524927 0.851147<97.1115 739.916> 815 1491 697 1238 0.258113 -0.966115<213.97 782.376>
LayerCount: 3
Fore
SplineSet
361 690 m 1
 176 690 l 1
 670 1491 l 1
 815 1491 l 1
 1029 690 l 1
 848 690 l 1
 697 1238 l 1
 361 690 l 1
EndSplineSet
Validated: 1
Layer: 2
SplineSet
361 690 m 1,0,-1
 176 690 l 1,1,-1
 670 1491 l 1,2,-1
 815 1491 l 1,3,-1
 1029 690 l 1,4,-1
 848 690 l 1,5,-1
 697 1238 l 1,6,-1
 361 690 l 1,0,-1
EndSplineSet
EndChar

StartChar: underscore
Encoding: 95 95 67
Width: 1139
Flags: W
HStem: -407 148<-77 1090>
LayerCount: 3
Fore
SplineSet
-103 -407 m 1
 -77 -259 l 1
 1116 -259 l 1
 1090 -407 l 1
 -103 -407 l 1
EndSplineSet
Validated: 1
Layer: 2
SplineSet
-103 -407 m 1,0,-1
 -77 -259 l 1,1,-1
 1116 -259 l 1,2,-1
 1090 -407 l 1,3,-1
 -103 -407 l 1,0,-1
EndSplineSet
EndChar

StartChar: grave
Encoding: 96 96 68
Width: 682
Flags: W
HStem: 1194 280<531 590>
VStem: 349 327
LayerCount: 3
Fore
SplineSet
676 1194 m 1
 531 1194 l 1
 349 1474 l 1
 590 1474 l 1
 676 1194 l 1
EndSplineSet
Validated: 1
Layer: 2
SplineSet
676 1194 m 1,0,-1
 531 1194 l 1,1,-1
 349 1474 l 1,2,-1
 590 1474 l 1,3,-1
 676 1194 l 1,0,-1
EndSplineSet
EndChar

StartChar: a
Encoding: 97 97 69
Width: 1139
Flags: W
HStem: 0 137<349.805 696.261> 947 148<532.97 897.399>
VStem: 121 184<181.55 377.919> 852 178<1.57034 129.685> 946 188<683.875 897.503>
DStem2: 813.421 -11 993.303 -11 0.173648 0.984808<289.315 558.415 687.023 799.68>
LayerCount: 3
Fore
SplineSet
1076 458 m 2xe8
 1046 284 1030 188 1030 119 c 3
 1030 72 1037 38 1052 0 c 1
 866 0 l 1
 857 29 852 62 852 98 c 3xf0
 852 109 852 120 853 131 c 1
 745 62 614 -11 435 -11 c 3
 188 -11 121 121 121 237 c 3
 121 403 229 545 437 598 c 0
 561 629 773 634 936 687 c 1
 942 719 946 750 946 779 c 3
 946 876 900 947 725 947 c 3
 556 947 475 892 412 744 c 1
 240 768 l 1
 322 999 514 1095 777 1095 c 3
 1066 1095 1134 994 1134 850 c 3
 1134 802 1127 749 1117 694 c 2
 1076 458 l 2xe8
305 276 m 3
 305 222 343 137 498 137 c 3
 719 137 860 254 897 463 c 1
 910 539 l 1
 672 447 305 493 305 276 c 3
EndSplineSet
Validated: 1
Layer: 2
SplineSet
1076 458 m 2,0,1
 1030 191 1030 191 1030 119 c 0,2,3
 1030 56 1030 56 1052 0 c 1,4,-1
 866 0 l 1,5,6
 852 45 852 45 852 98 c 0,7,8
 852 120 852 120 853 131 c 1,9,10
 750 65 750 65 652.5 27 c 128,-1,11
 555 -11 555 -11 435 -11 c 0,12,13
 347 -11 347 -11 282.5 11 c 128,-1,14
 218 33 218 33 184.5 70.5 c 128,-1,15
 151 108 151 108 136 149 c 128,-1,16
 121 190 121 190 121 237 c 0,17,18
 121 365 121 365 203 462 c 128,-1,19
 285 559 285 559 437 598 c 0,20,21
 481 609 481 609 662.5 633 c 128,-1,22
 844 657 844 657 936 687 c 1,23,24
 946 740 946 740 946 779 c 0,25,26
 946 859 946 859 897 903 c 128,-1,27
 848 947 848 947 725 947 c 0,28,29
 599 947 599 947 529.5 901.5 c 128,-1,30
 460 856 460 856 412 744 c 1,31,-1
 240 768 l 1,32,33
 356 1095 356 1095 777 1095 c 0,34,35
 882 1095 882 1095 954 1077.5 c 128,-1,36
 1026 1060 1026 1060 1064.5 1026 c 128,-1,37
 1103 992 1103 992 1118.5 950 c 128,-1,38
 1134 908 1134 908 1134 850 c 0,39,40
 1134 788 1134 788 1117 694 c 2,41,-1
 1076 458 l 2,0,1
305 276 m 3,42,43
 305 253 305 253 314 231 c 128,-1,44
 323 209 323 209 343 186.5 c 128,-1,45
 363 164 363 164 403 150.5 c 128,-1,46
 443 137 443 137 498 137 c 0,47,48
 663 137 663 137 766 221.5 c 128,-1,49
 869 306 869 306 897 463 c 2,50,-1
 910 539 l 1,51,52
 849 515 849 515 757 497.5 c 128,-1,53
 665 480 665 480 592.5 468 c 128,-1,54
 520 456 520 456 451 436.5 c 128,-1,55
 382 417 382 417 343.5 377 c 128,-1,56
 305 337 305 337 305 276 c 3,42,43
EndSplineSet
EndChar

StartChar: b
Encoding: 98 98 70
Width: 1139
Flags: W
HStem: -11 148<484.102 756.49> 947 148<622.771 886.128> 1446 20G<388.48 572>
VStem: 982 183<416.078 847.097>
DStem2: 132.06 -11 299.06 -11 0.173648 0.984808<40.1689 161.008 1008.15 1499.7>
LayerCount: 3
Fore
SplineSet
594 -11 m 3
 417 -11 344 82 322 119 c 1
 301 0 l 1
 134 0 l 1
 392 1466 l 1
 572 1466 l 1
 482 951 l 1
 575 1046 680 1095 798 1095 c 3
 1037 1095 1165 929 1165 688 c 3
 1165 298 919 -11 594 -11 c 3
605 137 m 3
 831 137 982 383 982 666 c 3
 982 883 857 947 756 947 c 3
 559 947 396 682 396 416 c 3
 396 204 514 137 605 137 c 3
EndSplineSet
Validated: 1
Layer: 2
SplineSet
594 -11 m 3,0,1
 532 -11 532 -11 481 3.5 c 128,-1,2
 430 18 430 18 398.5 41 c 128,-1,3
 367 64 367 64 350 82 c 128,-1,4
 333 100 333 100 322 119 c 1,5,-1
 301 0 l 1,6,-1
 134 0 l 1,7,-1
 392 1466 l 1,8,-1
 572 1466 l 1,9,-1
 482 951 l 1,10,11
 623 1095 623 1095 798 1095 c 128,-1,12
 973 1095 973 1095 1069 984 c 128,-1,13
 1165 873 1165 873 1165 688 c 0,14,15
 1165 495 1165 495 1090.5 335 c 128,-1,16
 1016 175 1016 175 885 82 c 128,-1,17
 754 -11 754 -11 594 -11 c 3,0,1
605 137 m 3,18,19
 715 137 715 137 802 210.5 c 128,-1,20
 889 284 889 284 935.5 404 c 128,-1,21
 982 524 982 524 982 666 c 0,22,23
 982 743 982 743 961.5 800.5 c 128,-1,24
 941 858 941 858 906.5 888.5 c 128,-1,25
 872 919 872 919 834.5 933 c 128,-1,26
 797 947 797 947 756 947 c 0,27,28
 660 947 660 947 576 870 c 128,-1,29
 492 793 492 793 444 670.5 c 128,-1,30
 396 548 396 548 396 416 c 0,31,32
 396 340 396 340 415.5 283.5 c 128,-1,33
 435 227 435 227 467 196.5 c 128,-1,34
 499 166 499 166 533.5 151.5 c 128,-1,35
 568 137 568 137 605 137 c 3,18,19
EndSplineSet
EndChar

StartChar: c
Encoding: 99 99 71
Width: 1024
Flags: W
HStem: -11 148<450.243 748.207> 947 148<575.34 866.927>
VStem: 162 182<246.9 668.73> 899 177<286.135 402> 953 180<705 860.056>
LayerCount: 3
Fore
SplineSet
585 137 m 3xe8
 707 137 859 202 899 402 c 1
 1076 402 l 1xf0
 1021 136 827 -11 561 -11 c 3
 340 -11 162 133 162 405 c 3
 162 812 424 1095 757 1095 c 3
 1073 1095 1133 905 1133 776 c 3
 1133 749 1130 724 1127 705 c 1
 952 705 l 1
 952 711 953 717 953 723 c 3
 953 837 874 947 738 947 c 3
 512 947 344 728 344 424 c 3
 344 206 482 137 585 137 c 3xe8
EndSplineSet
Validated: 1
Layer: 2
SplineSet
585 137 m 3,0,1
 634 137 634 137 680.5 151 c 128,-1,2
 727 165 727 165 772 194 c 128,-1,3
 817 223 817 223 851 276.5 c 128,-1,4
 885 330 885 330 899 402 c 1,5,-1
 1076 402 l 1,6,7
 1035 204 1035 204 898.5 96.5 c 128,-1,8
 762 -11 762 -11 561 -11 c 0,9,10
 388 -11 388 -11 275 98.5 c 128,-1,11
 162 208 162 208 162 405 c 0,12,13
 162 555 162 555 208.5 684 c 128,-1,14
 255 813 255 813 334.5 903 c 128,-1,15
 414 993 414 993 523.5 1044 c 128,-1,16
 633 1095 633 1095 757 1095 c 0,17,18
 848 1095 848 1095 917 1074 c 128,-1,19
 986 1053 986 1053 1026 1020.5 c 128,-1,20
 1066 988 1066 988 1091 943.5 c 128,-1,21
 1116 899 1116 899 1124.5 859 c 128,-1,22
 1133 819 1133 819 1133 776 c 0,23,24
 1133 743 1133 743 1127 705 c 1,25,-1
 952 705 l 2,26,27
 952 708 952 708 952.5 714 c 128,-1,28
 953 720 953 720 953 723 c 0,29,30
 953 814 953 814 894.5 880.5 c 128,-1,31
 836 947 836 947 738 947 c 0,32,33
 568 947 568 947 456 799 c 128,-1,34
 344 651 344 651 344 424 c 0,35,36
 344 361 344 361 359.5 310.5 c 128,-1,37
 375 260 375 260 399 228.5 c 128,-1,38
 423 197 423 197 455.5 175.5 c 128,-1,39
 488 154 488 154 520 145.5 c 128,-1,40
 552 137 552 137 585 137 c 3,0,1
EndSplineSet
EndChar

StartChar: d
Encoding: 100 100 72
Width: 1139
Flags: W
HStem: -11 148<432.013 688.081> 947 148<548.646 825.871> 1446 20G<1060.48 1249>
VStem: 152 182<240.056 675.099>
DStem2: 816.06 -11 989.06 -11 0.173648 0.984808<41.2108 135.137 989.93 1497.62>
LayerCount: 3
Fore
SplineSet
707 1095 m 3
 883 1095 943 1022 976 966 c 1
 1064 1466 l 1
 1249 1466 l 1
 991 0 l 1
 818 0 l 1
 840 122 l 1
 764 34 658 -11 520 -11 c 3
 280 -11 152 157 152 398 c 3
 152 786 389 1095 707 1095 c 3
706 947 m 3
 444 947 334 657 334 418 c 3
 334 199 464 137 563 137 c 3
 711 137 916 362 916 655 c 3
 916 839 831 947 706 947 c 3
EndSplineSet
Validated: 1
Layer: 2
SplineSet
707 1095 m 3,0,1
 769 1095 769 1095 817.5 1083.5 c 128,-1,2
 866 1072 866 1072 896.5 1051 c 128,-1,3
 927 1030 927 1030 944 1010.5 c 128,-1,4
 961 991 961 991 976 966 c 1,5,-1
 1064 1466 l 1,6,-1
 1249 1466 l 1,7,-1
 991 0 l 1,8,-1
 818 0 l 1,9,-1
 840 122 l 1,10,11
 725 -11 725 -11 520 -11 c 0,12,13
 344 -11 344 -11 248 100.5 c 128,-1,14
 152 212 152 212 152 398 c 0,15,16
 152 590 152 590 224 749.5 c 128,-1,17
 296 909 296 909 423.5 1002 c 128,-1,18
 551 1095 551 1095 707 1095 c 3,0,1
706 947 m 3,19,20
 612 947 612 947 538 898.5 c 128,-1,21
 464 850 464 850 421 771.5 c 128,-1,22
 378 693 378 693 356 602.5 c 128,-1,23
 334 512 334 512 334 418 c 0,24,25
 334 340 334 340 355.5 282.5 c 128,-1,26
 377 225 377 225 412 195 c 128,-1,27
 447 165 447 165 485 151 c 128,-1,28
 523 137 523 137 563 137 c 0,29,30
 619 137 619 137 681 177.5 c 128,-1,31
 743 218 743 218 795 285.5 c 128,-1,32
 847 353 847 353 881.5 451.5 c 128,-1,33
 916 550 916 550 916 655 c 0,34,35
 916 791 916 791 858.5 869 c 128,-1,36
 801 947 801 947 706 947 c 3,19,20
EndSplineSet
EndChar

StartChar: e
Encoding: 101 101 73
Width: 1139
Flags: W
HStem: -11 148<447.374 780.841> 490 148<383 976.876> 947 148<580.813 893.792>
VStem: 155 191<235.942 485.518> 977 180<639.294 861.625>
LayerCount: 3
Fore
SplineSet
353 490 m 1
 348 458 346 429 346 402 c 3
 346 200 476 137 606 137 c 3
 756 137 863 214 921 333 c 1
 1107 333 l 1
 1030 124 834 -11 579 -11 c 3
 304 -11 155 134 155 388 c 3
 155 801 416 1095 764 1095 c 3
 1020 1095 1157 952 1157 678 c 3
 1157 621 1151 558 1139 490 c 1
 353 490 l 1
974 638 m 1
 976 656 977 675 977 695 c 3
 977 811 937 947 740 947 c 3
 570 947 423 806 383 638 c 1
 974 638 l 1
EndSplineSet
Validated: 1
Layer: 2
SplineSet
353 490 m 1,0,1
 346 445 346 445 346 402 c 0,2,3
 346 329 346 329 368 275.5 c 128,-1,4
 390 222 390 222 428 193 c 128,-1,5
 466 164 466 164 510 150.5 c 128,-1,6
 554 137 554 137 606 137 c 0,7,8
 715 137 715 137 795.5 189 c 128,-1,9
 876 241 876 241 921 333 c 1,10,-1
 1107 333 l 1,11,12
 1049 174 1049 174 908.5 81.5 c 128,-1,13
 768 -11 768 -11 579 -11 c 0,14,15
 374 -11 374 -11 264.5 93 c 128,-1,16
 155 197 155 197 155 388 c 0,17,18
 155 591 155 591 234.5 753 c 128,-1,19
 314 915 314 915 453 1005 c 128,-1,20
 592 1095 592 1095 764 1095 c 0,21,22
 956 1095 956 1095 1056.5 989 c 128,-1,23
 1157 883 1157 883 1157 678 c 0,24,25
 1157 592 1157 592 1139 490 c 1,26,-1
 353 490 l 1,0,1
974 638 m 1,27,28
 977 665 977 665 977 695 c 0,29,30
 977 733 977 733 971.5 766 c 128,-1,31
 966 799 966 799 950 833.5 c 128,-1,32
 934 868 934 868 908.5 892 c 128,-1,33
 883 916 883 916 840 931.5 c 128,-1,34
 797 947 797 947 740 947 c 0,35,36
 615 947 615 947 514.5 857 c 128,-1,37
 414 767 414 767 383 638 c 1,38,-1
 974 638 l 1,27,28
EndSplineSet
EndChar

StartChar: f
Encoding: 102 102 74
Width: 569
Flags: W
HStem: 0 21G<177 360.523> 914 148<206 338 544 697> 1367 148<632.503 880.93>
DStem2: 177 0 357 0 0.173648 0.984808<31.2567 928.072 1109.59 1384.34>
LayerCount: 3
Fore
SplineSet
734 1367 m 3
 656 1367 589 1308 562 1160 c 2
 544 1062 l 1
 723 1062 l 1
 697 914 l 1
 518 914 l 1
 357 0 l 1
 177 0 l 1
 338 914 l 1
 180 914 l 1
 206 1062 l 1
 364 1062 l 1
 384 1175 l 2
 432 1447 622 1515 754 1515 c 3
 805 1515 854 1506 902 1488 c 1
 876 1340 l 1
 820 1360 780 1367 734 1367 c 3
EndSplineSet
Validated: 1
Layer: 2
SplineSet
734 1367 m 3,0,1
 672 1367 672 1367 626.5 1316.5 c 128,-1,2
 581 1266 581 1266 562 1160 c 2,3,-1
 544 1062 l 1,4,-1
 723 1062 l 1,5,-1
 697 914 l 1,6,-1
 518 914 l 1,7,-1
 357 0 l 1,8,-1
 177 0 l 1,9,-1
 338 914 l 1,10,-1
 180 914 l 1,11,-1
 206 1062 l 1,12,-1
 364 1062 l 1,13,-1
 384 1175 l 2,14,15
 398 1253 398 1253 428.5 1314.5 c 128,-1,16
 459 1376 459 1376 496.5 1412.5 c 128,-1,17
 534 1449 534 1449 580.5 1473 c 128,-1,18
 627 1497 627 1497 669 1506 c 128,-1,19
 711 1515 711 1515 754 1515 c 0,20,21
 830 1515 830 1515 902 1488 c 1,22,-1
 876 1340 l 1,23,24
 800 1367 800 1367 734 1367 c 3,0,1
EndSplineSet
EndChar

StartChar: g
Encoding: 103 103 75
Width: 1139
Flags: W
HStem: -428 148<320.336 646.432> -11 148<416.629 710.997> 947 148<556.056 833.68> 1042 20G<1005.59 1189>
VStem: 78 182<-221.495 -74> 149 181<231.584 659.111>
DStem2: 746.962 -428 926.081 -428 0.173648 0.984808<294.959 564.577 1423.6 1512.87>
LayerCount: 3
Fore
SplineSet
1025 133 m 2xd4
 949 -296 784 -428 447 -428 c 3
 228 -428 78 -333 78 -145 c 3
 78 -123 80 -99 84 -74 c 1
 264 -74 l 1
 261 -88 260 -101 260 -114 c 3xd8
 260 -231 363 -280 472 -280 c 3
 711 -280 803 -113 845 128 c 1
 750 35 640 -11 523 -11 c 3
 280 -11 149 158 149 401 c 3
 149 789 400 1095 719 1095 c 3xe4
 860 1095 955 1049 994 974 c 1
 1009 1062 l 1
 1189 1062 l 1
 1025 133 l 2xd4
703 947 m 3xe4
 480 947 330 692 330 414 c 3
 330 252 396 137 563 137 c 3
 775 137 929 368 929 664 c 3
 929 883 800 947 703 947 c 3xe4
EndSplineSet
Validated: 1
Layer: 2
SplineSet
1025 133 m 2,0,1
 996 -28 996 -28 950.5 -135.5 c 128,-1,2
 905 -243 905 -243 833.5 -308 c 128,-1,3
 762 -373 762 -373 669.5 -400.5 c 128,-1,4
 577 -428 577 -428 447 -428 c 0,5,6
 278 -428 278 -428 178 -355 c 128,-1,7
 78 -282 78 -282 78 -145 c 0,8,9
 78 -112 78 -112 84 -74 c 1,10,-1
 264 -74 l 1,11,12
 260 -93 260 -93 260 -114 c 0,13,14
 260 -196 260 -196 321 -238 c 128,-1,15
 382 -280 382 -280 472 -280 c 0,16,17
 559 -280 559 -280 624.5 -251 c 128,-1,18
 690 -222 690 -222 733 -165.5 c 128,-1,19
 776 -109 776 -109 802 -38.5 c 128,-1,20
 828 32 828 32 845 128 c 1,21,22
 703 -11 703 -11 523 -11 c 0,23,24
 345 -11 345 -11 247 101.5 c 128,-1,25
 149 214 149 214 149 401 c 0,26,27
 149 592 149 592 224.5 751.5 c 128,-1,28
 300 911 300 911 431 1003 c 128,-1,29
 562 1095 562 1095 719 1095 c 0,30,31
 823 1095 823 1095 893.5 1063 c 128,-1,32
 964 1031 964 1031 994 974 c 1,33,-1
 1009 1062 l 1,34,-1
 1189 1062 l 1,35,-1
 1025 133 l 2,0,1
703 947 m 3,36,37
 595 947 595 947 508.5 871.5 c 128,-1,38
 422 796 422 796 376 675 c 128,-1,39
 330 554 330 554 330 414 c 0,40,41
 330 285 330 285 386.5 211 c 128,-1,42
 443 137 443 137 563 137 c 0,43,44
 667 137 667 137 751 206.5 c 128,-1,45
 835 276 835 276 882 396.5 c 128,-1,46
 929 517 929 517 929 664 c 0,47,48
 929 742 929 742 908 800 c 128,-1,49
 887 858 887 858 852 888.5 c 128,-1,50
 817 919 817 919 780 933 c 128,-1,51
 743 947 743 947 703 947 c 3,36,37
EndSplineSet
EndChar

StartChar: h
Encoding: 104 104 76
Width: 1139
Flags: W
HStem: 0 21G<135 318.518 820 1003.54> 947 148<598.188 902.623> 1446 20G<389.48 573>
VStem: 949 179<612.43 899.072>
DStem2: 135 0 315 0 0.173648 0.984808<31.2567 871.353 1016.21 1488.53> 820 0 1000 0 0.173648 0.984808<31.2567 778.607>
LayerCount: 3
Fore
SplineSet
763 947 m 3
 573 947 459 821 420 597 c 2
 315 0 l 1
 135 0 l 1
 393 1466 l 1
 573 1466 l 1
 486 970 l 1
 567 1057 688 1095 793 1095 c 3
 1056 1095 1128 934 1128 775 c 3
 1128 740 1125 706 1119 673 c 2
 1000 0 l 1
 820 0 l 1
 941 689 l 2
 946 718 949 745 949 769 c 3
 949 888 887 947 763 947 c 3
EndSplineSet
Validated: 1
Layer: 2
SplineSet
763 947 m 3,0,1
 622 947 622 947 536 857 c 128,-1,2
 450 767 450 767 420 597 c 2,3,-1
 315 0 l 1,4,-1
 135 0 l 1,5,-1
 393 1466 l 1,6,-1
 573 1466 l 1,7,-1
 486 970 l 1,8,9
 544 1032 544 1032 626.5 1063.5 c 128,-1,10
 709 1095 709 1095 793 1095 c 0,11,12
 869 1095 869 1095 928.5 1076.5 c 128,-1,13
 988 1058 988 1058 1025 1028 c 128,-1,14
 1062 998 1062 998 1085.5 956 c 128,-1,15
 1109 914 1109 914 1118.5 870 c 128,-1,16
 1128 826 1128 826 1128 775 c 0,17,18
 1128 722.5 1128 722.5 1119 673 c 2,19,-1
 1000 0 l 1,20,-1
 820 0 l 1,21,-1
 941 689 l 2,22,23
 949 735 949 735 949 769 c 0,24,25
 949 947 949 947 763 947 c 3,0,1
EndSplineSet
EndChar

StartChar: i
Encoding: 105 105 77
Width: 455
Flags: W
HStem: 0 21G<136 319.522> 1042 20G<319.478 503> 1259 207<394 538>
VStem: 136 438
DStem2: 136 0 316 0 0.173648 0.984808<31.2567 1078.34 1309.68 1488.53>
LayerCount: 3
Fore
SplineSet
358 1259 m 1
 394 1466 l 1
 574 1466 l 1
 538 1259 l 1
 358 1259 l 1
136 0 m 1
 323 1062 l 1
 503 1062 l 1
 316 0 l 1
 136 0 l 1
EndSplineSet
Validated: 1
Layer: 2
SplineSet
358 1259 m 1,0,-1
 394 1466 l 1,1,-1
 574 1466 l 1,2,-1
 538 1259 l 1,3,-1
 358 1259 l 1,0,-1
136 0 m 1,4,-1
 323 1062 l 1,5,-1
 503 1062 l 1,6,-1
 316 0 l 1,7,-1
 136 0 l 1,4,-1
EndSplineSet
EndChar

StartChar: j
Encoding: 106 106 78
Width: 455
Flags: W
HStem: -428 148<-144.964 53.007> 1042 20G<317.47 501> 1257 209<392 536>
DStem2: 58.0537 -428 238.759 -428 0.173648 0.984808<181.021 1513.02 1742.4 1923.21>
LayerCount: 3
Fore
SplineSet
356 1257 m 1
 392 1466 l 1
 572 1466 l 1
 536 1257 l 1
 356 1257 l 1
304 -58 m 2
 255 -336 129 -428 -36 -428 c 3
 -76 -428 -120 -423 -167 -412 c 1
 -142 -272 l 1
 -108 -277 -79 -280 -56 -280 c 3
 41 -280 94 -223 124 -54 c 2
 321 1062 l 1
 501 1062 l 1
 304 -58 l 2
EndSplineSet
Validated: 1
Layer: 2
SplineSet
356 1257 m 1,0,-1
 392 1466 l 1,1,-1
 572 1466 l 1,2,-1
 536 1257 l 1,3,-1
 356 1257 l 1,0,-1
304 -58 m 2,4,5
 269 -257 269 -257 182.5 -342.5 c 128,-1,6
 96 -428 96 -428 -36 -428 c 0,7,8
 -99 -428 -99 -428 -167 -412 c 1,9,-1
 -142 -272 l 1,10,11
 -88 -280 -88 -280 -56 -280 c 0,12,13
 18 -280 18 -280 60 -229 c 128,-1,14
 102 -178 102 -178 124 -54 c 2,15,-1
 321 1062 l 1,16,-1
 501 1062 l 1,17,-1
 304 -58 l 2,4,5
EndSplineSet
EndChar

StartChar: k
Encoding: 107 107 79
Width: 1024
Flags: W
HStem: 0 21G<136 319.515 784.608 1016> 1042 20G<905.759 1162> 1446 20G<390.48 574>
DStem2: 136 0 316 0 0.173648 0.984808<31.2567 458.711 670.961 1488.53> 427 630 539 543 0.769364 0.638811<0 30.5922 224.309 662.187> 687 668 539 543 0.441834 -0.897097<46.7457 646.537>
LayerCount: 3
Fore
SplineSet
136 0 m 1
 394 1466 l 1
 574 1466 l 1
 427 630 l 1
 929 1062 l 1
 1162 1062 l 1
 687 668 l 1
 1016 0 l 1
 794 0 l 1
 539 543 l 1
 390 421 l 1
 316 0 l 1
 136 0 l 1
EndSplineSet
Validated: 1
Layer: 2
SplineSet
136 0 m 1,0,-1
 394 1466 l 1,1,-1
 574 1466 l 1,2,-1
 427 630 l 1,3,-1
 929 1062 l 1,4,-1
 1162 1062 l 1,5,-1
 687 668 l 1,6,-1
 1016 0 l 1,7,-1
 794 0 l 1,8,-1
 539 543 l 1,9,-1
 390 421 l 1,10,-1
 316 0 l 1,11,-1
 136 0 l 1,0,-1
EndSplineSet
EndChar

StartChar: l
Encoding: 108 108 80
Width: 455
Flags: W
HStem: 0 21G<131 314.52> 1446 20G<385.48 569>
VStem: 131 438
DStem2: 131 0 311 0 0.173648 0.984808<31.2567 1488.53>
LayerCount: 3
Fore
SplineSet
131 0 m 1
 389 1466 l 1
 569 1466 l 1
 311 0 l 1
 131 0 l 1
EndSplineSet
Validated: 1
Layer: 2
SplineSet
131 0 m 1,0,-1
 389 1466 l 1,1,-1
 569 1466 l 1,2,-1
 311 0 l 1,3,-1
 131 0 l 1,0,-1
EndSplineSet
EndChar

StartChar: m
Encoding: 109 109 81
Width: 1706
Flags: W
HStem: 0 21G<135 318.521 764 947.533 1393 1576.53> 947 148<627.006 864.986 1251.52 1492.74> 1042 20G<318.478 502>
VStem: 1525 188<660.634 917.133>
DStem2: 135 0 315 0 0.173648 0.984808<31.2567 873.361 984.817 1078.34> 764 0 944 0 0.173648 0.984808<31.2567 802.891> 1393 0 1573 0 0.173648 0.984808<31.2567 802.484>
LayerCount: 3
Fore
SplineSet
889 707 m 2xd0
 895 739 897 768 897 793 c 3
 897 909 838 947 745 947 c 0xd0
 544 947 454 791 415 568 c 2
 315 0 l 1
 135 0 l 1
 322 1062 l 1
 502 1062 l 1xb0
 481 939 l 1
 518 972 618 1095 811 1095 c 3
 986 1095 1057 1013 1076 909 c 1
 1182 1033 1303 1095 1438 1095 c 3
 1606 1095 1713 1021 1713 840 c 3
 1713 809 1710 774 1703 736 c 2
 1573 0 l 1
 1393 0 l 1
 1514 686 l 2
 1521 727 1525 763 1525 793 c 3
 1525 902 1477 947 1372 947 c 3
 1282 947 1105 910 1056 634 c 2
 944 0 l 1
 764 0 l 1
 889 707 l 2xd0
EndSplineSet
Validated: 1
Layer: 2
SplineSet
889 707 m 2,0,1
 897 750 897 750 897 793 c 0,2,3
 897 876 897 876 858 911.5 c 128,-1,4
 819 947 819 947 745 947 c 0,5,6
 672 947 672 947 615 920 c 128,-1,7
 558 893 558 893 519 840.5 c 128,-1,8
 480 788 480 788 455 721.5 c 128,-1,9
 430 655 430 655 415 568 c 2,10,-1
 315 0 l 1,11,-1
 135 0 l 1,12,-1
 322 1062 l 1,13,-1
 502 1062 l 1,14,-1
 481 939 l 2,15,16
 483 941 483 941 504.5 961.5 c 128,-1,17
 526 982 526 982 540.5 995 c 128,-1,18
 555 1008 555 1008 587 1029 c 128,-1,19
 619 1050 619 1050 648.5 1062.5 c 128,-1,20
 678 1075 678 1075 721.5 1085 c 128,-1,21
 765 1095 765 1095 811 1095 c 0,22,23
 1042 1095 1042 1095 1076 909 c 1,24,25
 1235 1095 1235 1095 1438 1095 c 0,26,27
 1713 1095 1713 1095 1713 840 c 0,28,29
 1713 790 1713 790 1703 736 c 2,30,-1
 1573 0 l 1,31,-1
 1393 0 l 1,32,-1
 1514 686 l 2,33,34
 1525 750 1525 750 1525 793 c 0,35,36
 1525 874 1525 874 1488 910.5 c 128,-1,37
 1451 947 1451 947 1372 947 c 0,38,39
 1340 947 1340 947 1309 941.5 c 128,-1,40
 1278 936 1278 936 1236.5 916 c 128,-1,41
 1195 896 1195 896 1162 864 c 128,-1,42
 1129 832 1129 832 1099.5 772.5 c 128,-1,43
 1070 713 1070 713 1056 634 c 2,44,-1
 944 0 l 1,45,-1
 764 0 l 1,46,-1
 889 707 l 2,0,1
EndSplineSet
EndChar

StartChar: n
Encoding: 110 110 82
Width: 1139
Flags: W
HStem: 0 21G<135 318.518 820 1003.54> 947 148<598.188 902.623> 1044 20G<319.466 503>
VStem: 949 179<612.43 899.072>
DStem2: 135 0 315 0 0.173648 0.984808<31.2567 871.353 1016.21 1080.48> 820 0 1000 0 0.173648 0.984808<31.2567 778.607>
LayerCount: 3
Fore
SplineSet
763 947 m 3xd0
 573 947 459 821 420 597 c 2
 315 0 l 1
 135 0 l 1
 323 1064 l 1
 503 1064 l 1xb0
 486 970 l 1
 567 1057 688 1095 793 1095 c 3
 1056 1095 1128 934 1128 775 c 3
 1128 740 1125 706 1119 673 c 2
 1000 0 l 1
 820 0 l 1
 941 689 l 2
 946 718 949 745 949 769 c 3
 949 888 887 947 763 947 c 3xd0
EndSplineSet
Validated: 1
Layer: 2
SplineSet
763 947 m 3,0,1
 622 947 622 947 536 857 c 128,-1,2
 450 767 450 767 420 597 c 2,3,-1
 315 0 l 1,4,-1
 135 0 l 1,5,-1
 323 1064 l 1,6,-1
 503 1064 l 1,7,-1
 486 970 l 1,8,9
 544 1032 544 1032 626.5 1063.5 c 128,-1,10
 709 1095 709 1095 793 1095 c 0,11,12
 869 1095 869 1095 928.5 1076.5 c 128,-1,13
 988 1058 988 1058 1025 1028 c 128,-1,14
 1062 998 1062 998 1085.5 956 c 128,-1,15
 1109 914 1109 914 1118.5 870 c 128,-1,16
 1128 826 1128 826 1128 775 c 0,17,18
 1128 722.5 1128 722.5 1119 673 c 2,19,-1
 1000 0 l 1,20,-1
 820 0 l 1,21,-1
 941 689 l 2,22,23
 949 735 949 735 949 769 c 0,24,25
 949 947 949 947 763 947 c 3,0,1
EndSplineSet
EndChar

StartChar: o
Encoding: 111 111 83
Width: 1139
Flags: W
HStem: -11 148<435.217 760.443> 947 148<571.253 878.498>
VStem: 149 183<247.512 660.667> 990 182<416.54 835.958>
LayerCount: 3
Fore
SplineSet
564 -11 m 3
 292 -11 149 137 149 391 c 3
 149 806 404 1095 759 1095 c 3
 1023 1095 1172 936 1172 683 c 3
 1172 189 836 -11 564 -11 c 3
733 947 m 3
 499 947 332 716 332 418 c 3
 332 189 482 137 590 137 c 3
 824 137 990 359 990 657 c 3
 990 884 842 947 733 947 c 3
EndSplineSet
Validated: 1
Layer: 2
SplineSet
564 -11 m 3,0,1
 362 -11 362 -11 255.5 94 c 128,-1,2
 149 199 149 199 149 391 c 0,3,4
 149 596 149 596 227 756.5 c 128,-1,5
 305 917 305 917 444 1006 c 128,-1,6
 583 1095 583 1095 759 1095 c 0,7,8
 955 1095 955 1095 1063.5 985 c 128,-1,9
 1172 875 1172 875 1172 683 c 0,10,11
 1172 540 1172 540 1134.5 421.5 c 128,-1,12
 1097 303 1097 303 1036.5 224.5 c 128,-1,13
 976 146 976 146 895.5 91.5 c 128,-1,14
 815 37 815 37 731.5 13 c 128,-1,15
 648 -11 648 -11 564 -11 c 3,0,1
733 947 m 3,16,17
 559 947 559 947 445.5 795 c 128,-1,18
 332 643 332 643 332 418 c 0,19,20
 332 337 332 337 356.5 278.5 c 128,-1,21
 381 220 381 220 421.5 191 c 128,-1,22
 462 162 462 162 503.5 149.5 c 128,-1,23
 545 137 545 137 590 137 c 0,24,25
 705 137 705 137 796.5 204.5 c 128,-1,26
 888 272 888 272 939 390.5 c 128,-1,27
 990 509 990 509 990 657 c 0,28,29
 990 722 990 722 973.5 774 c 128,-1,30
 957 826 957 826 931 857.5 c 128,-1,31
 905 889 905 889 870.5 910 c 128,-1,32
 836 931 836 931 802 939 c 128,-1,33
 768 947 768 947 733 947 c 3,16,17
EndSplineSet
EndChar

StartChar: p
Encoding: 112 112 84
Width: 1139
Flags: W
HStem: -11 148<479.481 735.318> 947 148<609.936 874.641> 1042 20G<305.474 489>
VStem: 970 181<420.187 842.911>
DStem2: 53 -390 233 -390 0.173648 0.984808<31.2567 562.287 1414.24 1474.39>
LayerCount: 3
Fore
SplineSet
591 -11 m 3xd0
 473 -11 384 38 325 133 c 1
 233 -390 l 1
 53 -390 l 1
 309 1062 l 1
 489 1062 l 1xb0
 473 972 l 1
 507 999 600 1095 777 1095 c 3
 1026 1095 1151 927 1151 682 c 3
 1151 294 909 -11 591 -11 c 3xd0
733 947 m 3xd0
 615 947 388 781 388 435 c 3
 388 271 460 137 598 137 c 3
 734 137 970 302 970 659 c 3
 970 813 906 947 733 947 c 3xd0
EndSplineSet
Validated: 1
Layer: 2
SplineSet
591 -11 m 3,0,1
 414 -11 414 -11 325 133 c 1,2,-1
 233 -390 l 1,3,-1
 53 -390 l 1,4,-1
 309 1062 l 1,5,-1
 489 1062 l 1,6,-1
 473 972 l 2,7,8
 475 973 475 973 491 986.5 c 128,-1,9
 507 1000 507 1000 518 1008.5 c 128,-1,10
 529 1017 529 1017 550.5 1031.5 c 128,-1,11
 572 1046 572 1046 594 1055.5 c 128,-1,12
 616 1065 616 1065 644.5 1075 c 128,-1,13
 673 1085 673 1085 707 1090 c 128,-1,14
 741 1095 741 1095 777 1095 c 0,15,16
 959 1095 959 1095 1055 983 c 128,-1,17
 1151 871 1151 871 1151 682 c 0,18,19
 1151 491 1151 491 1078 332 c 128,-1,20
 1005 173 1005 173 876 81 c 128,-1,21
 747 -11 747 -11 591 -11 c 3,0,1
733 947 m 3,22,23
 696 947 696 947 651.5 927.5 c 128,-1,24
 607 908 607 908 560.5 866 c 128,-1,25
 514 824 514 824 475.5 765.5 c 128,-1,26
 437 707 437 707 412.5 620.5 c 128,-1,27
 388 534 388 534 388 435 c 0,28,29
 388 306 388 306 443 221.5 c 128,-1,30
 498 137 498 137 598 137 c 0,31,32
 640 137 640 137 688.5 156.5 c 128,-1,33
 737 176 737 176 787.5 218.5 c 128,-1,34
 838 261 838 261 878.5 320.5 c 128,-1,35
 919 380 919 380 944.5 468.5 c 128,-1,36
 970 557 970 557 970 659 c 0,37,38
 970 719 970 719 957 769.5 c 128,-1,39
 944 820 944 820 917 860.5 c 128,-1,40
 890 901 890 901 843 924 c 128,-1,41
 796 947 796 947 733 947 c 3,22,23
EndSplineSet
EndChar

StartChar: q
Encoding: 113 113 85
Width: 1139
Flags: W
HStem: -11 148<447.762 714.101> 947 148<578.227 851.547> 1042 20G<1011.44 1195>
VStem: 168 183<239.9 669.134>
DStem2: 759 -390 939 -390 0.173648 0.984808<31.2567 531.03 1382.98 1474.39>
LayerCount: 3
Fore
SplineSet
739 1095 m 3xd0
 916 1095 975 999 999 972 c 1
 1015 1062 l 1
 1195 1062 l 1xb0
 939 -390 l 1
 759 -390 l 1
 851 133 l 1
 758 38 653 -11 535 -11 c 3
 296 -11 168 155 168 396 c 3
 168 786 414 1095 739 1095 c 3xd0
580 137 m 3
 778 137 936 405 936 671 c 3
 936 881 822 947 731 947 c 3xd0
 486 947 351 680 351 420 c 3
 351 201 479 137 580 137 c 3
EndSplineSet
Validated: 1
Layer: 2
SplineSet
739 1095 m 3,0,1
 775 1095 775 1095 807 1090 c 128,-1,2
 839 1085 839 1085 864 1075 c 128,-1,3
 889 1065 889 1065 907.5 1055.5 c 128,-1,4
 926 1046 926 1046 942.5 1031 c 128,-1,5
 959 1016 959 1016 967 1008.5 c 128,-1,6
 975 1001 975 1001 986.5 987 c 128,-1,7
 998 973 998 973 999 972 c 2,8,-1
 1015 1062 l 1,9,-1
 1195 1062 l 1,10,-1
 939 -390 l 1,11,-1
 759 -390 l 1,12,-1
 851 133 l 1,13,14
 710 -11 710 -11 535 -11 c 128,-1,15
 360 -11 360 -11 264 100 c 128,-1,16
 168 211 168 211 168 396 c 0,17,18
 168 589 168 589 242.5 749 c 128,-1,19
 317 909 317 909 448 1002 c 128,-1,20
 579 1095 579 1095 739 1095 c 3,0,1
580 137 m 3,21,22
 676 137 676 137 759 215 c 128,-1,23
 842 293 842 293 889 416 c 128,-1,24
 936 539 936 539 936 671 c 0,25,26
 936 814 936 814 874 880.5 c 128,-1,27
 812 947 812 947 731 947 c 0,28,29
 642 947 642 947 568.5 901.5 c 128,-1,30
 495 856 495 856 448.5 781 c 128,-1,31
 402 706 402 706 376.5 612.5 c 128,-1,32
 351 519 351 519 351 420 c 0,33,34
 351 342 351 342 372 284 c 128,-1,35
 393 226 393 226 428 195.5 c 128,-1,36
 463 165 463 165 501 151 c 128,-1,37
 539 137 539 137 580 137 c 3,21,22
EndSplineSet
EndChar

StartChar: r
Encoding: 114 114 86
Width: 682
Flags: W
HStem: 0 21G<133 316.513> 947 148<582.107 832.82> 1042 20G<316.478 500>
DStem2: 133 0 313 0 0.173648 0.984808<31.2567 880.018 1018.18 1078.34>
LayerCount: 3
Fore
SplineSet
685 947 m 3xc0
 562 947 457 821 414 575 c 2
 313 0 l 1
 133 0 l 1
 320 1062 l 1
 500 1062 l 1xa0
 484 972 l 1
 521 1008 609 1095 726 1095 c 3
 791 1095 847 1079 894 1046 c 1
 808 908 l 1
 769 934 728 947 685 947 c 3xc0
EndSplineSet
Validated: 1
Layer: 2
SplineSet
685 947 m 3,0,1
 590 947 590 947 518 851 c 128,-1,2
 446 755 446 755 414 575 c 2,3,-1
 313 0 l 1,4,-1
 133 0 l 1,5,-1
 320 1062 l 1,6,-1
 500 1062 l 1,7,-1
 484 972 l 1,8,9
 610 1095 610 1095 726 1095 c 0,10,11
 824 1095 824 1095 894 1046 c 1,12,-1
 808 908 l 1,13,14
 749.5 947 749.5 947 685 947 c 3,0,1
EndSplineSet
EndChar

StartChar: s
Encoding: 115 115 87
Width: 1024
Flags: W
HStem: -11 148<375.677 715.153> 947 148<498.379 815.695>
VStem: 123 181<209.556 358> 225 184<691.72 865.762> 821 187<227.177 411.134> 865 180<769 895.072>
LayerCount: 3
Fore
SplineSet
540 137 m 0xe8
 681 137 821 216 821 330 c 3xe8
 821 419 719 446 600 470 c 0
 404 509 225 541 225 724 c 3
 225 976 451 1095 677 1095 c 3
 981 1095 1045 928 1045 816 c 3
 1045 799 1043 783 1041 769 c 1
 865 769 l 1
 865 880 814 947 666 947 c 3
 542 947 409 883 409 763 c 3xd4
 409 688 495 666 630 639 c 0
 816 603 1008 574 1008 385 c 3
 1008 137 774 -11 515 -11 c 3
 266 -11 123 100 123 305 c 3
 123 322 124 340 126 358 c 1
 304 358 l 1
 304 217 373 137 540 137 c 0xe8
EndSplineSet
Validated: 1
Layer: 2
SplineSet
540 137 m 0,0,1
 650 137 650 137 735.5 192 c 128,-1,2
 821 247 821 247 821 330 c 0,3,4
 821 362 821 362 804.5 385.5 c 128,-1,5
 788 409 788 409 753.5 425 c 128,-1,6
 719 441 719 441 686 450 c 128,-1,7
 653 459 653 459 600 470 c 0,8,9
 429.684012428 503.88940569 429.684012428 503.88940569 367.355745451 529.863922271 c 0,10,11
 241.866301812 582.160060003 241.866301812 582.160060003 227.161427154 690.646014797 c 0,12,13
 225 706.592052692 225 706.592052692 225 724 c 0,14,15
 225 815 225 815 263.5 887.5 c 128,-1,16
 302 960 302 960 366.5 1004.5 c 128,-1,17
 431 1049 431 1049 510.5 1072 c 128,-1,18
 590 1095 590 1095 677 1095 c 128,-1,19
 764 1095 764 1095 831.5 1076.5 c 128,-1,20
 899 1058 899 1058 938.5 1029.5 c 128,-1,21
 978 1001 978 1001 1003 962.5 c 128,-1,22
 1028 924 1028 924 1036.5 888.5 c 128,-1,23
 1045 853 1045 853 1045 816 c 0,24,25
 1045 797 1045 797 1041 769 c 1,26,-1
 865 769 l 1,27,28
 865 857 865 857 819 902 c 128,-1,29
 773 947 773 947 666 947 c 0,30,31
 565 947 565 947 487 897.5 c 128,-1,32
 409 848 409 848 409 763 c 0,33,34
 409 736 409 736 423 716.5 c 128,-1,35
 437 697 437 697 470.5 682.5 c 128,-1,36
 504 668 504 668 537.5 659.5 c 128,-1,37
 571 651 571 651 630 639 c 0,38,39
 793.252209566 607.402798148 793.252209566 607.402798148 850.680154464 585.799826207 c 0,40,41
 983.008408709 536.021211133 983.008408709 536.021211133 1003.7371578 430.975899719 c 0,42,43
 1007.90802224 408.774590057 1007.90802224 408.774590057 1008 385 c 0,44,45
 1008 265 1008 265 938.5 173.5 c 128,-1,46
 869 82 869 82 757.5 35.5 c 128,-1,47
 646 -11 646 -11 515 -11 c 0,48,49
 327 -11 327 -11 225 70.5 c 128,-1,50
 123 152 123 152 123 305 c 0,51,52
 123 331 123 331 126 358 c 1,53,-1
 304 358 l 1,54,55
 304 137 304 137 540 137 c 0,0,1
EndSplineSet
EndChar

StartChar: t
Encoding: 116 116 88
Width: 569
Flags: W
HStem: -11 148<394.198 552.465> 914 148<205 328 534 658>
VStem: 206 183<144.491 470.867>
DStem2: 164.87 -11 345.044 -11 0.173648 0.984808<262.552 939.274 1120.8 1466.37>
LayerCount: 3
Fore
SplineSet
399 295 m 2
 394 265 389 238 389 215 c 3
 389 167 408 137 473 137 c 3
 490 137 517 140 554 145 c 1
 555 4 l 1
 505 -6 456 -11 409 -11 c 3
 255 -11 206 50 206 168 c 3
 206 209 212 258 222 313 c 2
 328 914 l 1
 179 914 l 1
 205 1062 l 1
 354 1062 l 1
 420 1433 l 1
 600 1433 l 1
 534 1062 l 1
 684 1062 l 1
 658 914 l 1
 508 914 l 1
 399 295 l 2
EndSplineSet
Validated: 1
Layer: 2
SplineSet
399 295 m 2,0,1
 389 235 389 235 389 215 c 0,2,3
 389 176 389 176 408 156.5 c 128,-1,4
 427 137 427 137 473 137 c 0,5,6
 495 137 495 137 554 145 c 1,7,-1
 555 4 l 1,8,9
 480 -11 480 -11 409 -11 c 0,10,11
 297 -11 297 -11 251.5 32.5 c 128,-1,12
 206 76 206 76 206 168 c 0,13,14
 206 225 206 225 222 313 c 2,15,-1
 328 914 l 1,16,-1
 179 914 l 1,17,-1
 205 1062 l 1,18,-1
 354 1062 l 1,19,-1
 420 1433 l 1,20,-1
 600 1433 l 1,21,-1
 534 1062 l 1,22,-1
 684 1062 l 1,23,-1
 658 914 l 1,24,-1
 508 914 l 1,25,-1
 399 295 l 2,0,1
EndSplineSet
EndChar

StartChar: u
Encoding: 117 117 89
Width: 1139
Flags: W
HStem: -11 148<410.539 732.354> 1042 20G<287.467 471 972.478 1156>
VStem: 167 181<197.625 609.625>
DStem2: 101.59 -11 282.059 -11 0.173648 0.984808<378.594 1089.59> 787.06 -11 967.06 -11 0.173648 0.984808<42.4264 75.1227 228.92 1089.51>
LayerCount: 3
Fore
SplineSet
354 397 m 2
 350 372 348 350 348 329 c 3
 348 177 459 137 558 137 c 0
 728 137 828 222 858 392 c 2
 976 1062 l 1
 1156 1062 l 1
 969 0 l 1
 789 0 l 1
 800 63 l 1
 749 15 660 -11 539 -11 c 3
 291 -11 167 120 167 316 c 3
 167 346 170 378 176 411 c 2
 291 1062 l 1
 471 1062 l 1
 354 397 l 2
EndSplineSet
Validated: 1
Layer: 2
SplineSet
354 397 m 2,0,1
 348 359 348 359 348 329 c 0,2,3
 348 275 348 275 366.5 235.5 c 128,-1,4
 385 196 385 196 416.5 175.5 c 128,-1,5
 448 155 448 155 483 146 c 128,-1,6
 518 137 518 137 558 137 c 0,7,8
 813 137 813 137 858 392 c 2,9,-1
 976 1062 l 1,10,-1
 1156 1062 l 1,11,-1
 969 0 l 1,12,-1
 789 0 l 1,13,-1
 800 63 l 1,14,15
 721 -11 721 -11 539 -11 c 128,-1,16
 357 -11 357 -11 262 77 c 128,-1,17
 167 165 167 165 167 316 c 0,18,19
 167 362 167 362 176 411 c 2,20,-1
 291 1062 l 1,21,-1
 471 1062 l 1,22,-1
 354 397 l 2,0,1
EndSplineSet
EndChar

StartChar: v
Encoding: 118 118 90
Width: 1024
Flags: W
HStem: 0 21G<424.932 610.073> 1042 20G<213 407.136 986.155 1187>
DStem2: 403 1062 213 1062 0.199309 -0.979937<0 809.776> 567 269 599 0 0.484383 0.874856<0 902.046>
LayerCount: 3
Fore
SplineSet
429 0 m 1
 213 1062 l 1
 403 1062 l 1
 567 269 l 1
 997 1062 l 1
 1187 1062 l 1
 599 0 l 1
 429 0 l 1
EndSplineSet
Validated: 1
Layer: 2
SplineSet
429 0 m 1,0,-1
 213 1062 l 1,1,-1
 403 1062 l 1,2,-1
 567 269 l 1,3,-1
 997 1062 l 1,4,-1
 1187 1062 l 1,5,-1
 599 0 l 1,6,-1
 429 0 l 1,0,-1
EndSplineSet
EndChar

StartChar: w
Encoding: 119 119 91
Width: 1479
Flags: W
HStem: 0 21G<328.401 527.935 972.962 1172.17> 1042 20G<193 381.157 825.98 1021.28 1466.1 1650>
DStem2: 379 1062 193 1062 0.12886 -0.991663<0 820.536> 467 246 519 0 0.411108 0.911587<0 691.948> 1019 1062 884 817 0.110699 -0.993854<228.55 821.28> 1112 246 1163 0 0.416832 0.908984<0 893.041>
LayerCount: 3
Fore
SplineSet
331 0 m 1
 193 1062 l 1
 379 1062 l 1
 467 246 l 1
 835 1062 l 1
 1019 1062 l 1
 1112 246 l 1
 1475 1062 l 1
 1650 1062 l 1
 1163 0 l 1
 975 0 l 1
 948 265 l 1
 908 623 886 807 884 817 c 1
 519 0 l 1
 331 0 l 1
EndSplineSet
Validated: 1
Layer: 2
SplineSet
331 0 m 1,0,-1
 193 1062 l 1,1,-1
 379 1062 l 1,2,-1
 467 246 l 1,3,-1
 835 1062 l 1,4,-1
 1019 1062 l 1,5,-1
 1112 246 l 1,6,-1
 1475 1062 l 1,7,-1
 1650 1062 l 1,8,-1
 1163 0 l 1,9,-1
 975 0 l 1,10,-1
 948 265 l 1,11,12
 889 791 889 791 884 817 c 1,13,-1
 519 0 l 1,14,-1
 331 0 l 1,0,-1
EndSplineSet
EndChar

StartChar: x
Encoding: 120 120 92
Width: 1024
Flags: W
HStem: 0 21G<15 249.516 778.024 1009> 1042 20G<231 464.967 934.957 1168>
DStem2: 15 0 233 0 0.661995 0.749508<144.315 144.315 921.328 1416.93> 706 562 579 419 0.464474 -0.885587<67.6506 535.787>
LayerCount: 3
Fore
SplineSet
15 0 m 1
 493 552 l 1
 231 1062 l 1
 456 1062 l 1
 621 694 l 1
 953 1062 l 1
 1168 1062 l 1
 706 562 l 1
 1009 0 l 1
 788 0 l 1
 579 419 l 1
 233 0 l 1
 15 0 l 1
EndSplineSet
Validated: 1
Layer: 2
SplineSet
15 0 m 1,0,-1
 493 552 l 1,1,-1
 231 1062 l 1,2,-1
 456 1062 l 1,3,-1
 621 694 l 1,4,-1
 953 1062 l 1,5,-1
 1168 1062 l 1,6,-1
 706 562 l 1,7,-1
 1009 0 l 1,8,-1
 788 0 l 1,9,-1
 579 419 l 1,10,-1
 233 0 l 1,11,-1
 15 0 l 1,0,-1
EndSplineSet
EndChar

StartChar: y
Encoding: 121 121 93
Width: 1024
Flags: W
HStem: -428 148<60 309.805> 1042 20G<220 417.391 1002.48 1193>
VStem: 220 194<991.382 1062>
DStem2: 560 201 602 -1 0.485922 0.874002<0 972.639>
LayerCount: 3
Fore
SplineSet
54 -415 m 1
 60 -266 l 1
 92 -275 128 -280 165 -280 c 3
 363 -280 412 -111 436 -2 c 1
 220 1062 l 1
 414 1062 l 1
 560 201 l 1
 1013 1062 l 1
 1193 1062 l 1
 602 -1 l 1
 551 -181 457 -428 164 -428 c 3
 122 -428 82 -427 54 -415 c 1
EndSplineSet
Validated: 1
Layer: 2
SplineSet
54 -415 m 1,0,-1
 60 -266 l 1,1,2
 110 -280 110 -280 165 -280 c 0,3,4
 222 -280 222 -280 267 -260.5 c 128,-1,5
 312 -241 312 -241 339 -214.5 c 128,-1,6
 366 -188 366 -188 387 -146 c 128,-1,7
 408 -104 408 -104 417.5 -73.5 c 128,-1,8
 427 -43 427 -43 436 -2 c 1,9,-1
 220 1062 l 1,10,-1
 414 1062 l 1,11,-1
 560 201 l 1,12,-1
 1013 1062 l 1,13,-1
 1193 1062 l 1,14,-1
 602 -1 l 1,15,16
 589 -46 589 -46 577 -82 c 128,-1,17
 565 -118 565 -118 544 -164 c 128,-1,18
 523 -210 523 -210 500 -245 c 128,-1,19
 477 -280 477 -280 443 -316 c 128,-1,20
 409 -352 409 -352 370 -375.5 c 128,-1,21
 331 -399 331 -399 278 -413.5 c 128,-1,22
 225 -428 225 -428 164 -428 c 0,23,24
 84 -428 84 -428 54 -415 c 1,0,-1
EndSplineSet
EndChar

StartChar: z
Encoding: 122 122 94
Width: 1024
Flags: W
HStem: 0 148<288 980> 914 148<247 877>
DStem2: 66 148 288 148 0.731174 0.682191<162.321 1115.54>
LayerCount: 3
Fore
SplineSet
40 0 m 1
 66 148 l 1
 877 914 l 1
 221 914 l 1
 247 1062 l 1
 1135 1062 l 1
 1109 914 l 1
 288 148 l 1
 1006 148 l 1
 980 0 l 1
 40 0 l 1
EndSplineSet
Validated: 1
Layer: 2
SplineSet
40 0 m 1,0,-1
 66 148 l 1,1,-1
 877 914 l 1,2,-1
 221 914 l 1,3,-1
 247 1062 l 1,4,-1
 1135 1062 l 1,5,-1
 1109 914 l 1,6,-1
 288 148 l 1,7,-1
 1006 148 l 1,8,-1
 980 0 l 1,9,-1
 40 0 l 1,0,-1
EndSplineSet
EndChar

StartChar: braceleft
Encoding: 123 123 95
Width: 684
Flags: W
HStem: -431 148<442.447 560> 456 148<164 252.59> 1343 148<709.624 873>
VStem: 242 183<-270.784 127.6> 302 178<-55.7335 408.932>
CounterMasks: 1 e0
LayerCount: 3
Fore
SplineSet
242 -207 m 3xf0
 242 -88 302 161 302 279 c 3
 302 386 262 439 137 456 c 1
 164 604 l 1
 362 626 398 757 440 998 c 0
 499 1335 543 1491 843 1491 c 2
 899 1491 l 1
 873 1343 l 1
 842 1343 l 2
 698 1343 676 1330 613 975 c 0
 562 685 504 620 328 530 c 1
 436 477 480 407 480 278 c 3xe8
 480 170 425 -93 425 -172 c 3
 425 -268 463 -283 555 -283 c 2
 586 -283 l 1
 560 -431 l 1
 504 -431 l 2
 301 -431 242 -353 242 -207 c 3xf0
EndSplineSet
Validated: 1
Layer: 2
SplineSet
242 -207 m 3,0,1
 242 -147 242 -147 272 36.5 c 128,-1,2
 302 220 302 220 302 279 c 0,3,4
 302 361 302 361 265.5 402.5 c 128,-1,5
 229 444 229 444 137 456 c 1,6,-1
 164 604 l 1,7,8
 206 609 206 609 239.5 621 c 128,-1,9
 273 633 273 633 298 649 c 128,-1,10
 323 665 323 665 342.5 693 c 128,-1,11
 362 721 362 721 375.5 748 c 128,-1,12
 389 775 389 775 401.5 818.5 c 128,-1,13
 414 862 414 862 422 900.5 c 128,-1,14
 430 939 430 939 440 998 c 0,15,16
 453 1070 453 1070 462 1116.5 c 128,-1,17
 471 1163 471 1163 485.5 1216.5 c 128,-1,18
 500 1270 500 1270 514.5 1302.5 c 128,-1,19
 529 1335 529 1335 551 1370 c 128,-1,20
 573 1405 573 1405 599.5 1424.5 c 128,-1,21
 626 1444 626 1444 661.5 1461 c 128,-1,22
 697 1478 697 1478 742 1484.5 c 128,-1,23
 787 1491 787 1491 843 1491 c 2,24,-1
 899 1491 l 1,25,-1
 873 1343 l 1,26,-1
 842 1343 l 2,27,28
 800 1343 800 1343 779 1341 c 128,-1,29
 758 1339 758 1339 733.5 1326 c 128,-1,30
 709 1313 709 1313 697 1292.5 c 128,-1,31
 685 1272 685 1272 669 1227.5 c 128,-1,32
 653 1183 653 1183 641.5 1126 c 128,-1,33
 630 1069 630 1069 613 975 c 0,34,35
 594 865 594 865 573 796 c 128,-1,36
 552 727 552 727 517 677 c 128,-1,37
 482 627 482 627 440.5 597 c 128,-1,38
 399 567 399 567 328 530 c 1,39,40
 409 490 409 490 444.5 432 c 128,-1,41
 480 374 480 374 480 278 c 0,42,43
 480 220 480 220 452.5 42 c 128,-1,44
 425 -136 425 -136 425 -172 c 0,45,46
 425 -241 425 -241 453.5 -262 c 128,-1,47
 482 -283 482 -283 555 -283 c 2,48,-1
 586 -283 l 1,49,-1
 560 -431 l 1,50,-1
 504 -431 l 2,51,52
 358 -431 358 -431 300 -376.5 c 128,-1,53
 242 -322 242 -322 242 -207 c 3,0,1
EndSplineSet
EndChar

StartChar: bar
Encoding: 124 124 96
Width: 532
Flags: W
VStem: 100 519
DStem2: 100 -431 280 -431 0.173648 0.984808<31.2567 1951.67>
LayerCount: 3
Fore
SplineSet
100 -431 m 1
 439 1491 l 1
 619 1491 l 1
 280 -431 l 1
 100 -431 l 1
EndSplineSet
Validated: 1
Layer: 2
SplineSet
100 -431 m 1,0,-1
 439 1491 l 1,1,-1
 619 1491 l 1,2,-1
 280 -431 l 1,3,-1
 100 -431 l 1,0,-1
EndSplineSet
EndChar

StartChar: braceright
Encoding: 125 125 97
Width: 684
Flags: W
HStem: -431 148<-2 161.513> 456 148<623.254 707> 1343 148<311 436.297>
VStem: 393 178<649.854 1126.5> 449 181<940.441 1331.87>
CounterMasks: 1 e0
LayerCount: 3
Fore
SplineSet
630 1271 m 3xe8
 630 1157 571 914 571 788 c 3
 571 680 609 618 734 604 c 1
 707 456 l 1
 502 430 476 315 429 49 c 0
 374 -262 328 -431 28 -431 c 2
 -28 -431 l 1
 -2 -283 l 1
 29 -283 l 2
 173 -283 196 -248 254 80 c 0
 301 344 362 454 542 530 c 1
 439 594 393 646 393 775 c 3xf0
 393 880 449 1165 449 1238 c 3
 449 1338 409 1343 316 1343 c 2
 285 1343 l 1
 311 1491 l 1
 367 1491 l 2
 569 1491 630 1420 630 1271 c 3xe8
EndSplineSet
Validated: 1
Layer: 2
SplineSet
630 1271 m 3,0,1
 630 1216 630 1216 600.5 1034 c 128,-1,2
 571 852 571 852 571 788 c 0,3,4
 571 703 571 703 607.5 658.5 c 128,-1,5
 644 614 644 614 734 604 c 1,6,-1
 707 456 l 1,7,8
 669 451 669 451 638.5 442.5 c 128,-1,9
 608 434 608 434 583.5 418 c 128,-1,10
 559 402 559 402 541.5 386.5 c 128,-1,11
 524 371 524 371 509 342 c 128,-1,12
 494 313 494 313 484 288.5 c 128,-1,13
 474 264 474 264 463.5 220 c 128,-1,14
 453 176 453 176 446.5 142 c 128,-1,15
 440 108 440 108 429 49 c 0,16,17
 419 -10 419 -10 411 -49.5 c 128,-1,18
 403 -89 403 -89 391 -136.5 c 128,-1,19
 379 -184 379 -184 367 -214.5 c 128,-1,20
 355 -245 355 -245 338 -279 c 128,-1,21
 321 -313 321 -313 300.5 -334 c 128,-1,22
 280 -355 280 -355 253 -375.5 c 128,-1,23
 226 -396 226 -396 193 -407 c 128,-1,24
 160 -418 160 -418 119 -424.5 c 128,-1,25
 78 -431 78 -431 28 -431 c 2,26,-1
 -28 -431 l 1,27,-1
 -2 -283 l 1,28,-1
 29 -283 l 2,29,30
 68 -283 68 -283 92 -279.5 c 128,-1,31
 116 -276 116 -276 138.5 -261 c 128,-1,32
 161 -246 161 -246 174 -225 c 128,-1,33
 187 -204 187 -204 201.5 -159 c 128,-1,34
 216 -114 216 -114 227 -61 c 128,-1,35
 238 -8 238 -8 254 80 c 0,36,37
 290 282 290 282 350 378 c 128,-1,38
 410 474 410 474 542 530 c 1,39,40
 460 581 460 581 426.5 632 c 128,-1,41
 393 683 393 683 393 775 c 0,42,43
 393 832 393 832 421 1019 c 128,-1,44
 449 1206 449 1206 449 1238 c 0,45,46
 449 1308 449 1308 421.5 1325.5 c 128,-1,47
 394 1343 394 1343 316 1343 c 2,48,-1
 285 1343 l 1,49,-1
 311 1491 l 1,50,-1
 367 1491 l 2,51,52
 514 1491 514 1491 572 1439 c 128,-1,53
 630 1387 630 1387 630 1271 c 3,0,1
EndSplineSet
EndChar

StartChar: asciitilde
Encoding: 126 126 98
Width: 1196
Flags: W
HStem: 568 170<824.958 1122.5> 702 170<326.64 637.537>
LayerCount: 3
Fore
SplineSet
472 702 m 3x40
 370 702 294 654 187 566 c 1
 220 752 l 1
 305 832 404 872 519 872 c 3x40
 713 872 846 738 982 738 c 3
 1085 738 1199 816 1264 875 c 1
 1230 682 l 1
 1131 603 1044 568 933 568 c 3x80
 735 568 634 702 472 702 c 3x40
EndSplineSet
Validated: 1
Layer: 2
SplineSet
472 702 m 3,0,1
 400 702 400 702 337.5 670 c 128,-1,2
 275 638 275 638 187 566 c 1,3,-1
 220 752 l 1,4,5
 347 872 347 872 519 872 c 0,6,7
 584 872 584 872 653.5 851 c 128,-1,8
 723 830 723 830 772 805 c 128,-1,9
 821 780 821 780 879 759 c 128,-1,10
 937 738 937 738 982 738 c 0,11,12
 1052 738 1052 738 1128 779.5 c 128,-1,13
 1204 821 1204 821 1264 875 c 1,14,-1
 1230 682 l 1,15,16
 1155 622 1155 622 1085 595 c 128,-1,17
 1015 568 1015 568 933 568 c 0,18,19
 867 568 867 568 800.5 589 c 128,-1,20
 734 610 734 610 689 635 c 128,-1,21
 644 660 644 660 585 681 c 128,-1,22
 526 702 526 702 472 702 c 3,0,1
EndSplineSet
EndChar

StartChar: exclamdown
Encoding: 161 161 100
Width: 569
Flags: W
HStem: 0 21G<198 381.548> 1065 20G<428.11 525> 1256 194<454 599>
VStem: 433 92<1026.36 1085>
DStem2: 198 0 378 0 0.173648 0.984808<31.2567 458.04 1306.55 1472.43>
LayerCount: 3
Fore
SplineSet
278 451 m 1
 433 1085 l 1
 525 1085 l 1
 458 451 l 1
 378 0 l 1
 198 0 l 1
 278 451 l 1
419 1256 m 1
 454 1450 l 1
 634 1450 l 1
 599 1256 l 1
 419 1256 l 1
EndSplineSet
Validated: 1
Layer: 2
SplineSet
278 451 m 1,0,-1
 433 1085 l 1,1,-1
 525 1085 l 1,2,-1
 458 451 l 1,3,-1
 378 0 l 1,4,-1
 198 0 l 1,5,-1
 278 451 l 1,0,-1
419 1256 m 1,6,-1
 454 1450 l 1,7,-1
 634 1450 l 1,8,-1
 599 1256 l 1,9,-1
 419 1256 l 1,6,-1
EndSplineSet
EndChar

StartChar: cent
Encoding: 162 162 101
Width: 1118
Flags: W
HStem: 3 150<475.626 525 731 876> 1455 20G<780.474 964>
VStem: 199 181<255.472 678.982>
DStem2: 460 -361 640 -361 0.173648 0.984808<31.2567 372.712 553.25 1342.38 1529 1864.37>
LayerCount: 3
Back
SplineSet
784 1475 m 1
 964 1475 l 1
 640 -361 l 1
 460 -361 l 1
 784 1475 l 1
640 148 m 3
 746 148 849 159 1015 281 c 1
 1025 281 l 1
 990 83 l 1
 808 5 720 0 614 0 c 3
 328 0 199 172 199 414 c 3
 199 825 465 1119 811 1119 c 3
 956 1119 1081 1081 1158 1037 c 1
 1123 837 l 1
 1113 837 l 1
 989 958 883 971 785 971 c 3
 639 971 380 834 380 434 c 3
 380 245 478 148 640 148 c 3
EndSplineSet
Fore
SplineSet
784 1475 m 1
 964 1475 l 1
 900 1114 l 1
 1006 1102 1097 1072 1158 1037 c 1
 1123 837 l 1
 1113 837 l 1
 1026 922 947 954 874 965 c 1
 731 153 l 1
 810 163 897 194 1015 281 c 1
 1025 281 l 1
 990 83 l 1
 861 28 779 9 705 3 c 1
 640 -361 l 1
 460 -361 l 1
 525 6 l 1
 301 38 199 198 199 415 c 3
 199 792 425 1067 720 1112 c 1
 784 1475 l 1
693 961 m 1
 562 930 380 755 380 434 c 3
 380 282 444 190 552 159 c 1
 693 961 l 1
EndSplineSet
Validated: 1
Layer: 2
SplineSet
784 1475 m 1,0,-1
 964 1475 l 1,1,-1
 900 1114 l 1,2,3
 1054 1097 1054 1097 1158 1037 c 1,4,-1
 1123 837 l 1,5,-1
 1113 837 l 1,6,7
 1002 946 1002 946 874 965 c 1,8,-1
 731 153 l 1,9,10
 864 170 864 170 1015 281 c 1,11,-1
 1025 281 l 1,12,-1
 990 83 l 1,13,14
 825 13 825 13 705 3 c 1,15,-1
 640 -361 l 1,16,-1
 460 -361 l 1,17,-1
 525 6 l 1,18,19
 362 29 362 29 280.5 137.5 c 128,-1,20
 199 246 199 246 199 415 c 0,21,22
 199 693 199 693 347 885.5 c 128,-1,23
 495 1078 495 1078 720 1112 c 1,24,-1
 784 1475 l 1,0,-1
693 961 m 1,25,26
 641 949 641 949 588.5 910 c 128,-1,27
 536 871 536 871 488 807.5 c 128,-1,28
 440 744 440 744 410 646 c 128,-1,29
 380 548 380 548 380 434 c 0,30,31
 380 322 380 322 425 252.5 c 128,-1,32
 470 183 470 183 552 159 c 1,33,-1
 693 961 l 1,25,26
EndSplineSet
EndChar

StartChar: sterling
Encoding: 163 163 102
Width: 1118
Flags: W
HStem: 0 206<125 217.493> 0 170<291 1031> 597 170<265 396 606 952> 1264 206<1141.98 1224> 1348 170<807.626 1150.66>
DStem2: 290.733 0 470.668 0 0.173648 0.984808<389.724 606.21 810.093 1299.92>
LayerCount: 3
Fore
SplineSet
568 552 m 2x28
 529 330 360 217 293 181 c 1
 291 170 l 1
 1061 170 l 1
 1031 0 l 1
 89 0 l 1x68
 125 206 l 1
 298 255 361 398 396 597 c 1
 235 597 l 1
 265 767 l 1
 426 767 l 1
 480 1071 l 2
 527 1340 727 1518 976 1518 c 3xa8
 1057 1518 1105 1516 1260 1470 c 1
 1224 1264 l 1
 1214 1264 l 1x30
 1137 1325 1044 1348 965 1348 c 3
 791 1348 688 1232 656 1052 c 2
 606 767 l 1
 982 767 l 1
 952 597 l 1
 576 597 l 1
 568 552 l 2x28
EndSplineSet
Validated: 1
Layer: 2
SplineSet
568 552 m 2,0,1
 557 489 557 489 530.5 431.5 c 128,-1,2
 504 374 504 374 474 335.5 c 128,-1,3
 444 297 444 297 407 263.5 c 128,-1,4
 370 230 370 230 344 212 c 128,-1,5
 318 194 318 194 293 181 c 1,6,-1
 291 170 l 1,7,-1
 1061 170 l 1,8,-1
 1031 0 l 1,9,-1
 89 0 l 1,10,-1
 125 206 l 1,11,12
 188 224 188 224 235 259 c 128,-1,13
 282 294 282 294 313 346.5 c 128,-1,14
 344 399 344 399 363 458 c 128,-1,15
 382 517 382 517 396 597 c 1,16,-1
 235 597 l 1,17,-1
 265 767 l 1,18,-1
 426 767 l 1,19,-1
 480 1071 l 2,20,21
 515 1272 515 1272 652 1395 c 128,-1,22
 789 1518 789 1518 976 1518 c 0,23,24
 1045 1518 1045 1518 1099 1510 c 128,-1,25
 1153 1502 1153 1502 1260 1470 c 1,26,-1
 1224 1264 l 1,27,-1
 1214 1264 l 1,28,29
 1108 1348 1108 1348 965 1348 c 0,30,31
 838 1348 838 1348 759.5 1269.5 c 128,-1,32
 681 1191 681 1191 656 1052 c 2,33,-1
 606 767 l 1,34,-1
 982 767 l 1,35,-1
 952 597 l 1,36,-1
 576 597 l 1,37,-1
 568 552 l 2,0,1
EndSplineSet
EndChar

StartChar: currency
Encoding: 164 164 103
Width: 1118
Flags: W
HStem: 326 170<549.318 762.104> 826 170<593.371 804.345>
VStem: 338 181<526.219 751.336> 836 182<570.578 795.364>
DStem2: 113 273 199 164 0.761417 0.648263<0 341.812 1020.7 1364.18> 376 1157 250 1051 0.636318 -0.771427<1.59515 285.895 864.019 1146.59>
LayerCount: 3
Fore
SplineSet
338 612 m 3
 338 710 380 778 425 835 c 1
 250 1051 l 1
 376 1157 l 1
 552 944 l 1
 618 982 684 996 736 996 c 3
 806 996 864 971 903 945 c 1
 1152 1157 l 1
 1242 1052 l 1
 990 836 l 1
 1008 796 1018 760 1018 717 c 3
 1018 623 990 560 929 486 c 1
 1105 272 l 1
 980 166 l 1
 804 378 l 1
 734 340 688 326 617 326 c 3
 547 326 488 353 452 379 c 1
 199 164 l 1
 113 273 l 1
 363 486 l 1
 345 527 338 573 338 612 c 3
706 826 m 3
 621 826 519 746 519 629 c 3
 519 551 574 496 647 496 c 3
 733 496 836 575 836 692 c 3
 836 771 780 826 706 826 c 3
EndSplineSet
Validated: 1
Layer: 2
SplineSet
338 612 m 3,0,1
 338 725 338 725 425 835 c 1,2,-1
 250 1051 l 1,3,-1
 376 1157 l 1,4,-1
 552 944 l 1,5,6
 642 996 642 996 736 996 c 0,7,8
 826 996 826 996 903 945 c 1,9,-1
 1152 1157 l 1,10,-1
 1242 1052 l 1,11,-1
 990 836 l 1,12,13
 1018 774 1018 774 1018 717 c 0,14,15
 1018 648 1018 648 997 595.5 c 128,-1,16
 976 543 976 543 929 486 c 1,17,-1
 1105 272 l 1,18,-1
 980 166 l 1,19,-1
 804 378 l 1,20,21
 751 349 751 349 710 337.5 c 128,-1,22
 669 326 669 326 617 326 c 0,23,24
 525 326 525 326 452 379 c 1,25,-1
 199 164 l 1,26,-1
 113 273 l 1,27,-1
 363 486 l 1,28,29
 338 543 338 543 338 612 c 3,0,1
706 826 m 3,30,31
 638 826 638 826 578.5 769 c 128,-1,32
 519 712 519 712 519 629 c 0,33,34
 519 571 519 571 555.5 533.5 c 128,-1,35
 592 496 592 496 647 496 c 0,36,37
 716 496 716 496 776 552.5 c 128,-1,38
 836 609 836 609 836 692 c 0,39,40
 836 751 836 751 799 788.5 c 128,-1,41
 762 826 762 826 706 826 c 3,30,31
EndSplineSet
EndChar

StartChar: yen
Encoding: 165 165 104
Width: 1118
Flags: W
HStem: 0 21G<469 652.538> 424 170<230 544 752 1068>
DStem2: 529 1489 319 1489 0.306602 -0.951838<0 616.983> 469 0 649 0 0.173648 0.984808<31.2567 430.582 634.118 667.509> 719 902 767 678 0.564757 0.825257<0 711.458>
LayerCount: 3
Fore
SplineSet
1322 1489 m 1
 767 678 l 1
 752 594 l 1
 1098 594 l 1
 1068 424 l 1
 724 424 l 1
 649 0 l 1
 469 0 l 1
 544 424 l 1
 200 424 l 1
 230 594 l 1
 576 594 l 1
 587 657 l 1
 319 1489 l 1
 529 1489 l 1
 719 902 l 1
 1121 1489 l 1
 1322 1489 l 1
EndSplineSet
Validated: 1
Layer: 2
SplineSet
1322 1489 m 1,0,-1
 767 678 l 1,1,-1
 752 594 l 1,2,-1
 1098 594 l 1,3,-1
 1068 424 l 1,4,-1
 724 424 l 1,5,-1
 649 0 l 1,6,-1
 469 0 l 1,7,-1
 544 424 l 1,8,-1
 200 424 l 1,9,-1
 230 594 l 1,10,-1
 576 594 l 1,11,-1
 587 657 l 1,12,-1
 319 1489 l 1,13,-1
 529 1489 l 1,14,-1
 719 902 l 1,15,-1
 1121 1489 l 1,16,-1
 1322 1489 l 1,0,-1
EndSplineSet
EndChar

StartChar: brokenbar
Encoding: 166 166 105
Width: 783
Flags: W
VStem: 233 523
DStem2: 233 -392 413 -392 0.173648 0.984808<31.2567 810.361 1199.04 1977.97>
LayerCount: 3
Fore
SplineSet
616 758 m 1
 436 758 l 1
 576 1556 l 1
 756 1556 l 1
 616 758 l 1
413 -392 m 1
 233 -392 l 1
 374 406 l 1
 554 406 l 1
 413 -392 l 1
EndSplineSet
Validated: 1
Layer: 2
SplineSet
616 758 m 1,0,-1
 436 758 l 1,1,-1
 576 1556 l 1,2,-1
 756 1556 l 1,3,-1
 616 758 l 1,0,-1
413 -392 m 1,4,-1
 233 -392 l 1,5,-1
 374 406 l 1,6,-1
 554 406 l 1,7,-1
 413 -392 l 1,4,-1
EndSplineSet
EndChar

StartChar: section
Encoding: 167 167 106
Width: 1118
Flags: W
HStem: -385 170<245.575 676.96> -327 194<149 263.765> 1268 194<1058.46 1170> 1349 170<637.618 1077.07>
VStem: 207 190<427.23 646.808> 344 187<1038.18 1253.19> 786 187<-120.77 95.4388> 920 190<481.898 703.384>
DStem2: 557 369 494 192 0.95095 -0.309345<-164.785 210.787>
LayerCount: 3
Fore
SplineSet
723 315 m 1x09
 765 338 920 435 920 601 c 3
 920 718 819 744 688 788 c 2
 594 819 l 1
 437 731 397 616 397 533 c 3
 397 433 468 398 557 369 c 2
 723 315 l 1x09
845 1349 m 3x14
 695 1349 531 1296 531 1136 c 3
 531 1029 628 994 823 942 c 0
 997 895 1110 824 1110 669 c 3x15
 1110 539 1061 393 848 277 c 1
 847 270 l 1
 904 237 973 179 973 57 c 3
 973 -150 819 -385 422 -385 c 3x92
 300 -385 199 -360 114 -327 c 1
 149 -133 l 1
 159 -133 l 1x42
 217 -160 332 -215 471 -215 c 3
 588 -215 786 -176 786 -0 c 3
 786 86 719 125 621 154 c 2
 494 192 l 2
 348 236 207 294 207 466 c 3x8a
 207 580 254 740 469 858 c 1
 471 865 l 1
 418 897 344 957 344 1082 c 3
 344 1296 519 1519 896 1519 c 3x94
 1023 1519 1112 1497 1204 1462 c 1
 1170 1268 l 1
 1160 1268 l 1x24
 1003 1348 898 1349 845 1349 c 3x14
EndSplineSet
Validated: 1
Layer: 2
SplineSet
723 315 m 1,0,1
 747 328 747 328 773 347.5 c 128,-1,2
 799 367 799 367 836 403 c 128,-1,3
 873 439 873 439 896.5 491 c 128,-1,4
 920 543 920 543 920 601 c 0,5,6
 920 641 920 641 907 668.5 c 128,-1,7
 894 696 894 696 857.5 718 c 128,-1,8
 821 740 821 740 797.5 749.5 c 128,-1,9
 774 759 774 759 711.471299196 780.174248061 c 0,10,11
 706 782 706 782 703.5 783 c 128,-1,12
 701 784 701 784 696.5 785.5 c 128,-1,13
 692 787 692 787 688 788 c 2,14,-1
 594 819 l 1,15,16
 487 759 487 759 442 683 c 128,-1,17
 397 607 397 607 397 533 c 0,18,19
 397 465 397 465 437.5 430 c 128,-1,20
 478 395 478 395 557 369 c 2,21,-1
 723 315 l 1,0,1
845 1349 m 3,22,23
 785 1349 785 1349 732 1338 c 128,-1,24
 679 1327 679 1327 632.5 1303 c 128,-1,25
 586 1279 586 1279 558.5 1236 c 128,-1,26
 531 1193 531 1193 531 1136 c 0,27,28
 531 1104 531 1104 543.5 1079.5 c 128,-1,29
 556 1055 556 1055 576.5 1037 c 128,-1,30
 597 1019 597 1019 637 1002 c 128,-1,31
 677 985 677 985 717 972.5 c 128,-1,32
 757 960 757 960 823 942 c 0,33,34
 965 904 965 904 1037.5 841.5 c 128,-1,35
 1110 779 1110 779 1110 669 c 0,36,37
 1110 420 1110 420 848 277 c 1,38,-1
 847 270 l 1,39,40
 973 197 973 197 973 57 c 0,41,42
 973 -7 973 -7 954.5 -68.5 c 128,-1,43
 936 -130 936 -130 893 -188 c 128,-1,44
 850 -246 850 -246 788 -289.5 c 128,-1,45
 726 -333 726 -333 631.5 -359 c 128,-1,46
 537 -385 537 -385 422 -385 c 0,47,48
 263 -385 263 -385 114 -327 c 1,49,-1
 149 -133 l 1,50,-1
 159 -133 l 1,51,52
 335 -215 335 -215 471 -215 c 0,53,54
 510 -215 510 -215 549 -210 c 128,-1,55
 588 -205 588 -205 632 -190 c 128,-1,56
 676 -175 676 -175 709 -152 c 128,-1,57
 742 -129 742 -129 764 -89.5 c 128,-1,58
 786 -50 786 -50 786 0 c 0,59,60
 786 60 786 60 744 95 c 128,-1,61
 702 130 702 130 621 154 c 2,62,-1
 494 192 l 2,63,64
 443 207 443 207 407 221 c 128,-1,65
 371 235 371 235 330.5 258 c 128,-1,66
 290 281 290 281 265 308 c 128,-1,67
 240 335 240 335 223.5 375.5 c 128,-1,68
 207 416 207 416 207 466 c 0,69,70
 207 513 207 513 218.5 559.5 c 128,-1,71
 230 606 230 606 257 659 c 128,-1,72
 284 712 284 712 338 764 c 128,-1,73
 392 816 392 816 469 858 c 1,74,-1
 471 865 l 1,75,76
 344 942 344 942 344 1082 c 0,77,78
 344 1165 344 1165 378 1241 c 128,-1,79
 412 1317 412 1317 477.5 1380 c 128,-1,80
 543 1443 543 1443 651.5 1481 c 128,-1,81
 760 1519 760 1519 896 1519 c 0,82,83
 1054 1519 1054 1519 1204 1462 c 1,84,-1
 1170 1268 l 1,85,-1
 1160 1268 l 1,86,87
 1001 1349 1001 1349 845 1349 c 3,22,23
EndSplineSet
EndChar

StartChar: dieresis
Encoding: 168 168 107
Width: 1118
Flags: W
HStem: 1304 195<517 684 930 1097>
VStem: 483 648
LayerCount: 3
Fore
SplineSet
1097 1304 m 1
 896 1304 l 1
 930 1499 l 1
 1131 1499 l 1
 1097 1304 l 1
684 1304 m 1
 483 1304 l 1
 517 1499 l 1
 718 1499 l 1
 684 1304 l 1
EndSplineSet
Validated: 1
Layer: 2
SplineSet
1097 1304 m 1,0,-1
 896 1304 l 1,1,-1
 930 1499 l 1,2,-1
 1131 1499 l 1,3,-1
 1097 1304 l 1,0,-1
684 1304 m 1,4,-1
 483 1304 l 1,5,-1
 517 1499 l 1,6,-1
 718 1499 l 1,7,-1
 684 1304 l 1,4,-1
EndSplineSet
EndChar

StartChar: copyright
Encoding: 169 169 108
Width: 1902
Flags: W
HStem: -210 110<691.965 1186.25> 180 148<896.19 1219.92> 889 181<1360.26 1431> 995 148<1011.4 1319.6> 1409 110<946.204 1440.47>
VStem: 188 117<291.029 779.002> 635 183<405.563 780.822> 1827 117<530.636 1018.61>
LayerCount: 3
Fore
SplineSet
914 -210 m 3xcf
 491 -210 188 102 188 506 c 3
 188 1078 717 1519 1219 1519 c 3
 1643 1519 1944 1207 1944 803 c 3
 1944 231 1415 -210 914 -210 c 3xcf
1827 786 m 3
 1827 1139 1566 1409 1199 1409 c 3
 764 1409 305 1024 305 524 c 3
 305 172 565 -100 933 -100 c 3
 1369 -100 1827 287 1827 786 c 3
1044 328 m 3
 1182 328 1314 427 1335 434 c 1
 1351 434 l 1
 1319 255 l 1
 1170 194 1108 180 1014 180 c 3
 837 180 635 254 635 533 c 3
 635 916 890 1143 1184 1143 c 3xdf
 1301 1143 1397 1106 1463 1070 c 1
 1431 889 l 1
 1415 889 l 1xef
 1367 926 1270 995 1161 995 c 3xdf
 1035 995 818 886 818 560 c 3
 818 363 950 328 1044 328 c 3
EndSplineSet
Validated: 1
Layer: 2
SplineSet
914 -210 m 3,0,1
 706 -210 706 -210 539.5 -115.5 c 128,-1,2
 373 -21 373 -21 280.5 142.5 c 128,-1,3
 188 306 188 306 188 506 c 0,4,5
 188 673 188 673 246.5 830.5 c 128,-1,6
 305 988 305 988 406.5 1110.5 c 128,-1,7
 508 1233 508 1233 638.5 1326.5 c 128,-1,8
 769 1420 769 1420 919.5 1469.5 c 128,-1,9
 1070 1519 1070 1519 1219 1519 c 0,10,11
 1427 1519 1427 1519 1593.5 1424.5 c 128,-1,12
 1760 1330 1760 1330 1852 1166.5 c 128,-1,13
 1944 1003 1944 1003 1944 803 c 0,14,15
 1944 636 1944 636 1885.5 478.5 c 128,-1,16
 1827 321 1827 321 1725.5 198.5 c 128,-1,17
 1624 76 1624 76 1493.5 -17.5 c 128,-1,18
 1363 -111 1363 -111 1213 -160.5 c 128,-1,19
 1063 -210 1063 -210 914 -210 c 3,0,1
1827 786 m 3,20,21
 1827 961 1827 961 1747.5 1103 c 128,-1,22
 1668 1245 1668 1245 1523.5 1327 c 128,-1,23
 1379 1409 1379 1409 1199 1409 c 0,24,25
 1091 1409 1091 1409 981.5 1378 c 128,-1,26
 872 1347 872 1347 773.5 1291 c 128,-1,27
 675 1235 675 1235 589 1153.5 c 128,-1,28
 503 1072 503 1072 440 976 c 128,-1,29
 377 880 377 880 341 763 c 128,-1,30
 305 646 305 646 305 524 c 0,31,32
 305 349 305 349 384.5 207 c 128,-1,33
 464 65 464 65 608 -17.5 c 128,-1,34
 752 -100 752 -100 933 -100 c 0,35,36
 1062 -100 1062 -100 1193 -56.5 c 128,-1,37
 1324 -13 1324 -13 1436.5 68.5 c 128,-1,38
 1549 150 1549 150 1637.5 257.5 c 128,-1,39
 1726 365 1726 365 1776.5 502.5 c 128,-1,40
 1827 640 1827 640 1827 786 c 3,20,21
1044 328 m 3,41,42
 1091 328 1091 328 1144.5 344 c 128,-1,43
 1198 360 1198 360 1233.5 378.5 c 128,-1,44
 1269 397 1269 397 1300 415 c 128,-1,45
 1331 433 1331 433 1335 434 c 2,46,-1
 1351 434 l 1,47,-1
 1319 255 l 1,48,49
 1209 210 1209 210 1147.5 195 c 128,-1,50
 1086 180 1086 180 1014 180 c 0,51,52
 957 180 957 180 906 189.5 c 128,-1,53
 855 199 855 199 804.5 224 c 128,-1,54
 754 249 754 249 717.5 288 c 128,-1,55
 681 327 681 327 658 389.5 c 128,-1,56
 635 452 635 452 635 533 c 0,57,58
 635 673 635 673 679.5 789.5 c 128,-1,59
 724 906 724 906 799.5 982.5 c 128,-1,60
 875 1059 875 1059 974 1101 c 128,-1,61
 1073 1143 1073 1143 1184 1143 c 0,62,63
 1329 1143 1329 1143 1463 1070 c 1,64,-1
 1431 889 l 1,65,-1
 1415 889 l 1,66,67
 1277 995 1277 995 1161 995 c 0,68,69
 1121 995 1121 995 1077 981.5 c 128,-1,70
 1033 968 1033 968 986 935 c 128,-1,71
 939 902 939 902 902 854.5 c 128,-1,72
 865 807 865 807 841.5 730 c 128,-1,73
 818 653 818 653 818 560 c 0,74,75
 818 503 818 503 833 460.5 c 128,-1,76
 848 418 848 418 870.5 393 c 128,-1,77
 893 368 893 368 924.5 353 c 128,-1,78
 956 338 956 338 984 333 c 128,-1,79
 1012 328 1012 328 1044 328 c 3,41,42
EndSplineSet
EndChar

StartChar: ordfeminine
Encoding: 170 170 109
Width: 1010
Flags: W
HStem: 541 148<465.299 692.391> 1031 148<571.368 876> 1371 148<506.825 878.217>
VStem: 256 185<714.66 935.424> 908 185<1179 1340.29>
DStem2: 789.592 541 969.592 541 0.173648 0.984808<56.6423 117.782 223.238 497.56 639.963 708.109>
LayerCount: 3
Fore
SplineSet
751 1519 m 3
 1003 1519 1093 1425 1093 1276 c 3
 1093 1250 1090 1223 1085 1194 c 2
 974 566 l 1
 794 566 l 1
 810 657 l 1
 704 586 632 541 499 541 c 3
 353 541 256 635 256 778 c 3
 256 1109 524 1161 902 1179 c 1
 906 1202 908 1222 908 1240 c 3
 908 1338 848 1371 724 1371 c 3
 667 1371 608 1361 434 1304 c 1
 419 1304 l 1
 449 1474 l 1
 483 1484 633 1519 751 1519 c 3
876 1031 m 1
 664 1015 441 1014 441 812 c 3
 441 748 473 689 582 689 c 3
 616 689 695 702 835 802 c 1
 876 1031 l 1
EndSplineSet
Validated: 1
Layer: 2
SplineSet
751 1519 m 3,0,1
 932 1519 932 1519 1012.5 1456.5 c 128,-1,2
 1093 1394 1093 1394 1093 1276 c 0,3,4
 1093 1240 1093 1240 1085 1194 c 2,5,-1
 974 566 l 1,6,-1
 794 566 l 1,7,-1
 810 657 l 1,8,9
 716 594 716 594 653 567.5 c 128,-1,10
 590 541 590 541 499 541 c 0,11,12
 389 541 389 541 322.5 606 c 128,-1,13
 256 671 256 671 256 778 c 0,14,15
 256 848 256 848 272.5 903.5 c 128,-1,16
 289 959 289 959 317 999 c 128,-1,17
 345 1039 345 1039 391.5 1069 c 128,-1,18
 438 1099 438 1099 488 1118 c 128,-1,19
 538 1137 538 1137 609 1149.5 c 128,-1,20
 680 1162 680 1162 746.5 1168.5 c 128,-1,21
 813 1175 813 1175 902 1179 c 1,22,23
 908 1213 908 1213 908 1240 c 0,24,25
 908 1312 908 1312 864 1341.5 c 128,-1,26
 820 1371 820 1371 724 1371 c 0,27,28
 678 1371 678 1371 617.5 1357.5 c 128,-1,29
 557 1344 557 1344 434 1304 c 1,30,-1
 419 1304 l 1,31,-1
 449 1474 l 1,32,33
 493 1487 493 1487 583.5 1503 c 128,-1,34
 674 1519 674 1519 751 1519 c 3,0,1
876 1031 m 1,35,36
 696.577542786 1017.45868247 696.577542786 1017.45868247 646.654283816 1008.20870097 c 0,37,38
 491.764677158 979.510133889 491.764677158 979.510133889 454.618789723 888.507331016 c 0,39,40
 441 855.142990517 441 855.142990517 441 812 c 0,41,42
 441 758 441 758 473.5 723.5 c 128,-1,43
 506 689 506 689 582 689 c 0,44,45
 677 689 677 689 835 802 c 1,46,-1
 876 1031 l 1,35,36
EndSplineSet
EndChar

StartChar: guillemotleft
Encoding: 171 171 110
Width: 1174
Flags: W
DStem2: 397 652 210 608 0.695743 -0.718291<0 405.29> 226 697 397 652 0.797389 0.603466<109.198 592.016> 841 652 663 610 0.70285 -0.711338<0 383.262> 678 695 841 652 0.801883 0.597481<105.015 560.815>
LayerCount: 3
Fore
SplineSet
1077 191 m 1
 663 610 l 1
 678 695 l 1
 1239 1113 l 1
 1206 925 l 1
 841 652 l 1
 1110 379 l 1
 1077 191 l 1
642 162 m 1
 210 608 l 1
 226 697 l 1
 814 1142 l 1
 780 946 l 1
 397 652 l 1
 676 358 l 1
 642 162 l 1
EndSplineSet
Validated: 1
Layer: 2
SplineSet
1077 191 m 1,0,-1
 663 610 l 1,1,-1
 678 695 l 1,2,-1
 1239 1113 l 1,3,-1
 1206 925 l 1,4,-1
 841 652 l 1,5,-1
 1110 379 l 1,6,-1
 1077 191 l 1,0,-1
642 162 m 1,7,-1
 210 608 l 1,8,-1
 226 697 l 1,9,-1
 814 1142 l 1,10,-1
 780 946 l 1,11,-1
 397 652 l 1,12,-1
 676 358 l 1,13,-1
 642 162 l 1,7,-1
EndSplineSet
EndChar

StartChar: logicalnot
Encoding: 172 172 111
Width: 1490
Flags: W
HStem: 592 170<291 1247>
DStem2: 1153 57 1333 57 0.173648 0.984808<31.2567 543.195>
LayerCount: 3
Fore
SplineSet
1333 57 m 1
 1153 57 l 1
 1247 592 l 1
 261 592 l 1
 291 762 l 1
 1457 762 l 1
 1333 57 l 1
EndSplineSet
Validated: 1
Layer: 2
SplineSet
1333 57 m 1,0,-1
 1153 57 l 1,1,-1
 1247 592 l 1,2,-1
 261 592 l 1,3,-1
 291 762 l 1,4,-1
 1457 762 l 1,5,-1
 1333 57 l 1,0,-1
EndSplineSet
EndChar

StartChar: registered
Encoding: 174 174 113
Width: 1902
Flags: W
HStem: -210 110<692.465 1186.75> 570 148<957 1039> 982 148<1003 1251.97> 1409 110<946.704 1440.97>
VStem: 188 118<291.029 779.002> 1274 188<766.498 954.818> 1828 116<530.636 1018.61>
DStem2: 613.061 -210 793.061 -210 0.173648 0.984808<462.813 823.36 973.626 1241.6> 1210 615 1039 570 0.567925 -0.82308<0 357.06>
LayerCount: 3
Fore
SplineSet
914 -210 m 3
 491 -210 188 102 188 506 c 3
 188 1078 717 1519 1219 1519 c 3
 1643 1519 1944 1207 1944 803 c 3
 1944 231 1415 -210 914 -210 c 3
1828 786 m 3
 1828 1139 1567 1409 1200 1409 c 3
 765 1409 306 1024 306 524 c 3
 306 172 566 -100 934 -100 c 3
 1370 -100 1828 287 1828 786 c 3
1210 615 m 1
 1486 215 l 1
 1259 215 l 1
 1039 570 l 1
 931 570 l 1
 868 215 l 1
 688 215 l 1
 849 1130 l 1
 1128 1130 l 2
 1356 1130 1462 1068 1462 934 c 3
 1462 784 1386 681 1210 615 c 1
1040 718 m 2
 1207 718 1274 768 1274 878 c 3
 1274 963 1189 982 1103 982 c 2
 1003 982 l 1
 957 718 l 1
 1040 718 l 2
EndSplineSet
Validated: 1
Layer: 2
SplineSet
914 -210 m 3,0,1
 706 -210 706 -210 539.5 -115.5 c 128,-1,2
 373 -21 373 -21 280.5 142.5 c 128,-1,3
 188 306 188 306 188 506 c 0,4,5
 188 673 188 673 246.5 830.5 c 128,-1,6
 305 988 305 988 406.5 1110.5 c 128,-1,7
 508 1233 508 1233 638.5 1326.5 c 128,-1,8
 769 1420 769 1420 919.5 1469.5 c 128,-1,9
 1070 1519 1070 1519 1219 1519 c 0,10,11
 1427 1519 1427 1519 1593.5 1424.5 c 128,-1,12
 1760 1330 1760 1330 1852 1166.5 c 128,-1,13
 1944 1003 1944 1003 1944 803 c 0,14,15
 1944 636 1944 636 1885.5 478.5 c 128,-1,16
 1827 321 1827 321 1725.5 198.5 c 128,-1,17
 1624 76 1624 76 1493.5 -17.5 c 128,-1,18
 1363 -111 1363 -111 1213 -160.5 c 128,-1,19
 1063 -210 1063 -210 914 -210 c 3,0,1
1828 786 m 3,20,21
 1828 961 1828 961 1748.5 1103 c 128,-1,22
 1669 1245 1669 1245 1524.5 1327 c 128,-1,23
 1380 1409 1380 1409 1200 1409 c 0,24,25
 1092 1409 1092 1409 982.5 1378 c 128,-1,26
 873 1347 873 1347 774.5 1291 c 128,-1,27
 676 1235 676 1235 590 1153.5 c 128,-1,28
 504 1072 504 1072 441 976 c 128,-1,29
 378 880 378 880 342 763 c 128,-1,30
 306 646 306 646 306 524 c 0,31,32
 306 349 306 349 385.5 207 c 128,-1,33
 465 65 465 65 609 -17.5 c 128,-1,34
 753 -100 753 -100 934 -100 c 0,35,36
 1063 -100 1063 -100 1194 -56.5 c 128,-1,37
 1325 -13 1325 -13 1437.5 68.5 c 128,-1,38
 1550 150 1550 150 1638.5 257.5 c 128,-1,39
 1727 365 1727 365 1777.5 502.5 c 128,-1,40
 1828 640 1828 640 1828 786 c 3,20,21
1210 615 m 1,41,-1
 1486 215 l 1,42,-1
 1259 215 l 1,43,-1
 1039 570 l 1,44,-1
 931 570 l 1,45,-1
 868 215 l 1,46,-1
 688 215 l 1,47,-1
 849 1130 l 1,48,-1
 1128 1130 l 2,49,50
 1299 1130 1299 1130 1380.5 1082 c 128,-1,51
 1462 1034 1462 1034 1462 934 c 0,52,53
 1462 820 1462 820 1401.5 742 c 128,-1,54
 1341 664 1341 664 1210 615 c 1,41,-1
1040 718 m 2,55,56
 1164 718 1164 718 1219 756.5 c 128,-1,57
 1274 795 1274 795 1274 878 c 0,58,59
 1274 982 1274 982 1103 982 c 2,60,-1
 1003 982 l 1,61,-1
 957 718 l 1,62,-1
 1040 718 l 2,55,56
EndSplineSet
EndChar

StartChar: macron
Encoding: 175 175 114
Width: 1118
Flags: W
HStem: 1650 148<301 1425>
LayerCount: 3
Fore
SplineSet
1425 1650 m 1
 275 1650 l 1
 301 1798 l 1
 1451 1798 l 1
 1425 1650 l 1
EndSplineSet
Validated: 1
Layer: 2
SplineSet
1425 1650 m 1,0,-1
 275 1650 l 1,1,-1
 301 1798 l 1,2,-1
 1451 1798 l 1,3,-1
 1425 1650 l 1,0,-1
EndSplineSet
EndChar

StartChar: degree
Encoding: 176 176 115
Width: 964
Flags: W
HStem: 755 170<537.005 772.468> 1345 170<592.055 828.17>
VStem: 295 183<982.715 1227.58> 886 184<1043.73 1288.27>
LayerCount: 3
Fore
SplineSet
749 1515 m 3
 938 1515 1070 1389 1070 1207 c 3
 1070 943 842 755 615 755 c 3
 427 755 295 880 295 1063 c 3
 295 1328 521 1515 749 1515 c 3
719 1345 m 3
 604 1345 478 1232 478 1100 c 3
 478 999 558 925 645 925 c 3
 763 925 886 1043 886 1170 c 3
 886 1269 811 1345 719 1345 c 3
EndSplineSet
Validated: 1
Layer: 2
SplineSet
749 1515 m 3,0,1
 891 1515 891 1515 980.5 1429 c 128,-1,2
 1070 1343 1070 1343 1070 1207 c 0,3,4
 1070 1080 1070 1080 1003.5 974.5 c 128,-1,5
 937 869 937 869 833 812 c 128,-1,6
 729 755 729 755 615 755 c 0,7,8
 474 755 474 755 384.5 840.5 c 128,-1,9
 295 926 295 926 295 1063 c 0,10,11
 295 1159 295 1159 334 1244.5 c 128,-1,12
 373 1330 373 1330 436.5 1388.5 c 128,-1,13
 500 1447 500 1447 582 1481 c 128,-1,14
 664 1515 664 1515 749 1515 c 3,0,1
719 1345 m 3,15,16
 630 1345 630 1345 554 1271 c 128,-1,17
 478 1197 478 1197 478 1100 c 0,18,19
 478 1026 478 1026 528 975.5 c 128,-1,20
 578 925 578 925 645 925 c 0,21,22
 735 925 735 925 810.5 1000.5 c 128,-1,23
 886 1076 886 1076 886 1170 c 0,24,25
 886 1244 886 1244 837 1294.5 c 128,-1,26
 788 1345 788 1345 719 1345 c 3,15,16
EndSplineSet
EndChar

StartChar: plusminus
Encoding: 177 177 116
Width: 1490
Flags: W
HStem: 159 170<220 713 893 1356> 733 170<321 784 994 1457>
DStem2: 683.024 159 863.024 159 0.173648 0.984808<203.879 582.814 786.697 1262.14>
LayerCount: 3
Fore
SplineSet
1356 159 m 1
 190 159 l 1
 220 329 l 1
 713 329 l 1
 784 733 l 1
 291 733 l 1
 321 903 l 1
 814 903 l 1
 902 1402 l 1
 1082 1402 l 1
 994 903 l 1
 1487 903 l 1
 1457 733 l 1
 964 733 l 1
 893 329 l 1
 1386 329 l 1
 1356 159 l 1
EndSplineSet
Validated: 1
Layer: 2
SplineSet
1356 159 m 1,0,-1
 190 159 l 1,1,-1
 220 329 l 1,2,-1
 713 329 l 1,3,-1
 784 733 l 1,4,-1
 291 733 l 1,5,-1
 321 903 l 1,6,-1
 814 903 l 1,7,-1
 902 1402 l 1,8,-1
 1082 1402 l 1,9,-1
 994 903 l 1,10,-1
 1487 903 l 1,11,-1
 1457 733 l 1,12,-1
 964 733 l 1,13,-1
 893 329 l 1,14,-1
 1386 329 l 1,15,-1
 1356 159 l 1,0,-1
EndSplineSet
EndChar

StartChar: uni00B2
Encoding: 178 178 117
Width: 1010
Flags: W
HStem: 566 148<513 919> 1370 148<651.187 847.1>
VStem: 420 180<1210 1315.32> 860 181<1130.36 1356.47>
LayerCount: 3
Fore
SplineSet
758 1370 m 3
 684 1370 622 1334 600 1210 c 1
 420 1210 l 1
 453 1397 595 1518 786 1518 c 3
 935 1518 1041 1438 1041 1292 c 3
 1041 1069 849 966 694 851 c 0
 627 801 566 754 513 714 c 1
 945 714 l 1
 919 566 l 1
 285 566 l 1
 309 702 427 813 587 931 c 0
 750 1051 860 1126 860 1271 c 3
 860 1328 831 1370 758 1370 c 3
EndSplineSet
Validated: 1
Layer: 2
SplineSet
758 1370 m 3,0,1
 628 1370 628 1370 600 1210 c 1,2,-1
 420 1210 l 1,3,4
 445 1351 445 1351 544 1434.5 c 128,-1,5
 643 1518 643 1518 786 1518 c 0,6,7
 901 1518 901 1518 971 1458.5 c 128,-1,8
 1041 1399 1041 1399 1041 1292 c 0,9,10
 1041 1251 1041 1251 1032 1213 c 128,-1,11
 1023 1175 1023 1175 1009.5 1145.5 c 128,-1,12
 996 1116 996 1116 971.5 1084.5 c 128,-1,13
 947 1053 947 1053 926 1031.5 c 128,-1,14
 905 1010 905 1010 871 982 c 128,-1,15
 837 954 837 954 814 937.5 c 128,-1,16
 791 921 791 921 752.5 893.5 c 128,-1,17
 714 866 714 866 694 851 c 0,18,19
 655 822 655 822 590 772.5 c 128,-1,20
 525 723 525 723 513 714 c 1,21,-1
 945 714 l 1,22,-1
 919 566 l 1,23,-1
 285 566 l 1,24,25
 302 661 302 661 377.5 746.5 c 128,-1,26
 453 832 453 832 587 931 c 0,27,28
 724.557518644 1032.26933888 724.557518644 1032.26933888 765.963780964 1072.51669639 c 0,29,30
 855.846085651 1159.88331797 855.846085651 1159.88331797 859.786820779 1260.05378486 c 0,31,32
 860 1265.47263728 860 1265.47263728 860 1271 c 0,33,34
 860 1316 860 1316 835 1343 c 128,-1,35
 810 1370 810 1370 758 1370 c 3,0,1
EndSplineSet
EndChar

StartChar: uni00B3
Encoding: 179 179 118
Width: 1010
Flags: W
HStem: 559 148<536.88 720.47> 1003 128<604.656 754.25> 1370 148<645.363 802.868>
VStem: 330 183<728.652 863.227> 787 183<774.908 984.864> 813 182<1188.65 1359.61>
LayerCount: 3
Fore
SplineSet
646 1131 m 3xf8
 712 1131 813 1196 813 1285 c 3
 813 1335 774 1370 730 1370 c 3
 672 1370 621 1316 592 1230 c 1
 412 1230 l 1
 441 1395 585 1518 753 1518 c 3
 888 1518 995 1435 995 1308 c 3xf4
 995 1201 930 1125 857 1079 c 1
 930 1049 970 995 970 914 c 3
 970 702 779 559 589 559 c 3
 432 559 330 655 330 802 c 3
 330 822 332 843 336 864 c 1
 516 864 l 1
 514 852 513 840 513 829 c 3
 513 756 557 707 615 707 c 3
 693 707 787 786 787 891 c 3
 787 961 742 1003 682 1003 c 3
 650 1003 610 995 578 986 c 1
 604 1134 l 1
 618 1133 632 1131 646 1131 c 3xf8
EndSplineSet
Validated: 1
Layer: 2
SplineSet
646 1131 m 1,0,1
 701 1131 701 1131 757 1177 c 128,-1,2
 813 1223 813 1223 813 1285 c 0,3,4
 813 1322 813 1322 788.5 1346 c 128,-1,5
 764 1370 764 1370 730 1370 c 0,6,7
 687 1370 687 1370 650.5 1332.5 c 128,-1,8
 614 1295 614 1295 592 1230 c 1,9,-1
 412 1230 l 1,10,11
 434 1354 434 1354 530.5 1436 c 128,-1,12
 627 1518 627 1518 753 1518 c 0,13,14
 856 1518 856 1518 925.5 1460 c 128,-1,15
 995 1402 995 1402 995 1308 c 0,16,17
 995 1166 995 1166 857 1079 c 1,18,19
 970 1033 970 1033 970 914 c 0,20,21
 970 812 970 812 914 729 c 128,-1,22
 858 646 858 646 771.5 602.5 c 128,-1,23
 685 559 685 559 589 559 c 0,24,25
 471 559 471 559 400.5 625.5 c 128,-1,26
 330 692 330 692 330 802 c 0,27,28
 330 832 330 832 336 864 c 1,29,-1
 516 864 l 1,30,31
 513 846 513 846 513 829 c 0,32,33
 513 775 513 775 542 741 c 128,-1,34
 571 707 571 707 615 707 c 0,35,36
 677 707 677 707 732 761.5 c 128,-1,37
 787 816 787 816 787 891 c 0,38,39
 787 942 787 942 757.5 972.5 c 128,-1,40
 728 1003 728 1003 682 1003 c 0,41,42
 638 1003 638 1003 578 986 c 1,43,-1
 604 1134 l 1,44,-1
 646 1131 l 1,0,1
EndSplineSet
EndChar

StartChar: acute
Encoding: 180 180 119
Width: 1118
Flags: W
HStem: 1194 374
VStem: 660 487
LayerCount: 3
Fore
SplineSet
1147 1568 m 1
 809 1194 l 1
 660 1194 l 1
 904 1568 l 1
 1147 1568 l 1
EndSplineSet
Validated: 1
Layer: 2
SplineSet
1147 1568 m 1,0,-1
 809 1194 l 1,1,-1
 660 1194 l 1,2,-1
 904 1568 l 1,3,-1
 1147 1568 l 1,0,-1
EndSplineSet
EndChar

StartChar: micro
Encoding: 181 181 120
Width: 1163
Flags: W
HStem: -17 148<463.109 744.507> 0 21G<847 1030.53>
DStem2: 63 -412 243 -412 0.173648 0.984808<31.2567 566.4 690.742 1552.66> 774.353 -412 954.353 -412 0.173648 0.984808<449.612 536.066 644.252 1552.59>
LayerCount: 3
Fore
SplineSet
601 131 m 3x80
 713 131 812 199 895 275 c 1
 1044 1117 l 1
 1224 1117 l 1
 1027 0 l 1
 847 0 l 1x40
 867 116 l 1
 737 0 658 -17 575 -17 c 3
 473 -17 412 11 336 115 c 1
 243 -412 l 1
 63 -412 l 1
 333 1117 l 1
 513 1117 l 1
 364 275 l 1
 415 199 497 131 601 131 c 3x80
EndSplineSet
Validated: 1
Layer: 2
SplineSet
601 131 m 3,0,1
 738 131 738 131 895 275 c 1,2,-1
 1044 1117 l 1,3,-1
 1224 1117 l 1,4,-1
 1027 0 l 1,5,-1
 847 0 l 1,6,-1
 867 116 l 1,7,8
 777 36 777 36 711.5 9.5 c 128,-1,9
 646 -17 646 -17 575 -17 c 0,10,11
 496 -17 496 -17 444 11 c 128,-1,12
 392 39 392 39 336 115 c 1,13,-1
 243 -412 l 1,14,-1
 63 -412 l 1,15,-1
 333 1117 l 1,16,-1
 513 1117 l 1,17,-1
 364 275 l 1,18,19
 406 212 406 212 467 171.5 c 128,-1,20
 528 131 528 131 601 131 c 3,0,1
EndSplineSet
EndChar

StartChar: paragraph
Encoding: 182 182 121
Width: 1118
Flags: W
HStem: 1341 148<891 1038>
DStem2: 411 -363 591 -363 0.173648 0.984808<31.2567 970.823> 738 -363 918 -363 0.173648 0.984808<31.2567 1730.21>
LayerCount: 3
Fore
SplineSet
783 1489 m 2
 1245 1489 l 1
 918 -363 l 1
 738 -363 l 1
 1038 1341 l 1
 891 1341 l 1
 591 -363 l 1
 411 -363 l 1
 580 593 l 1
 375 598 233 734 233 952 c 3
 233 1304 493 1489 783 1489 c 2
EndSplineSet
Validated: 1
Layer: 2
SplineSet
783 1489 m 2,0,-1
 1245 1489 l 1,1,-1
 918 -363 l 1,2,-1
 738 -363 l 1,3,-1
 1038 1341 l 1,4,-1
 891 1341 l 1,5,-1
 591 -363 l 1,6,-1
 411 -363 l 1,7,-1
 580 593 l 1,8,9
 424 597 424 597 328.5 693.5 c 128,-1,10
 233 790 233 790 233 952 c 0,11,12
 233 1080 233 1080 278 1183.5 c 128,-1,13
 323 1287 323 1287 399.5 1353 c 128,-1,14
 476 1419 476 1419 574.5 1454 c 128,-1,15
 673 1489 673 1489 783 1489 c 2,0,-1
EndSplineSet
EndChar

StartChar: periodcentered
Encoding: 183 183 122
Width: 724
Flags: W
HStem: 832 285<440 629>
VStem: 390 289
LayerCount: 3
Fore
SplineSet
629 832 m 1
 390 832 l 1
 440 1117 l 1
 679 1117 l 1
 629 832 l 1
EndSplineSet
Validated: 1
Layer: 2
SplineSet
629 832 m 1,0,-1
 390 832 l 1,1,-1
 440 1117 l 1,2,-1
 679 1117 l 1,3,-1
 629 832 l 1,0,-1
EndSplineSet
EndChar

StartChar: cedilla
Encoding: 184 184 123
Width: 1118
Flags: W
HStem: -423 148<246.034 531.126> -399 158<247 389.332>
VStem: 603 178<-189.834 20>
LayerCount: 3
Fore
SplineSet
584 -107 m 0xa0
 593 -56 590 -69 603 20 c 1
 781 20 l 1
 778 -12 772 -61 767 -89 c 0
 720 -355 516 -423 391 -423 c 3xa0
 356 -423 283 -419 219 -399 c 1
 247 -241 l 1
 256 -241 l 1x60
 297 -261 342 -275 392 -275 c 3
 513 -275 563 -227 584 -107 c 0xa0
EndSplineSet
Validated: 1
Layer: 2
SplineSet
584 -107 m 0,0,1
 587 -92 587 -92 603 20 c 1,2,-1
 781 20 l 1,3,4
 775 -44 775 -44 767 -89 c 0,5,6
 754 -165 754 -165 722 -225.5 c 128,-1,7
 690 -286 690 -286 650.5 -322 c 128,-1,8
 611 -358 611 -358 563.5 -381.5 c 128,-1,9
 516 -405 516 -405 474 -414 c 128,-1,10
 432 -423 432 -423 391 -423 c 0,11,12
 296 -423 296 -423 219 -399 c 1,13,-1
 247 -241 l 1,14,-1
 256 -241 l 1,15,16
 326 -275 326 -275 392 -275 c 0,17,18
 482 -275 482 -275 525 -236.5 c 128,-1,19
 568 -198 568 -198 584 -107 c 0,0,1
EndSplineSet
EndChar

StartChar: uni0E01
Encoding: 3585 3585 124
Width: 1376
VWidth: 2045
Flags: W
HStem: 0 21G<241 424.522 998 1181.52> 744 178<552 643> 1101 178<653.269 996.46>
VStem: 1135 182<534.75 963.135>
DStem2: 241 0 421 0 0.173648 0.984808<31.2567 755.445> 998 0 1178 0 0.173648 0.984808<31.2567 817.561>
LayerCount: 3
Fore
SplineSet
1129 744 m 2
 1133 766 1135 786 1135 807 c 0
 1135 971 1018 1101 833 1101 c 0
 678 1101 575 1024 491 922 c 9
 675 922 l 1
 643 744 l 1
 552 744 l 1
 421 0 l 1
 241 0 l 1
 372 744 l 1
 232 744 l 1
 287 1058 584 1279 865 1279 c 0
 1133 1279 1317 1087 1317 837 c 0
 1317 807 1315 776 1309 744 c 2
 1178 0 l 1
 998 0 l 1
 1129 744 l 2
EndSplineSet
Validated: 1
Layer: 2
SplineSet
1129 744 m 2,0,1
 1135 777 1135 777 1135 807 c 0,2,3
 1135 933 1135 933 1052 1017 c 128,-1,4
 969 1101 969 1101 833 1101 c 0,5,6
 724 1101 724 1101 642.5 1054 c 128,-1,7
 561 1007 561 1007 491 922 c 1,8,-1
 675 922 l 1,9,-1
 643 744 l 1,10,-1
 552 744 l 1,11,-1
 421 0 l 1,12,-1
 241 0 l 1,13,-1
 372 744 l 1,14,-1
 232 744 l 1,15,16
 259 896 259 896 357 1020.5 c 128,-1,17
 455 1145 455 1145 589.5 1212 c 128,-1,18
 724 1279 724 1279 865 1279 c 0,19,20
 1064 1279 1064 1279 1190.5 1153 c 128,-1,21
 1317 1027 1317 1027 1317 837 c 0,22,23
 1317 787 1317 787 1309 744 c 2,24,-1
 1178 0 l 1,25,-1
 998 0 l 1,26,-1
 1129 744 l 2,0,1
EndSplineSet
EndChar

StartChar: uni0E02
Encoding: 3586 3586 125
Width: 1352
VWidth: 2045
Flags: W
HStem: 0 178<413 501 681 1004> 699 133<390.572 546.393> 1101 178<653.017 752.481> 1234 20G<1190.47 1374>
VStem: 250 134<838.267 987.191> 567 138<852.18 1003.88> 793 183<814.489 1060.35>
DStem2: 469.614 0 649.614 0 0.173648 0.984808<212.003 682.281> 972.614 0 1153 0 0.173648 0.984808<180.746 1273.39>
LayerCount: 3
Fore
SplineSet
705 962 m 0xee
 705 813 571 699 436 699 c 0
 351 699 250 746 250 887 c 0
 250 1080 439 1279 675 1279 c 0xee
 848 1279 976 1159 976 983 c 0
 976 685 773 698 738 499 c 2
 681 178 l 1
 1004 178 l 1
 1194 1254 l 1
 1374 1254 l 1xde
 1153 0 l 1
 382 0 l 1
 413 178 l 1
 501 178 l 1
 558 499 l 2
 609 789 793 742 793 948 c 0
 793 1048 722 1101 643 1101 c 1
 658 1085 705 1043 705 962 c 0xee
461 832 m 0
 520 832 567 882 567 937 c 0
 567 977 538 1010 492 1010 c 0
 438 1010 384 965 384 907 c 0
 384 867 412 832 461 832 c 0
EndSplineSet
Validated: 1
Layer: 2
SplineSet
705 962 m 0,0,1
 705 853 705 853 622.5 776 c 128,-1,2
 540 699 540 699 436 699 c 0,3,4
 402 699 402 699 370.5 709 c 128,-1,5
 339 719 339 719 311.5 740 c 128,-1,6
 284 761 284 761 267 799 c 128,-1,7
 250 837 250 837 250 887 c 0,8,9
 250 959 250 959 283.5 1029.5 c 128,-1,10
 317 1100 317 1100 373.5 1155.5 c 128,-1,11
 430 1211 430 1211 509.5 1245 c 128,-1,12
 589 1279 589 1279 675 1279 c 0,13,14
 806 1279 806 1279 891 1196.5 c 128,-1,15
 976 1114 976 1114 976 983 c 0,16,17
 976 913 976 913 960.5 857.5 c 128,-1,18
 945 802 945 802 922 769 c 128,-1,19
 899 736 899 736 870 704 c 128,-1,20
 841 672 841 672 815 647 c 128,-1,21
 789 622 789 622 767.5 583.5 c 128,-1,22
 746 545 746 545 738 499 c 2,23,-1
 681 178 l 1,24,-1
 1004 178 l 1,25,-1
 1194 1254 l 1,26,-1
 1374 1254 l 1,27,-1
 1153 0 l 1,28,-1
 382 0 l 1,29,-1
 413 178 l 1,30,-1
 501 178 l 1,31,-1
 558 499 l 2,32,33
 568 558 568 558 587 604 c 128,-1,34
 606 650 606 650 627 679 c 128,-1,35
 648 708 648 708 671.5 732 c 128,-1,36
 695 756 695 756 716.5 776.5 c 128,-1,37
 738 797 738 797 755 819.5 c 128,-1,38
 772 842 772 842 782.5 874 c 128,-1,39
 793 906 793 906 793 948 c 0,40,41
 793 1020 793 1020 749.5 1060.5 c 128,-1,42
 706 1101 706 1101 643 1101 c 1,43,-1
 649 1095 l 2,44,45
 655 1089 655 1089 657 1086 c 128,-1,46
 659 1083 659 1083 665.5 1076 c 128,-1,47
 672 1069 672 1069 675.5 1063 c 128,-1,48
 679 1057 679 1057 684 1048 c 128,-1,49
 689 1039 689 1039 692 1030 c 128,-1,50
 695 1021 695 1021 698.5 1010.5 c 128,-1,51
 702 1000 702 1000 703.5 987.5 c 128,-1,52
 705 975 705 975 705 962 c 0,0,1
461 832 m 0,53,54
 505 832 505 832 536 863.5 c 128,-1,55
 567 895 567 895 567 937 c 0,56,57
 567 968 567 968 546.5 989 c 128,-1,58
 526 1010 526 1010 492 1010 c 0,59,60
 450 1010 450 1010 417 979.5 c 128,-1,61
 384 949 384 949 384 907 c 0,62,63
 384 876 384 876 405 854 c 128,-1,64
 426 832 426 832 461 832 c 0,53,54
EndSplineSet
EndChar

StartChar: uni0E03
Encoding: 3587 3587 126
Width: 1376
VWidth: 2045
Flags: W
HStem: 0 178<464 555 735 1057> 607 133<332.296 484.778> 918 132<407.899 502.201> 1063 21G<607.525 675.721> 1254 5G<444.5 567.361 787.482 864 1243.47 1427>
VStem: 180 146<747.43 893.622> 509 139<763.473 912.267> 847 185<828.037 1080.1>
DStem2: 523.614 0 703.614 0 0.173648 0.984808<212.003 664.745> 1025.61 0 1206 0 0.173648 0.984808<180.746 1273.39>
LayerCount: 3
Fore
SplineSet
648 875 m 0
 648 711 501 607 378 607 c 0
 281 607 180 674 180 825 c 0
 180 1060 352 1247 537 1279 c 1
 663 1196 l 1
 827 1279 l 1
 901 1258 1032 1187 1032 1008 c 0
 1032 719 819 651 787 470 c 2
 735 178 l 1
 1057 178 l 1
 1247 1254 l 1
 1427 1254 l 1
 1206 0 l 1
 433 0 l 1
 464 178 l 1
 555 178 l 1
 606 465 l 2
 654 736 847 784 847 962 c 0
 847 1055 786 1106 751 1124 c 1
 639 1063 l 1
 543 1124 l 1
 481 1120 437 1091 407 1036 c 1
 432 1045 457 1050 475 1050 c 0
 539 1050 648 996 648 875 c 0
401 740 m 0
 455 740 509 789 509 845 c 0
 509 885 479 918 433 918 c 0
 378 918 326 872 326 814 c 0
 326 770 360 740 401 740 c 0
EndSplineSet
Validated: 1
Layer: 2
SplineSet
648 875 m 0,0,1
 648 759 648 759 563 683 c 128,-1,2
 478 607 478 607 378 607 c 0,3,4
 298 607 298 607 239 663 c 128,-1,5
 180 719 180 719 180 825 c 0,6,7
 180 996 180 996 286.5 1125 c 128,-1,8
 393 1254 393 1254 537 1279 c 1,9,-1
 663 1196 l 1,10,-1
 827 1279 l 1,11,12
 860 1270 860 1270 891.5 1252 c 128,-1,13
 923 1234 923 1234 956.5 1203.5 c 128,-1,14
 990 1173 990 1173 1011 1122 c 128,-1,15
 1032 1071 1032 1071 1032 1008 c 0,16,17
 1032 927 1032 927 1010 859.5 c 128,-1,18
 988 792 988 792 954.5 744.5 c 128,-1,19
 921 697 921 697 887 655.5 c 128,-1,20
 853 614 853 614 824.5 566.5 c 128,-1,21
 796 519 796 519 787 470 c 2,22,-1
 735 178 l 1,23,-1
 1057 178 l 1,24,-1
 1247 1254 l 1,25,-1
 1427 1254 l 1,26,-1
 1206 0 l 1,27,-1
 433 0 l 1,28,-1
 464 178 l 1,29,-1
 555 178 l 1,30,-1
 606 465 l 2,31,32
 619 539 619 539 649 602 c 128,-1,33
 679 665 679 665 712 707 c 128,-1,34
 745 749 745 749 776 787 c 128,-1,35
 807 825 807 825 827 869 c 128,-1,36
 847 913 847 913 847 962 c 0,37,38
 847 1024 847 1024 817 1065 c 128,-1,39
 787 1106 787 1106 751 1124 c 1,40,-1
 639 1063 l 1,41,-1
 543 1124 l 1,42,43
 452 1118 452 1118 407 1036 c 1,44,45
 446 1050 446 1050 475 1050 c 0,46,47
 534 1050 534 1050 591 1003.5 c 128,-1,48
 648 957 648 957 648 875 c 0,0,1
401 740 m 0,49,50
 442 740 442 740 475.5 772 c 128,-1,51
 509 804 509 804 509 845 c 0,52,53
 509 876 509 876 488 897 c 128,-1,54
 467 918 467 918 433 918 c 0,55,56
 391 918 391 918 358.5 887.5 c 128,-1,57
 326 857 326 857 326 814 c 0,58,59
 326 782 326 782 348 761 c 128,-1,60
 370 740 370 740 401 740 c 0,49,50
EndSplineSet
EndChar

StartChar: uni0E04
Encoding: 3588 3588 127
Width: 1407
VWidth: 2045
Flags: W
HStem: 0 21G<161 351.758 1040 1223.52> 463 133<720.756 876.747> 774 133<736.19 892.475> 1101 178<702.652 1051.72>
VStem: 898 138<618.547 767.145> 1178 182<667.814 972.269>
DStem2: 161 0 341.459 0 0.173648 0.984808<368.458 974.95> 400 332 341 0 0.473702 0.880685<0 279.197> 1040 0 1220 0 0.173648 0.984808<31.2567 827.488>
LayerCount: 3
Fore
SplineSet
1036 724 m 0
 1036 574 897 463 768 463 c 0
 705 463 657 485 625 528 c 1
 341 0 l 1
 161 0 l 1
 292 744 l 2
 357 1110 675 1279 917 1279 c 0
 1169 1279 1360 1107 1360 846 c 0
 1360 813 1357 779 1351 744 c 2
 1220 0 l 1
 1040 0 l 1
 1171 743 l 2
 1176 769 1178 794 1178 817 c 0
 1178 994 1054 1101 885 1101 c 0
 675 1101 507 942 472 744 c 2
 400 332 l 1
 619 779 l 2
 639 820 728 907 846 907 c 0
 962 907 1036 827 1036 724 c 0
791 596 m 0
 842 596 898 639 898 701 c 0
 898 742 868 774 822 774 c 0
 768 774 715 727 715 669 c 0
 715 625 751 596 791 596 c 0
EndSplineSet
Validated: 1
Layer: 2
SplineSet
1036 724 m 0,0,1
 1036 616 1036 616 952.5 539.5 c 128,-1,2
 869 463 869 463 768 463 c 0,3,4
 673 463 673 463 625 528 c 1,5,-1
 341 0 l 1,6,-1
 161 0 l 1,7,-1
 292 744 l 2,8,9
 311 850 311 850 359 940 c 128,-1,10
 407 1030 407 1030 470.5 1091 c 128,-1,11
 534 1152 534 1152 611 1195.5 c 128,-1,12
 688 1239 688 1239 765.5 1259 c 128,-1,13
 843 1279 843 1279 917 1279 c 0,14,15
 1109 1279 1109 1279 1234.5 1159 c 128,-1,16
 1360 1039 1360 1039 1360 846 c 0,17,18
 1360 796.5 1360 796.5 1351 744 c 2,19,-1
 1220 0 l 1,20,-1
 1040 0 l 1,21,-1
 1171 743 l 2,22,23
 1178 779 1178 779 1178 817 c 0,24,25
 1178 947 1178 947 1096 1024 c 128,-1,26
 1014 1101 1014 1101 885 1101 c 0,27,28
 730 1101 730 1101 614.5 998 c 128,-1,29
 499 895 499 895 472 744 c 2,30,-1
 400 332 l 1,31,-1
 619 779 l 2,32,33
 639 820 639 820 703 863.5 c 128,-1,34
 767 907 767 907 846 907 c 0,35,36
 931 907 931 907 983.5 855 c 128,-1,37
 1036 803 1036 803 1036 724 c 0,0,1
791 596 m 0,38,39
 831 596 831 596 864.5 626 c 128,-1,40
 898 656 898 656 898 701 c 0,41,42
 898 732 898 732 877 753 c 128,-1,43
 856 774 856 774 822 774 c 0,44,45
 781 774 781 774 748 743 c 128,-1,46
 715 712 715 712 715 669 c 0,47,48
 715 637 715 637 737.5 616.5 c 128,-1,49
 760 596 760 596 791 596 c 0,38,39
EndSplineSet
EndChar

StartChar: uni0E05
Encoding: 3589 3589 128
Width: 1426
VWidth: 2045
Flags: W
HStem: 0 21G<164 357.636 1066 1249.53> 429 134<731.766 885.17> 742 134<747.734 901.075> 1259 20G<602.5 726.6 1130.47 1238.5>
VStem: 907 139<584.475 735.824> 1227 178<773.361 1064.43>
DStem2: 164 0 343.633 0 0.173648 0.984808<350.037 1077.65> 399 314 346 0 0.502894 0.864348<0 274.627> 906 1129 875 952 0.86535 0.501168<0 205.078> 1066 0 1246 0 0.173648 0.984808<31.2567 968.09>
LayerCount: 3
Fore
SplineSet
1046 692 m 0
 1046 536 904 429 777 429 c 0
 714 429 666 452 634 495 c 1
 346 0 l 1
 164 0 l 1
 314 850 l 2
 355 1085 506 1243 699 1279 c 1
 906 1129 l 1
 1165 1279 l 1
 1312 1252 1405 1126 1405 949 c 0
 1405 918 1402 884 1396 850 c 2
 1246 0 l 1
 1066 0 l 1
 1216 848 l 2
 1224 892 1227 927 1227 956 c 0
 1227 1035 1197 1066 1133 1100 c 1
 875 952 l 1
 678 1097 l 1
 660 1095 532 1063 494 850 c 2
 399 314 l 1
 629 746 l 2
 657 799 740 876 858 876 c 0
 963 876 1046 801 1046 692 c 0
800 563 m 0
 855 563 907 610 907 668 c 0
 907 711 875 742 832 742 c 0
 783 742 725 699 725 637 c 0
 725 594 759 563 800 563 c 0
EndSplineSet
Validated: 1
Layer: 2
SplineSet
1046 692 m 0,0,1
 1046 580 1046 580 962 504.5 c 128,-1,2
 878 429 878 429 777 429 c 0,3,4
 683 429 683 429 634 495 c 1,5,-1
 346 0 l 1,6,-1
 164 0 l 1,7,-1
 314 850 l 2,8,9
 344 1024 344 1024 448 1138 c 128,-1,10
 552 1252 552 1252 699 1279 c 1,11,-1
 906 1129 l 1,12,-1
 1165 1279 l 1,13,14
 1276 1259 1276 1259 1340.5 1170 c 128,-1,15
 1405 1081 1405 1081 1405 949 c 0,16,17
 1405 901 1405 901 1396 850 c 2,18,-1
 1246 0 l 1,19,-1
 1066 0 l 1,20,-1
 1216 848 l 2,21,22
 1227 909 1227 909 1227 956 c 0,23,24
 1227 1012 1227 1012 1205.5 1042.5 c 128,-1,25
 1184 1073 1184 1073 1133 1100 c 1,26,-1
 875 952 l 1,27,-1
 678 1097 l 1,28,29
 669 1096 669 1096 655.5 1091.5 c 128,-1,30
 642 1087 642 1087 617 1070.5 c 128,-1,31
 592 1054 592 1054 570 1029 c 128,-1,32
 548 1004 548 1004 526.5 957 c 128,-1,33
 505 910 505 910 494 850 c 2,34,-1
 399 314 l 1,35,-1
 629 746 l 2,36,37
 654 794 654 794 716 835 c 128,-1,38
 778 876 778 876 858 876 c 128,-1,39
 938 876 938 876 992 824.5 c 128,-1,40
 1046 773 1046 773 1046 692 c 0,0,1
800 563 m 0,41,42
 842 563 842 563 874.5 594 c 128,-1,43
 907 625 907 625 907 668 c 0,44,45
 907 700 907 700 885.5 721 c 128,-1,46
 864 742 864 742 832 742 c 0,47,48
 793 742 793 742 759 711.5 c 128,-1,49
 725 681 725 681 725 637 c 0,50,51
 725 605 725 605 747 584 c 128,-1,52
 769 563 769 563 800 563 c 0,41,42
EndSplineSet
EndChar

StartChar: uni0E06
Encoding: 3590 3590 129
Width: 1576
VWidth: 2045
Flags: W
HStem: -11 177<486.599 639.74> 344 177<501.124 658.061> 607 133<411.568 562.578> 918 132<484.3 580.6> 1063 21G<683.525 752.049> 1254 5G<508.5 643.361 863.482 935.5 1435.47 1619>
VStem: 250 153<748.262 896.913> 299 181<172.561 321.104> 586 139<763.31 912.267> 924 187<819.095 1082.42>
DStem2: 867 412 835 234 0.853337 -0.52136<65.4953 447.973> 1215.67 -11 1396.06 -11 0.173648 0.984808<191.916 1284.56>
LayerCount: 3
Fore
SplineSet
725 875 m 0xfdc0
 725 711 578 607 455 607 c 0
 357 607 250 684 250 831 c 0xfec0
 250 1030 404 1243 613 1279 c 1
 739 1196 l 1
 903 1279 l 1
 968 1260 1111 1191 1111 1011 c 0
 1111 730 917 687 867 412 c 1
 1249 178 l 1
 1439 1254 l 1
 1619 1254 l 1
 1398 0 l 1
 1218 0 l 1
 835 234 l 17
 807 120 687 -11 524 -11 c 0
 392 -11 299 82 299 208 c 0
 299 388 461 521 618 521 c 0
 653 521 683 516 709 505 c 1
 799 794 924 790 924 963 c 0
 924 1055 866 1104 828 1124 c 1
 715 1063 l 1
 619 1124 l 1
 559 1120 514 1091 483 1036 c 1
 511 1045 534 1050 551 1050 c 0
 616 1050 725 996 725 875 c 0xfdc0
555 166 m 0
 611 166 663 213 663 272 c 0
 663 313 635 344 587 344 c 0
 530 344 480 299 480 239 c 0xfdc0
 480 198 509 166 555 166 c 0
478 740 m 0
 526 740 586 783 586 845 c 0
 586 885 556 918 510 918 c 0
 454 918 403 871 403 815 c 0xfec0
 403 772 437 740 478 740 c 0
EndSplineSet
Validated: 1
Layer: 2
SplineSet
725 875 m 0,0,1
 725 759 725 759 640 683 c 128,-1,2
 555 607 555 607 455 607 c 0,3,4
 375 607 375 607 312.5 667 c 128,-1,5
 250 727 250 727 250 831 c 0,6,7
 250 930 250 930 296.5 1026.5 c 128,-1,8
 343 1123 343 1123 427.5 1192.5 c 128,-1,9
 512 1262 512 1262 613 1279 c 1,10,-1
 739 1196 l 1,11,-1
 903 1279 l 1,12,13
 933 1270 933 1270 964 1253.5 c 128,-1,14
 995 1237 995 1237 1030.5 1206.5 c 128,-1,15
 1066 1176 1066 1176 1088.5 1125 c 128,-1,16
 1111 1074 1111 1074 1111 1011 c 0,17,18
 1111 933 1111 933 1091 869 c 128,-1,19
 1071 805 1071 805 1039.5 756.5 c 128,-1,20
 1008 708 1008 708 975 662 c 128,-1,21
 942 616 942 616 911.5 551.5 c 128,-1,22
 881 487 881 487 867 412 c 1,23,-1
 1249 178 l 1,24,-1
 1439 1254 l 1,25,-1
 1619 1254 l 1,26,-1
 1398 0 l 1,27,-1
 1218 0 l 1,28,-1
 835 234 l 1,29,30
 812 140 812 140 725.5 64.5 c 128,-1,31
 639 -11 639 -11 524 -11 c 0,32,33
 425 -11 425 -11 362 51 c 128,-1,34
 299 113 299 113 299 208 c 0,35,36
 299 339 299 339 397.5 430 c 128,-1,37
 496 521 496 521 618 521 c 0,38,39
 671 521 671 521 709 505 c 1,40,41
 734 584 734 584 766 646 c 128,-1,42
 798 708 798 708 824 742.5 c 128,-1,43
 850 777 850 777 873.5 809 c 128,-1,44
 897 841 897 841 910.5 878 c 128,-1,45
 924 915 924 915 924 963 c 0,46,47
 924 1024 924 1024 894.5 1064 c 128,-1,48
 865 1104 865 1104 828 1124 c 1,49,-1
 715 1063 l 1,50,-1
 619 1124 l 1,51,52
 529 1118 529 1118 483 1036 c 1,53,54
 527 1050 527 1050 551 1050 c 0,55,56
 610 1050 610 1050 667.5 1003.5 c 128,-1,57
 725 957 725 957 725 875 c 0,0,1
555 166 m 0,58,59
 598 166 598 166 630.5 197 c 128,-1,60
 663 228 663 228 663 272 c 0,61,62
 663 304 663 304 642.5 324 c 128,-1,63
 622 344 622 344 587 344 c 0,64,65
 544 344 544 344 512 313.5 c 128,-1,66
 480 283 480 283 480 239 c 0,67,68
 480 208 480 208 500.5 187 c 128,-1,69
 521 166 521 166 555 166 c 0,58,59
478 740 m 0,70,71
 517 740 517 740 551.5 770.5 c 128,-1,72
 586 801 586 801 586 845 c 0,73,74
 586 876 586 876 565 897 c 128,-1,75
 544 918 544 918 510 918 c 0,76,77
 468 918 468 918 435.5 887.5 c 128,-1,78
 403 857 403 857 403 815 c 0,79,80
 403 783 403 783 425 761.5 c 128,-1,81
 447 740 447 740 478 740 c 0,70,71
EndSplineSet
EndChar

StartChar: uni0E07
Encoding: 3591 3591 130
Width: 1031
VWidth: 2045
Flags: W
HStem: 0 21G<648.292 848.526> 833 134<720.286 811.059> 1146 133<735.681 890.26>
VStem: 578 136<974.575 1123.15> 897 137<988.313 1138.59>
DStem2: 316 681 188 571 0.641109 -0.76745<2.35745 603.312> 665.384 0 845 0 0.173648 0.984808<222.378 850.902>
LayerCount: 3
Fore
SplineSet
578 1018 m 0
 578 1166 714 1279 845 1279 c 0
 955 1279 1034 1200 1034 1094 c 0
 1034 1081 1033 1068 1031 1055 c 2
 845 0 l 1
 665 0 l 1
 188 571 l 1
 316 681 l 1
 704 219 l 1
 813 838 l 1
 795 835 780 833 767 833 c 0
 652 833 578 915 578 1018 c 0
791 967 m 0
 845 967 897 1013 897 1072 c 0
 897 1113 868 1146 822 1146 c 0
 766 1146 714 1099 714 1040 c 0
 714 998 745 967 791 967 c 0
EndSplineSet
Validated: 1
Layer: 2
SplineSet
578 1018 m 0,0,1
 578 1126 578 1126 660.5 1202.5 c 128,-1,2
 743 1279 743 1279 845 1279 c 0,3,4
 927 1279 927 1279 980.5 1226.5 c 128,-1,5
 1034 1174 1034 1174 1034 1094 c 0,6,7
 1034 1074.5 1034 1074.5 1031 1055 c 2,8,-1
 845 0 l 1,9,-1
 665 0 l 1,10,-1
 188 571 l 1,11,-1
 316 681 l 1,12,-1
 704 219 l 1,13,-1
 813 838 l 1,14,15
 783 833 783 833 767 833 c 0,16,17
 682 833 682 833 630 886 c 128,-1,18
 578 939 578 939 578 1018 c 0,0,1
791 967 m 0,19,20
 832 967 832 967 864.5 998 c 128,-1,21
 897 1029 897 1029 897 1072 c 0,22,23
 897 1104 897 1104 876.5 1125 c 128,-1,24
 856 1146 856 1146 822 1146 c 0,25,26
 779 1146 779 1146 746.5 1115 c 128,-1,27
 714 1084 714 1084 714 1040 c 0,28,29
 714 1008 714 1008 735.5 987.5 c 128,-1,30
 757 967 757 967 791 967 c 0,19,20
EndSplineSet
EndChar

StartChar: uni0E08
Encoding: 3592 3592 131
Width: 1288
VWidth: 2045
Flags: W
HStem: 0 21G<757.424 951.738> 431 134<600.953 744.995> 744 133<617.143 771.297> 1101 178<629.873 950.721>
VStem: 251 180<789 899.467> 458 136<572.739 721.745> 745 167<356 451> 777 137<585.924 736.391> 1064 183<669.761 988.721>
DStem2: 912 356 944 0 0.360838 0.932628<0 508.272>
LayerCount: 3
Fore
SplineSet
458 616 m 0xfe80
 458 771 600 877 725 877 c 0
 877 877 914 754 914 706 c 2xfd80
 912 356 l 1
 1036 712 l 2
 1059 779 1064 784 1064 845 c 0
 1064 993 951 1101 800 1101 c 0
 624 1101 462 963 431 789 c 1
 251 789 l 17
 299 1059 556 1279 832 1279 c 0
 1078 1279 1247 1102 1247 874 c 0
 1247 792 1231 744 1204 672 c 2
 944 0 l 1
 758 0 l 1
 745 451 l 1
 714 438 681 431 648 431 c 0
 532 431 458 513 458 616 c 0xfe80
671 565 m 0
 726 565 777 612 777 671 c 0
 777 716 743 744 702 744 c 0
 653 744 594 701 594 639 c 0
 594 598 625 565 671 565 c 0
EndSplineSet
Validated: 1
Layer: 2
SplineSet
458 616 m 0,0,1
 458 727 458 727 541.5 802 c 128,-1,2
 625 877 625 877 725 877 c 0,3,4
 778 877 778 877 818 857.5 c 128,-1,5
 858 838 858 838 877 809 c 128,-1,6
 896 780 896 780 905 753.5 c 128,-1,7
 914 727 914 727 914 706 c 2,8,-1
 912 356 l 1,9,-1
 1036 712 l 2,10,11
 1039 721 1039 721 1044.5 737 c 128,-1,12
 1050 753 1050 753 1051.5 757.5 c 128,-1,13
 1053 762 1053 762 1056.5 773 c 128,-1,14
 1060 784 1060 784 1060.5 788.5 c 128,-1,15
 1061 793 1061 793 1062.5 803 c 128,-1,16
 1064 813 1064 813 1064 822.5 c 128,-1,17
 1064 832 1064 832 1064 845 c 0,18,19
 1064 956 1064 956 989 1028.5 c 128,-1,20
 914 1101 914 1101 800 1101 c 0,21,22
 668 1101 668 1101 561 1010.5 c 128,-1,23
 454 920 454 920 431 789 c 1,24,-1
 251 789 l 1,25,26
 287 992 287 992 456.5 1135.5 c 128,-1,27
 626 1279 626 1279 832 1279 c 0,28,29
 1014 1279 1014 1279 1130.5 1163 c 128,-1,30
 1247 1047 1247 1047 1247 874 c 0,31,32
 1247 817 1247 817 1237 775.5 c 128,-1,33
 1227 734 1227 734 1204 672 c 2,34,-1
 944 0 l 1,35,-1
 758 0 l 1,36,-1
 745 451 l 1,37,38
 697 431 697 431 648 431 c 0,39,40
 563 431 563 431 510.5 484 c 128,-1,41
 458 537 458 537 458 616 c 0,0,1
671 565 m 0,42,43
 713 565 713 565 745 596 c 128,-1,44
 777 627 777 627 777 671 c 0,45,46
 777 704 777 704 755.5 724 c 128,-1,47
 734 744 734 744 702 744 c 0,48,49
 663 744 663 744 628.5 713.5 c 128,-1,50
 594 683 594 683 594 639 c 0,51,52
 594 608 594 608 615.5 586.5 c 128,-1,53
 637 565 637 565 671 565 c 0,42,43
EndSplineSet
EndChar

StartChar: uni0E09
Encoding: 3593 3593 132
Width: 1466
VWidth: 2045
Flags: W
HStem: -11 134<1070.15 1225.45> 350 134<390.863 481.993> 662 133<407.79 561.377> 1101 178<682.428 1025.15>
VStem: 246 139<490.277 640.951> 567 138<507.371 654.871> 928 136<129.826 169> 1165 182<534.156 962.542> 1247 137<145.918 295.141>
DStem2: 632 175 601 0 0.889068 0.457775<0 260.417> 1026.53 -11 1206.53 -11 0.173648 0.984808<447.599 827.708>
LayerCount: 3
Fore
SplineSet
246 526 m 0xfe80
 246 684 379 795 515 795 c 0
 631 795 705 714 705 611 c 0
 705 598 704 585 702 572 c 2
 632 175 l 1
 1102 417 l 1
 1159 743 l 2
 1163 764 1165 786 1165 806 c 0
 1165 971 1044 1101 862 1101 c 0
 655 1101 518 943 473 851 c 1
 311 904 l 17
 409 1099 630 1279 894 1279 c 0
 1163 1279 1347 1086 1347 836 c 0xff
 1347 806 1345 775 1339 743 c 2
 1282 417 l 1
 1321 401 1384 349 1384 254 c 0
 1384 101 1247 -11 1116 -11 c 0
 984 -11 929 87 928 169 c 1
 601 0 l 1
 421 0 l 1
 483 354 l 1
 469 351 455 350 437 350 c 0
 286 350 246 443 246 526 c 0xfe80
1140 123 m 0
 1195 123 1247 170 1247 227 c 0xfe80
 1247 270 1212 302 1171 302 c 0
 1123 302 1064 260 1064 197 c 0
 1064 156 1095 123 1140 123 c 0
460 484 m 0
 511 484 567 526 567 588 c 0
 567 628 540 662 492 662 c 0
 437 662 385 615 385 557 c 0
 385 513 420 484 460 484 c 0
EndSplineSet
Validated: 1
Layer: 2
SplineSet
246 526 m 0,0,1
 246 641 246 641 327.5 718 c 128,-1,2
 409 795 409 795 515 795 c 0,3,4
 600 795 600 795 652.5 742.5 c 128,-1,5
 705 690 705 690 705 611 c 0,6,7
 705 591.5 705 591.5 702 572 c 2,8,-1
 632 175 l 1,9,-1
 1102 417 l 1,10,-1
 1159 743 l 2,11,12
 1165 774 1165 774 1165 806 c 0,13,14
 1165 932 1165 932 1080.5 1016.5 c 128,-1,15
 996 1101 996 1101 862 1101 c 0,16,17
 789 1101 789 1101 721.5 1075.5 c 128,-1,18
 654 1050 654 1050 606 1010 c 128,-1,19
 558 970 558 970 525 929.5 c 128,-1,20
 492 889 492 889 473 851 c 1,21,-1
 311 904 l 1,22,23
 390 1061 390 1061 548 1170 c 128,-1,24
 706 1279 706 1279 894 1279 c 0,25,26
 1093 1279 1093 1279 1220 1152.5 c 128,-1,27
 1347 1026 1347 1026 1347 836 c 0,28,29
 1347 786 1347 786 1339 743 c 2,30,-1
 1282 417 l 1,31,32
 1320 402 1320 402 1352 360 c 128,-1,33
 1384 318 1384 318 1384 254 c 0,34,35
 1384 143 1384 143 1301 66 c 128,-1,36
 1218 -11 1218 -11 1116 -11 c 0,37,38
 1025 -11 1025 -11 977 44 c 128,-1,39
 929 99 929 99 928 169 c 1,40,-1
 601 0 l 1,41,-1
 421 0 l 1,42,-1
 483 354 l 1,43,44
 464 350 464 350 437 350 c 0,45,46
 334 350 334 350 290 401 c 128,-1,47
 246 452 246 452 246 526 c 0,0,1
1140 123 m 0,48,49
 1182 123 1182 123 1214.5 154 c 128,-1,50
 1247 185 1247 185 1247 227 c 0,51,52
 1247 259 1247 259 1224.5 280.5 c 128,-1,53
 1202 302 1202 302 1171 302 c 0,54,55
 1132 302 1132 302 1098 272 c 128,-1,56
 1064 242 1064 242 1064 197 c 0,57,58
 1064 166 1064 166 1085.5 144.5 c 128,-1,59
 1107 123 1107 123 1140 123 c 0,48,49
460 484 m 0,60,61
 501 484 501 484 534 514 c 128,-1,62
 567 544 567 544 567 588 c 0,63,64
 567 619 567 619 547 640.5 c 128,-1,65
 527 662 527 662 492 662 c 0,66,67
 450 662 450 662 417.5 631 c 128,-1,68
 385 600 385 600 385 557 c 0,69,70
 385 525 385 525 407 504.5 c 128,-1,71
 429 484 429 484 460 484 c 0,60,61
EndSplineSet
EndChar

StartChar: uni0E0A
Encoding: 3594 3594 133
Width: 1355
VWidth: 2045
Flags: W
HStem: 0 178<403 491 671 994> 699 133<380.805 534.427> 1101 178<643.017 742.481>
VStem: 240 134<838.565 984.609> 557 138<853.004 1004.21> 783 183<810.716 1060.35> 1105 183<723.15 845.76> 1313 180<1228.94 1362>
DStem2: 459.614 0 639.614 0 0.173648 0.984808<212.003 683.013> 962.614 0 1143 0 0.173648 0.984808<180.746 823.404>
LayerCount: 3
Fore
SplineSet
695 958 m 0
 695 804 554 699 426 699 c 0
 341 699 240 746 240 887 c 0
 240 1067 429 1279 665 1279 c 0
 838 1279 966 1159 966 983 c 0
 966 689 763 698 728 499 c 2
 671 178 l 1
 994 178 l 1
 1105 804 l 1
 1105 811 l 2
 1105 829 1092 841 1066 846 c 1
 1098 1024 l 1
 1162 1071 1282 1185 1313 1362 c 1
 1493 1362 l 1
 1456 1153 1353 1033 1257 942 c 1
 1278 911 1288 877 1288 841 c 0
 1288 829 1287 817 1285 804 c 2
 1143 0 l 1
 372 0 l 1
 403 178 l 1
 491 178 l 1
 548 499 l 2
 599 789 783 740 783 948 c 0
 783 1048 712 1101 633 1101 c 1
 669 1062 695 1016 695 958 c 0
451 832 m 0
 507 832 557 881 557 937 c 0
 557 977 528 1010 482 1010 c 0
 433 1010 374 968 374 907 c 0
 374 866 405 832 451 832 c 0
EndSplineSet
Validated: 1
Layer: 2
SplineSet
695 958 m 0,0,1
 695 848 695 848 611.5 773.5 c 128,-1,2
 528 699 528 699 426 699 c 0,3,4
 392 699 392 699 360.5 709 c 128,-1,5
 329 719 329 719 301.5 740 c 128,-1,6
 274 761 274 761 257 799 c 128,-1,7
 240 837 240 837 240 887 c 0,8,9
 240 954 240 954 273.5 1024 c 128,-1,10
 307 1094 307 1094 363 1150.5 c 128,-1,11
 419 1207 419 1207 499.5 1243 c 128,-1,12
 580 1279 580 1279 665 1279 c 0,13,14
 796 1279 796 1279 881 1196.5 c 128,-1,15
 966 1114 966 1114 966 983 c 0,16,17
 966 914 966 914 950.5 859 c 128,-1,18
 935 804 935 804 912 771 c 128,-1,19
 889 738 889 738 860 705.5 c 128,-1,20
 831 673 831 673 805 647.5 c 128,-1,21
 779 622 779 622 757.5 583.5 c 128,-1,22
 736 545 736 545 728 499 c 2,23,-1
 671 178 l 1,24,-1
 994 178 l 1,25,-1
 1105 804 l 1,26,-1
 1105 811 l 2,27,28
 1105 838 1105 838 1066 846 c 1,29,-1
 1098 1024 l 1,30,31
 1127 1045 1127 1045 1155.5 1073 c 128,-1,32
 1184 1101 1184 1101 1217 1143 c 128,-1,33
 1250 1185 1250 1185 1276 1242.5 c 128,-1,34
 1302 1300 1302 1300 1313 1362 c 1,35,-1
 1493 1362 l 1,36,37
 1468 1221 1468 1221 1407 1123.5 c 128,-1,38
 1346 1026 1346 1026 1257 942 c 1,39,40
 1288 896 1288 896 1288 841 c 0,41,42
 1288 824 1288 824 1285 804 c 2,43,-1
 1143 0 l 1,44,-1
 372 0 l 1,45,-1
 403 178 l 1,46,-1
 491 178 l 1,47,-1
 548 499 l 2,48,49
 560 567 560 567 583 618.5 c 128,-1,50
 606 670 606 670 631.5 698 c 128,-1,51
 657 726 657 726 684.5 754 c 128,-1,52
 712 782 712 782 733.5 804 c 128,-1,53
 755 826 755 826 769 862.5 c 128,-1,54
 783 899 783 899 783 948 c 0,55,56
 783 1020 783 1020 739.5 1060.5 c 128,-1,57
 696 1101 696 1101 633 1101 c 1,58,59
 695 1034 695 1034 695 958 c 0,0,1
451 832 m 0,60,61
 493 832 493 832 525 863.5 c 128,-1,62
 557 895 557 895 557 937 c 0,63,64
 557 968 557 968 536.5 989 c 128,-1,65
 516 1010 516 1010 482 1010 c 0,66,67
 443 1010 443 1010 408.5 980 c 128,-1,68
 374 950 374 950 374 907 c 0,69,70
 374 876 374 876 395.5 854 c 128,-1,71
 417 832 417 832 451 832 c 0,60,61
EndSplineSet
EndChar

StartChar: uni0E0B
Encoding: 3595 3595 134
Width: 1440
VWidth: 2045
Flags: W
HStem: 0 178<508 596 776 1099> 607 133<375.292 528.756> 918 132<450.414 546.834> 1063 21G<650.525 718.721> 1259 20G<486.5 609.602 829.723 908>
VStem: 222 146<745.961 893.072> 552 137<763.049 912.417> 890 185<829.698 1083.51> 1418 180<1231.29 1362>
DStem2: 564.614 0 744.614 0 0.173648 0.984808<212.003 657.777> 1067.61 0 1248 0 0.173648 0.984808<180.746 851.225>
LayerCount: 3
Fore
SplineSet
444 740 m 0
 503 740 552 790 552 845 c 0
 552 882 528 918 476 918 c 0
 413 918 368 867 368 815 c 0
 368 775 395 740 444 740 c 0
689 875 m 0
 689 712 546 607 421 607 c 0
 314 607 222 682 222 824 c 0
 222 1058 394 1246 579 1279 c 1
 706 1196 l 1
 869 1279 l 1
 947 1258 1075 1186 1075 1006 c 0
 1075 723 859 650 827 467 c 2
 776 178 l 1
 1099 178 l 1
 1210 804 l 2
 1214 826 1201 840 1172 846 c 1
 1204 1024 l 1
 1299 1095 1391 1207 1418 1362 c 1
 1598 1362 l 1
 1562 1159 1457 1032 1362 942 c 1
 1383 911 1393 877 1393 841 c 0
 1393 829 1392 817 1390 804 c 2
 1248 0 l 1
 477 0 l 1
 508 178 l 1
 596 178 l 1
 647 465 l 2
 695 739 890 788 890 963 c 0
 890 1055 832 1104 794 1124 c 1
 682 1063 l 1
 586 1124 l 1
 525 1120 480 1091 449 1036 c 1
 476 1045 500 1050 518 1050 c 0
 581 1050 689 996 689 875 c 0
EndSplineSet
Validated: 1
Layer: 2
SplineSet
444 740 m 0,0,1
 488 740 488 740 520 771.5 c 128,-1,2
 552 803 552 803 552 845 c 0,3,4
 552 875 552 875 532.5 896.5 c 128,-1,5
 513 918 513 918 476 918 c 0,6,7
 430 918 430 918 399 886.5 c 128,-1,8
 368 855 368 855 368 815 c 0,9,10
 368 783 368 783 388.5 761.5 c 128,-1,11
 409 740 409 740 444 740 c 0,0,1
689 875 m 0,12,13
 689 759 689 759 605.5 683 c 128,-1,14
 522 607 522 607 421 607 c 0,15,16
 336 607 336 607 279 664.5 c 128,-1,17
 222 722 222 722 222 824 c 0,18,19
 222 994 222 994 328.5 1123.5 c 128,-1,20
 435 1253 435 1253 579 1279 c 1,21,-1
 706 1196 l 1,22,-1
 869 1279 l 1,23,24
 903 1270 903 1270 935 1252 c 128,-1,25
 967 1234 967 1234 1000.5 1203 c 128,-1,26
 1034 1172 1034 1172 1054.5 1121 c 128,-1,27
 1075 1070 1075 1070 1075 1006 c 0,28,29
 1075 927 1075 927 1052.5 860 c 128,-1,30
 1030 793 1030 793 996.5 745.5 c 128,-1,31
 963 698 963 698 928.5 655.5 c 128,-1,32
 894 613 894 613 865 564.5 c 128,-1,33
 836 516 836 516 827 467 c 2,34,-1
 776 178 l 1,35,-1
 1099 178 l 1,36,-1
 1210 804 l 2,37,38
 1216 837 1216 837 1172 846 c 1,39,-1
 1204 1024 l 1,40,41
 1382 1157 1382 1157 1418 1362 c 1,42,-1
 1598 1362 l 1,43,44
 1581 1267 1581 1267 1540.5 1182.5 c 128,-1,45
 1500 1098 1500 1098 1458.5 1046 c 128,-1,46
 1417 994 1417 994 1362 942 c 1,47,48
 1393 896 1393 896 1393 841 c 0,49,50
 1393 824 1393 824 1390 804 c 2,51,-1
 1248 0 l 1,52,-1
 477 0 l 1,53,-1
 508 178 l 1,54,-1
 596 178 l 1,55,-1
 647 465 l 2,56,57
 660 540 660 540 690.5 604 c 128,-1,58
 721 668 721 668 754 709.5 c 128,-1,59
 787 751 787 751 818 789.5 c 128,-1,60
 849 828 849 828 869.5 871.5 c 128,-1,61
 890 915 890 915 890 963 c 0,62,63
 890 1024 890 1024 860.5 1064 c 128,-1,64
 831 1104 831 1104 794 1124 c 1,65,-1
 682 1063 l 1,66,-1
 586 1124 l 1,67,68
 495 1118 495 1118 449 1036 c 1,69,70
 491 1050 491 1050 518 1050 c 0,71,72
 576 1050 576 1050 632.5 1003.5 c 128,-1,73
 689 957 689 957 689 875 c 0,12,13
EndSplineSet
EndChar

StartChar: uni0E0C
Encoding: 3596 3596 135
Width: 1924
VWidth: 2045
Flags: W
HStem: -11 134<413.437 569.301 946.414 1100.2> 302 133<493.898 583.345 962.662 1071> 744 178<547 638> 1101 178<651.245 991.219> 1234 20G<1774.47 1958>
VStem: 270 137<130.895 278.617> 590 138<146.524 294.895> 803 138<130.681 279.415> 1131 182<535.852 963.116>
DStem2: 233.855 -11 414.24 -11 0.173648 0.984808<479.127 766.65> 992.358 -11 1172.29 -11 0.173648 0.984808<441.626 828.679> 1240 373 1247 172 0.871308 -0.490737<104.737 399.4> 1554.85 -11 1735.06 -11 0.173648 0.984808<190.9 1284.53>
LayerCount: 3
Fore
SplineSet
803 174 m 0xef80
 803 324 941 435 1071 435 c 9
 1125 744 l 2
 1129 766 1131 786 1131 807 c 0
 1131 973 1010 1101 829 1101 c 0
 641 1101 524 971 485 922 c 1
 670 922 l 1
 638 744 l 1
 547 744 l 1
 492 430 l 1
 505 433 520 435 538 435 c 0
 649 435 728 357 728 252 c 0
 728 105 593 -11 459 -11 c 0
 346 -11 270 72 270 174 c 0
 270 186 271 199 273 211 c 2
 367 744 l 1
 226 744 l 1
 277 1036 559 1279 861 1279 c 0xf780
 1127 1279 1313 1086 1313 836 c 0
 1313 806 1311 775 1305 744 c 2
 1240 373 l 1
 1588 177 l 1
 1778 1254 l 1
 1958 1254 l 1
 1737 0 l 1
 1557 0 l 1
 1247 172 l 1
 1214 80 1114 -11 992 -11 c 0
 878 -11 803 71 803 174 c 0xef80
1016 123 m 0
 1070 123 1123 169 1123 228 c 0
 1123 272 1088 302 1047 302 c 0
 998 302 941 259 941 196 c 0
 941 151 977 123 1016 123 c 0
483 123 m 0
 533 123 590 166 590 228 c 0
 590 272 555 302 514 302 c 0
 460 302 407 255 407 197 c 0
 407 156 438 123 483 123 c 0
EndSplineSet
Validated: 1
Layer: 2
SplineSet
803 174 m 0,0,1
 803 283 803 283 886 359 c 128,-1,2
 969 435 969 435 1071 435 c 1,3,-1
 1125 744 l 2,4,5
 1131 777 1131 777 1131 807 c 0,6,7
 1131 933 1131 933 1047 1017 c 128,-1,8
 963 1101 963 1101 829 1101 c 0,9,10
 763 1101 763 1101 703 1081 c 128,-1,11
 643 1061 643 1061 599.5 1028.5 c 128,-1,12
 556 996 556 996 530.5 972 c 128,-1,13
 505 948 505 948 485 922 c 1,14,-1
 670 922 l 1,15,-1
 638 744 l 1,16,-1
 547 744 l 1,17,-1
 492 430 l 1,18,19
 514 435 514 435 538 435 c 0,20,21
 621 435 621 435 674.5 383 c 128,-1,22
 728 331 728 331 728 252 c 0,23,24
 728 144 728 144 645 66.5 c 128,-1,25
 562 -11 562 -11 459 -11 c 0,26,27
 376 -11 376 -11 323 42.5 c 128,-1,28
 270 96 270 96 270 174 c 0,29,30
 270 193 270 193 273 211 c 2,31,-1
 367 744 l 1,32,-1
 226 744 l 1,33,34
 251 888 251 888 344.5 1011 c 128,-1,35
 438 1134 438 1134 575.5 1206.5 c 128,-1,36
 713 1279 713 1279 861 1279 c 0,37,38
 1059 1279 1059 1279 1186 1152 c 128,-1,39
 1313 1025 1313 1025 1313 836 c 0,40,41
 1313 785 1313 785 1305 744 c 2,42,-1
 1240 373 l 1,43,-1
 1588 177 l 1,44,-1
 1778 1254 l 1,45,-1
 1958 1254 l 1,46,-1
 1737 0 l 1,47,-1
 1557 0 l 1,48,-1
 1247 172 l 1,49,50
 1221 98 1221 98 1150 43.5 c 128,-1,51
 1079 -11 1079 -11 992 -11 c 0,52,53
 908 -11 908 -11 855.5 42 c 128,-1,54
 803 95 803 95 803 174 c 0,0,1
1016 123 m 0,55,56
 1058 123 1058 123 1090.5 154 c 128,-1,57
 1123 185 1123 185 1123 228 c 0,58,59
 1123 260 1123 260 1100.5 281 c 128,-1,60
 1078 302 1078 302 1047 302 c 0,61,62
 1008 302 1008 302 974.5 271.5 c 128,-1,63
 941 241 941 241 941 196 c 0,64,65
 941 163 941 163 963 143 c 128,-1,66
 985 123 985 123 1016 123 c 0,55,56
483 123 m 0,67,68
 523 123 523 123 556.5 153.5 c 128,-1,69
 590 184 590 184 590 228 c 0,70,71
 590 260 590 260 567.5 281 c 128,-1,72
 545 302 545 302 514 302 c 0,73,74
 473 302 473 302 440 271 c 128,-1,75
 407 240 407 240 407 197 c 0,76,77
 407 166 407 166 428.5 144.5 c 128,-1,78
 450 123 450 123 483 123 c 0,67,68
EndSplineSet
EndChar

StartChar: uni0E0D
Encoding: 3597 3597 136
Width: 1924
VWidth: 2045
Flags: W
HStem: -577 192<1006.62 1292.66> -577 163<1238 1400.82> -207 134<1021.35 1177.03> -11 134<403.411 559.301> 0 178<1195 1578> 302 128<481.423 573.345> 744 178<536 628> 1101 178<641.122 981.042> 1234 20G<1764.47 1948>
VStem: 259 138<130.266 278.617> 580 138<146.524 294.895> 864 136<-376.885 -231.737> 1121 182<668.869 959.164> 1184 138<-362.815 -214.718>
DStem2: 123.054 -577 303.439 -577 0.173648 0.984808<1053.86 1341.38> 882.259 -577 1061.87 -577 0.173648 0.984808<797.837 1403.46> 1444.87 -577 1625.26 -577 0.173648 0.984808<766.647 1859.29>
LayerCount: 3
Fore
SplineSet
718 252 m 0x2f78
 718 105 583 -11 449 -11 c 0
 336 -11 259 70 259 173 c 0
 259 185 260 198 262 211 c 2
 356 744 l 1
 216 744 l 1
 267 1036 549 1279 851 1279 c 0x3778
 1116 1279 1303 1086 1303 836 c 0
 1303 806 1300 775 1295 744 c 2
 1195 178 l 1
 1578 178 l 1
 1768 1254 l 1
 1948 1254 l 1x2ef8
 1727 0 l 1
 984 0 l 25
 1115 744 l 2
 1119 766 1121 786 1121 807 c 0
 1121 973 1000 1101 819 1101 c 0
 632 1101 511 969 477 922 c 1
 660 922 l 1
 628 744 l 1
 536 744 l 1
 481 430 l 1
 493 433 509 435 528 435 c 0
 639 435 718 357 718 252 c 0x2f78
1322 -251 m 0xa674
 1322 -328 1283 -385 1238 -414 c 1x6674
 1425 -414 1532 -275 1604 -154 c 1
 1730 -249 l 1
 1599 -451 1432 -577 1175 -577 c 0
 959 -577 864 -470 864 -346 c 0
 864 -182 997 -73 1132 -73 c 0
 1241 -73 1322 -154 1322 -251 c 0xa674
1076 -385 m 0xa674
 1129 -385 1184 -338 1184 -281 c 0
 1184 -238 1149 -207 1108 -207 c 0
 1053 -207 1000 -254 1000 -311 c 0
 1000 -351 1030 -385 1076 -385 c 0xa674
473 123 m 0x3670
 523 123 580 166 580 228 c 0
 580 272 545 302 504 302 c 0
 450 302 397 255 397 197 c 0
 397 156 428 123 473 123 c 0x3670
EndSplineSet
Validated: 1
Layer: 2
SplineSet
718 252 m 0,0,1
 718 144 718 144 635 66.5 c 128,-1,2
 552 -11 552 -11 449 -11 c 0,3,4
 365 -11 365 -11 312 42 c 128,-1,5
 259 95 259 95 259 173 c 0,6,7
 259 191 259 191 262 211 c 2,8,-1
 356 744 l 1,9,-1
 216 744 l 1,10,11
 241 888 241 888 334.5 1011 c 128,-1,12
 428 1134 428 1134 565.5 1206.5 c 128,-1,13
 703 1279 703 1279 851 1279 c 0,14,15
 1048 1279 1048 1279 1175.5 1152 c 128,-1,16
 1303 1025 1303 1025 1303 836 c 0,17,18
 1303 794 1303 794 1295 744 c 2,19,-1
 1195 178 l 1,20,-1
 1578 178 l 1,21,-1
 1768 1254 l 1,22,-1
 1948 1254 l 1,23,-1
 1727 0 l 1,24,-1
 984 0 l 1,25,-1
 1115 744 l 2,26,27
 1121 777 1121 777 1121 807 c 0,28,29
 1121 933 1121 933 1037 1017 c 128,-1,30
 953 1101 953 1101 819 1101 c 0,31,32
 754 1101 754 1101 693 1080.5 c 128,-1,33
 632 1060 632 1060 589 1028 c 128,-1,34
 546 996 546 996 520 970.5 c 128,-1,35
 494 945 494 945 477 922 c 1,36,-1
 660 922 l 1,37,-1
 628 744 l 1,38,-1
 536 744 l 1,39,-1
 481 430 l 1,40,41
 501 435 501 435 528 435 c 0,42,43
 611 435 611 435 664.5 383 c 128,-1,44
 718 331 718 331 718 252 c 0,0,1
1322 -251 m 0,45,46
 1322 -306 1322 -306 1298.5 -348 c 128,-1,47
 1275 -390 1275 -390 1238 -414 c 1,48,49
 1305 -414 1305 -414 1363 -391.5 c 128,-1,50
 1421 -369 1421 -369 1465.5 -328 c 128,-1,51
 1510 -287 1510 -287 1541.5 -247 c 128,-1,52
 1573 -207 1573 -207 1604 -154 c 1,53,-1
 1730 -249 l 1,54,55
 1626 -409 1626 -409 1492.5 -493 c 128,-1,56
 1359 -577 1359 -577 1175 -577 c 0,57,58
 1021 -577 1021 -577 942.5 -511.5 c 128,-1,59
 864 -446 864 -446 864 -346 c 0,60,61
 864 -227 864 -227 945 -150 c 128,-1,62
 1026 -73 1026 -73 1132 -73 c 0,63,64
 1213 -73 1213 -73 1267.5 -125 c 128,-1,65
 1322 -177 1322 -177 1322 -251 c 0,45,46
1076 -385 m 0,66,67
 1117 -385 1117 -385 1150.5 -354 c 128,-1,68
 1184 -323 1184 -323 1184 -281 c 0,69,70
 1184 -249 1184 -249 1161.5 -228 c 128,-1,71
 1139 -207 1139 -207 1108 -207 c 0,72,73
 1066 -207 1066 -207 1033 -238 c 128,-1,74
 1000 -269 1000 -269 1000 -311 c 0,75,76
 1000 -342 1000 -342 1021 -363.5 c 128,-1,77
 1042 -385 1042 -385 1076 -385 c 0,66,67
473 123 m 0,78,79
 513 123 513 123 546.5 153.5 c 128,-1,80
 580 184 580 184 580 228 c 0,81,82
 580 260 580 260 557.5 281 c 128,-1,83
 535 302 535 302 504 302 c 0,84,85
 463 302 463 302 430 271 c 128,-1,86
 397 240 397 240 397 197 c 0,87,88
 397 166 397 166 418.5 144.5 c 128,-1,89
 440 123 440 123 473 123 c 0,78,79
EndSplineSet
Substitution2: "'ccmp' Pali-Sanskrit Descender Removal" uni0E0D.descless
Substitution2: "Thai Descender Removal Single Substitution" uni0E0D.descless
EndChar

StartChar: uni0E0E
Encoding: 3598 3598 137
Width: 1473
VWidth: 2045
Flags: W
HStem: -526 133<469.113 623.609> -214 133<485.719 639.055> -11 134<284.049 438.184> 302 133<300.513 454.163> 744 178<689 777> 1101 178<769.399 1112.72>
VStem: 140 138<130.37 279.12> 325 138<-385.788 -235.895> 1250 182<665.899 964.931>
DStem2: 273.265 -595 453.528 -595 0.173648 0.984808<1040.81 1359.59> 1007.93 -595 1188.34 -595 0.173648 0.984808<340.168 1420.83>
AnchorPoint: "BelowBase" 994 -625 basechar 0
LayerCount: 3
Fore
SplineSet
140 174 m 0
 140 327 279 435 409 435 c 0
 427 435 442 433 454 430 c 1
 509 744 l 1
 344 744 l 1
 395 1036 677 1279 979 1279 c 0
 1258 1279 1432 1076 1432 834 c 0
 1432 804 1429 774 1424 744 c 2
 1240 -302 l 1
 892 -595 l 1
 741 -414 l 1
 682 -464 625 -526 513 -526 c 0
 406 -526 325 -447 325 -342 c 0
 325 -188 467 -81 594 -81 c 0
 698 -81 739 -146 780 -193 c 1
 904 -89 l 1
 997 -198 l 1
 871 -304 l 1
 931 -375 l 1
 1067 -260 l 1
 1244 744 l 2
 1248 765 1250 786 1250 806 c 0
 1250 969 1132 1101 948 1101 c 0
 797 1101 668 1014 605 922 c 1
 809 922 l 1
 777 744 l 1
 689 744 l 1
 596 213 l 2
 574 86 452 -11 330 -11 c 0
 217 -11 140 69 140 174 c 0
538 -393 m 0
 587 -393 646 -351 646 -288 c 0
 646 -244 610 -214 569 -214 c 0
 518 -214 463 -258 463 -320 c 0
 463 -363 495 -393 538 -393 c 0
354 123 m 0
 404 123 461 166 461 228 c 0
 461 272 426 302 385 302 c 0
 336 302 278 258 278 196 c 0
 278 151 314 123 354 123 c 0
EndSplineSet
Validated: 1
Layer: 2
SplineSet
140 174 m 0,0,1
 140 284 140 284 223.5 359.5 c 128,-1,2
 307 435 307 435 409 435 c 0,3,4
 434 435 434 435 454 430 c 1,5,-1
 509 744 l 1,6,-1
 344 744 l 1,7,8
 369 888 369 888 462.5 1011 c 128,-1,9
 556 1134 556 1134 693.5 1206.5 c 128,-1,10
 831 1279 831 1279 979 1279 c 0,11,12
 1115 1279 1115 1279 1219.5 1218 c 128,-1,13
 1324 1157 1324 1157 1378 1056.5 c 128,-1,14
 1432 956 1432 956 1432 834 c 0,15,16
 1432 792 1432 792 1424 744 c 2,17,-1
 1240 -302 l 1,18,-1
 892 -595 l 1,19,-1
 741 -414 l 1,20,21
 736 -418 736 -418 716.5 -435.5 c 128,-1,22
 697 -453 697 -453 689 -459 c 128,-1,23
 681 -465 681 -465 662.5 -478.5 c 128,-1,24
 644 -492 644 -492 630.5 -498 c 128,-1,25
 617 -504 617 -504 597.5 -512 c 128,-1,26
 578 -520 578 -520 557 -523 c 128,-1,27
 536 -526 536 -526 513 -526 c 0,28,29
 433 -526 433 -526 379 -473.5 c 128,-1,30
 325 -421 325 -421 325 -342 c 0,31,32
 325 -232 325 -232 409 -156.5 c 128,-1,33
 493 -81 493 -81 594 -81 c 0,34,35
 619 -81 619 -81 642 -87 c 128,-1,36
 665 -93 665 -93 678.5 -98.5 c 128,-1,37
 692 -104 692 -104 711.5 -120.5 c 128,-1,38
 731 -137 731 -137 736 -142 c 128,-1,39
 741 -147 741 -147 760 -169.5 c 128,-1,40
 779 -192 779 -192 780 -193 c 2,41,-1
 904 -89 l 1,42,-1
 997 -198 l 1,43,-1
 871 -304 l 1,44,-1
 931 -375 l 1,45,-1
 1067 -260 l 1,46,-1
 1244 744 l 2,47,48
 1250 776 1250 776 1250 806 c 0,49,50
 1250 931 1250 931 1166.5 1016 c 128,-1,51
 1083 1101 1083 1101 948 1101 c 0,52,53
 841 1101 841 1101 748.5 1049 c 128,-1,54
 656 997 656 997 605 922 c 1,55,-1
 809 922 l 1,56,-1
 777 744 l 1,57,-1
 689 744 l 1,58,-1
 596 213 l 2,59,60
 580 119 580 119 501.5 54 c 128,-1,61
 423 -11 423 -11 330 -11 c 0,62,63
 246 -11 246 -11 193 41.5 c 128,-1,64
 140 94 140 94 140 174 c 0,0,1
538 -393 m 0,65,66
 578 -393 578 -393 612 -363 c 128,-1,67
 646 -333 646 -333 646 -288 c 0,68,69
 646 -256 646 -256 623.5 -235 c 128,-1,70
 601 -214 601 -214 569 -214 c 0,71,72
 529 -214 529 -214 496 -244.5 c 128,-1,73
 463 -275 463 -275 463 -320 c 0,74,75
 463 -352 463 -352 484.5 -372.5 c 128,-1,76
 506 -393 506 -393 538 -393 c 0,65,66
354 123 m 0,77,78
 394 123 394 123 427.5 153.5 c 128,-1,79
 461 184 461 184 461 228 c 0,80,81
 461 260 461 260 438.5 281 c 128,-1,82
 416 302 416 302 385 302 c 0,83,84
 346 302 346 302 312 271 c 128,-1,85
 278 240 278 240 278 196 c 0,86,87
 278 163 278 163 300.5 143 c 128,-1,88
 323 123 323 123 354 123 c 0,77,78
EndSplineSet
EndChar

StartChar: uni0E0F
Encoding: 3599 3599 138
Width: 1486
VWidth: 2045
Flags: W
HStem: -526 133<240.357 396.526> -214 133<255.73 410.983> -11 134<284.049 438.184> 302 133<300.513 454.163> 744 178<689 777> 1101 178<768 1112.72>
VStem: 98 136<-386.301 -236.431> 140 138<130.37 279.12> 1250 182<543.969 964.983>
DStem2: 273.265 -595 453.528 -595 0.173648 0.984808<1040.81 1359.59> 1007.93 -595 1188.34 -595 0.173648 0.984808<340.168 1420.83>
AnchorPoint: "BelowBase" 955 -625 basechar 0
LayerCount: 3
Fore
SplineSet
98 -343 m 0xfe80
 98 -191 235 -81 365 -81 c 0
 471 -81 509 -145 551 -193 c 1
 676 -88 l 1
 768 -199 l 1
 642 -305 l 1
 702 -375 l 1
 835 -260 l 1
 931 -375 l 1
 1067 -260 l 1
 1244 744 l 2
 1248 765 1250 786 1250 806 c 0
 1250 969 1132 1101 948 1101 c 0
 761 1101 651 980 605 922 c 9
 809 922 l 1
 777 744 l 1
 689 744 l 1
 596 213 l 2
 574 86 452 -11 330 -11 c 0
 217 -11 140 69 140 174 c 0xfd80
 140 327 279 435 409 435 c 0
 427 435 442 433 454 430 c 1
 509 744 l 1
 344 744 l 1
 395 1036 677 1279 979 1279 c 0
 1258 1279 1432 1076 1432 834 c 0
 1432 804 1429 774 1424 744 c 2
 1240 -302 l 1
 892 -595 l 1
 796 -480 l 1
 663 -595 l 1
 512 -414 l 1
 454 -465 401 -526 286 -526 c 0
 175 -526 98 -447 98 -343 c 0xfe80
310 -393 m 0
 367 -393 417 -348 417 -287 c 0
 417 -243 385 -214 341 -214 c 0
 285 -214 234 -261 234 -320 c 0xfe80
 234 -361 264 -393 310 -393 c 0
354 123 m 0
 404 123 461 166 461 228 c 0
 461 272 426 302 385 302 c 0
 336 302 278 258 278 196 c 0xfd80
 278 151 314 123 354 123 c 0
EndSplineSet
Validated: 1
Layer: 2
SplineSet
98 -343 m 0,0,1
 98 -233 98 -233 180.5 -157 c 128,-1,2
 263 -81 263 -81 365 -81 c 0,3,4
 391 -81 391 -81 413.5 -87 c 128,-1,5
 436 -93 436 -93 450.5 -99 c 128,-1,6
 465 -105 465 -105 482.5 -120 c 128,-1,7
 500 -135 500 -135 507 -142 c 128,-1,8
 514 -149 514 -149 530.5 -169 c 128,-1,9
 547 -189 547 -189 551 -193 c 1,10,-1
 676 -88 l 1,11,-1
 768 -199 l 1,12,-1
 642 -305 l 1,13,-1
 702 -375 l 1,14,-1
 835 -260 l 1,15,-1
 931 -375 l 1,16,-1
 1067 -260 l 1,17,-1
 1244 744 l 2,18,19
 1250 776 1250 776 1250 806 c 0,20,21
 1250 931 1250 931 1166.5 1016 c 128,-1,22
 1083 1101 1083 1101 948 1101 c 0,23,24
 747 1101 747 1101 605 922 c 1,25,-1
 809 922 l 1,26,-1
 777 744 l 1,27,-1
 689 744 l 1,28,-1
 596 213 l 2,29,30
 580 119 580 119 501.5 54 c 128,-1,31
 423 -11 423 -11 330 -11 c 0,32,33
 246 -11 246 -11 193 41.5 c 128,-1,34
 140 94 140 94 140 174 c 0,35,36
 140 284 140 284 223.5 359.5 c 128,-1,37
 307 435 307 435 409 435 c 0,38,39
 434 435 434 435 454 430 c 1,40,-1
 509 744 l 1,41,-1
 344 744 l 1,42,43
 369 888 369 888 462.5 1011 c 128,-1,44
 556 1134 556 1134 693.5 1206.5 c 128,-1,45
 831 1279 831 1279 979 1279 c 0,46,47
 1115 1279 1115 1279 1219.5 1218 c 128,-1,48
 1324 1157 1324 1157 1378 1056.5 c 128,-1,49
 1432 956 1432 956 1432 834 c 0,50,51
 1432 792 1432 792 1424 744 c 2,52,-1
 1240 -302 l 1,53,-1
 892 -595 l 1,54,-1
 796 -480 l 1,55,-1
 663 -595 l 1,56,-1
 512 -414 l 1,57,58
 507 -418 507 -418 488 -435.5 c 128,-1,59
 469 -453 469 -453 461.5 -459 c 128,-1,60
 454 -465 454 -465 435.5 -479 c 128,-1,61
 417 -493 417 -493 404 -498.5 c 128,-1,62
 391 -504 391 -504 371.5 -512 c 128,-1,63
 352 -520 352 -520 331 -523 c 128,-1,64
 310 -526 310 -526 286 -526 c 0,65,66
 203 -526 203 -526 150.5 -474 c 128,-1,67
 98 -422 98 -422 98 -343 c 0,0,1
310 -393 m 0,68,69
 354 -393 354 -393 385.5 -362.5 c 128,-1,70
 417 -332 417 -332 417 -287 c 0,71,72
 417 -254 417 -254 395.5 -234 c 128,-1,73
 374 -214 374 -214 341 -214 c 0,74,75
 298 -214 298 -214 266 -245 c 128,-1,76
 234 -276 234 -276 234 -320 c 0,77,78
 234 -351 234 -351 255 -372 c 128,-1,79
 276 -393 276 -393 310 -393 c 0,68,69
354 123 m 0,80,81
 394 123 394 123 427.5 153.5 c 128,-1,82
 461 184 461 184 461 228 c 0,83,84
 461 260 461 260 438.5 281 c 128,-1,85
 416 302 416 302 385 302 c 0,86,87
 346 302 346 302 312 271 c 128,-1,88
 278 240 278 240 278 196 c 0,89,90
 278 163 278 163 300.5 143 c 128,-1,91
 323 123 323 123 354 123 c 0,80,81
EndSplineSet
EndChar

